<?xml version="1.0" encoding="UTF-8"?>
<svg id="Layer_1" data-name="Layer 1" xmlns="http://www.w3.org/2000/svg" xmlns:xlink="http://www.w3.org/1999/xlink" viewBox="0 0 1080 1080">
  <defs>
    <style>
      .cls-1 {
        fill: url(#New_Pattern_3);
        opacity: .28;
      }

      .cls-1, .cls-2, .cls-3, .cls-4 {
        stroke-width: 0px;
      }

      .cls-2 {
        fill: #d33631;
      }

      .cls-3 {
        fill: none;
      }

      .cls-4 {
        fill: #fff;
      }
    </style>
    <pattern id="New_Pattern_3" data-name="New Pattern 3" x="0" y="0" width="124" height="178" patternTransform="translate(-1239.85 1080)" patternUnits="userSpaceOnUse" viewBox="0 0 124 178">
      <g>
        <rect class="cls-3" width="124" height="178"/>
        <g>
          <path class="cls-4" d="M102.77,214.77l-21.23-36.77,7.53-13.04c-.13-.07-.26-.15-.39-.23l-7.59,13.15-.06.11,21.42,37.11.06.11h12.9c-.03-.15-.05-.3-.07-.45h-12.56Z"/>
          <path class="cls-4" d="M145.55,140.89l-.06-.11h-24.44c.02.15.03.3.05.45h24.13l21.23,36.77-14.44,25.01c.12.12.22.24.3.37l14.59-25.27.06-.11-21.42-37.11Z"/>
        </g>
        <path class="cls-4" d="M21.55,140.89l-.06-.11H-2.95c.02.15.03.3.05.45h24.13l21.23,36.77-14.44,25.01c.12.12.22.24.3.37l14.59-25.27.06-.11-21.42-37.11Z"/>
        <g>
          <path class="cls-4" d="M40.77,125.77l-21.23-36.77,7.53-13.04c-.13-.07-.26-.15-.39-.23l-7.59,13.15-.06.11,21.42,37.11.06.11h12.9c-.03-.15-.05-.3-.07-.45h-12.56Z"/>
          <path class="cls-4" d="M83.55,51.89l-.06-.11h-24.44c.02.15.03.3.05.45h24.13l21.23,36.77-14.44,25.01c.12.12.22.24.3.37l14.59-25.27.06-.11-21.42-37.11Z"/>
        </g>
        <g>
          <path class="cls-4" d="M102.77,36.77L81.54,0l7.53-13.04c-.13-.07-.26-.15-.39-.23L81.09-.11l-.06.11,21.42,37.11.06.11h12.9c-.03-.15-.05-.3-.07-.45h-12.56Z"/>
          <path class="cls-4" d="M145.55-37.11l-.06-.11h-24.44c.02.15.03.3.05.45h24.13L166.46,0l-14.44,25.01c.12.12.22.24.3.37L166.91.11l.06-.11-21.42-37.11Z"/>
        </g>
        <path class="cls-4" d="M21.55-37.11l-.06-.11H-2.95c.02.15.03.3.05.45h24.13L42.46,0l-14.44,25.01c.12.12.22.24.3.37L42.91.11l.06-.11-21.42-37.11Z"/>
      </g>
    </pattern>
  </defs>
  <circle class="cls-2" cx="540" cy="488.72" r="362.11"/>
  <path class="cls-1" d="M902.11,488.72c0,91.67-34.06,175.38-90.23,239.17-1.95,2.22-3.93,4.42-5.96,6.6-66.13,71.55-160.8,116.34-265.92,116.34s-204.7-47.15-271.04-121.97c-1.57-1.76-3.12-3.54-4.64-5.34-53.91-63.22-86.44-145.21-86.44-234.8,0-199.99,162.13-362.12,362.12-362.12s362.11,162.13,362.11,362.12Z"/>
  <path class="cls-4" d="M461.64,476.35c2.51.87,5.19,1.11,7.89.86,1.41-.13,4.8-.94,4.59-2.93-.21-2.01-3.78-2.04-5.1-1.91-.13.01-.21.02-.27.04-.14-.03-.46-.1-.64-.15.03,0-.17-.08-.38-.16-.6-.85-1.27-1.81-1.94-2.86.38.27.76.54,1.14.82.54.39,1.37.52,2.01.54.79.03,1.75-.1,2.47-.42.49-.22,1.21-.56,1.38-1.12.15-.5-.03-.9-.46-1.21l-2.26-1.62c-.54-.39-1.37-.52-2.01-.54-.79-.03-1.75.1-2.47.42-.39.18-.91.43-1.2.8-1.74-3.16-2.97-6.62-1.95-9.32.87-2.29,3.11-4.04,4.61-5.97,1.53-1.97,2.95-4.03,4.29-6.14,5.78-9.1,9.64-19.24,13.44-29.27,1.28-3.37-8.32-3.38-9.49-.31-4.3,11.33-8.65,22.95-15.86,32.81-2.35,3.21-7.2,6.69-7.19,11.06,0,4.47,2.84,9.54,5.49,13.46-.2.55-.08,1.13.71,1.62.23.14.47.27.7.4.49.63,1.42.99,2.5,1.12ZM468.73,472.4s0,0,0,0c-.05-.01-.11-.03-.18-.04.09.02.15.03.19.04Z"/>
  <path class="cls-4" d="M478.33,464.19c-.48.22-1.22.56-1.37,1.12-.29,1.08-.06,2.19.73,3.01,1.3,1.34,3.18,1.69,4.99,1.49.74-.08,1.6-.29,2.24-.71.35-.23.93-.73.83-1.24-.17-.87-1.15-1.19-2.09-1.28-.06-.05-.12-.11-.15-.16-.06-.09-.1-.19-.15-.29-.06-.24-.09-.47-.07-.72,0-.03,0-.06,0-.09.83-.34,1.43-.86,1.47-1.57.33.04.67.09,1,.13.81.11,1.61.21,2.42.32,1.78.23,3.55.46,5.33.7,1.26.16,3.53.15,4.36-1.04.79-1.13-.21-1.94-1.39-2.09-3.86-.5-7.85-1.35-11.74-1.44-2.59-.06-6.19.86-6.42,3.87Z"/>
  <path class="cls-4" d="M517.56,499.87c-1.28.03-2.47.55-3.74.71-1.44.18-2.92.11-4.34-.2-2.82-.62-5.32-2.14-7.69-3.74-2.18-1.46-4.56-2.87-6.86-4.18-3.3-1.89-7.33-3.72-11.21-3.72-2.36-.14-4.96.33-6.87,1.81-1.37,1.07-2.18.8-3.85.73-1.41-.06-2.84-.03-4.24.2-2.8.45-5.4,1.75-6.9,4.24-.57.95-1.18,1.98-1.25,3.11-.09,1.56.05,3.53,1.13,4.75.75.86,1.9,1.25,3.02,1.47,1.63.31,3.26.68,4.9.89,3.69.46,7.92.64,11.45-.73,1.74-.67,3.32-1.58,5.14-2.07,1.98-.53,3.97-.9,6.02-.98,1.8-.07,3.6.05,5.39.31,3.02.44,6.01,1.17,9.05,1.44,2.58.23,5.18.1,7.66-.48,1.97-.46,3.88-1.22,5.65-2.31-.35-.87-1.63-1.27-2.46-1.25ZM490.21,498.75c-1.7.17-3.38.46-5.04.87-2.51.62-4.78,1.65-7.11,2.37-2.24.69-4.53,1.08-7.13.55-.75-.15-1.5-.37-2.12-.82-1.88-1.35-1.26-4.47.05-6.01.2-.24.42-.47.7-.6,1-.46,2.92.55,4.03.65,1.67.15,3.37-.09,4.94-.68.77-.29,1.45-.71,2.08-1.25.41-.35,1.04-1.37,1.56-1.46.15-.02.29.02.44.06,3.24.98,6.47,2.21,9.28,4.12,1.1.75,2.05,1.4,3.02,2-.86-.53-3.7.09-4.7.19Z"/>
  <path class="cls-4" d="M505.04,513.39c-7.49,2.14-15.03,4.37-22.79,5.26-3.34.38-9.28,1.43-11.93-1.2-2.4-2.38-1.96-5.86-.23-8.43,1.73-2.56-7.61-3.08-9.49-.31-2.1,3.1-2.24,7.25-.08,10.41,2.61,3.81,7.69,4.63,11.96,4.83,12.1.58,24.12-2.86,35.62-6.15,6.29-1.8,1.41-5.69-3.07-4.4Z"/>
  <path class="cls-4" d="M639.63,468.64c4.64,1.31,10.34.63,13.36-3.58,1.42-1.98,1.69-4.44,1.58-6.81-.05-1.09-1.27-6.98-1.13-9.16,2.75-.59,5.08-2.12,3.05-3.75-3.15-2.54-9.78-1.67-11.71,2.13-1.19,2.35-.78,5.3-.45,7.79.18,1.33.49,2.66.54,4.01.09,2.39-1.66,4.39,1.26,5.22-2.16-.61-4.93-.63-6.86.72-1.46,1.03-1.7,2.85.36,3.43Z"/>
  <path class="cls-4" d="M665.72,431.84c.62-1.36,1.43-2.54,2.58-3.52.34-.29.67-.51.99-.7.27.41,1.14.9,1.66,1.56.75.95,1.38,1.99,1.88,3.09,1.13,2.47,1.6,5.28,1.67,7.97.12,5.27-1.52,10.35-3.31,15.27-.28.26-.49.56-.59.89-1.68,5.39-4.25,10.29-7.6,14.83-2.33,3.16-8.79,12.59-12.03,5.92-1.38-2.84-10.89-1.17-9.21,2.27,3.79,7.8,15.33,6.37,21.33,2.35,7.33-4.92,13.1-14.24,16.18-22.69.21-.22.37-.46.47-.72,3.32-8.99,6.72-19.11,2.31-28.36-2.93-6.15-11.58-11.38-17.55-6.33-3.57,1.58-6.58,4.2-8.25,7.86-1.44,3.17,8.1,3.33,9.49.31Z"/>
  <path class="cls-4" d="M786.97,701.49c-16.72-14.53-35.5-26.55-54.2-38.35-22.01-13.91-44.56-26.97-68.14-38.04-1.32-.62-3.89-.26-5.77.52-3.98-1.26-7.97-2.51-11.96-3.77-.51-.16-1.05-.28-1.62-.35-16.89-36.37-17.82-78.99-2.72-116.12.04-.1.07-.19.09-.28.37-.39.61-.84.65-1.36.48-6.28,9.99-4.02,14.32-4.8,4.43-.79,8.24-2.8,11.59-5.79,7.51-6.72,13.95-16.45,18.81-25.24,7.92-14.31,10.35-33.61-1.02-46.19,2.86.02,6.07-1.21,5.58-3.02-5.93-22.07,12.75-41.59,12.27-63.54-.23-10.66-4.37-21.43-11.39-29.47-3.52-4.02-7.98-7.23-11-11.69-3.44-5.09-3.25-11.42-5.58-16.96-8.51-20.23-34.94-21.17-53.39-21.7-6.5-.19-13.04-.45-19.38-2-6.58-1.61-12.76-4.49-19.12-6.74-10.65-3.76-21.48-5.04-32.69-3.41-22.22,3.25-42.22,15.79-64.7,17.46-12.4.91-24.85-1.14-37.24.35-10.05,1.2-21.59,4.51-27.81,13.14-7.19,9.98.84,21.26,1.67,31.97.92,11.68-1.73,23.45.47,35.05,1.73,9.1,6.15,17.66,14.68,21.96,4.84,2.44,10.53,3.31,14.13,7.69,3.73,4.52,5.17,10.66,5.91,16.35,1.64,12.58-1.31,26.53-11.72,34.73-10.12,7.98-25.06,4.46-29.4-8.2-1.82-5.32-1.49-11.1-3-16.49-1.59-5.67-8.52-11.35-3.3-16.88,4.48-4.75,13.6-2.35,19.53-3.41,5.07-.9,10.1-2.86,13.14-7.22,2.57-3.68-6.86-4.1-8.63-1.56-3.64,5.22-9.49,4.35-15.16,4.54-5.28.18-10.84.92-15.22,4.12-3.09,2.25-5.81,5.86-5.47,9.89.23,2.71,1.96,4.49,3.3,6.72,1.6,2.66,2.38,5.47,2.89,8.51,1.69,10.18,2.59,19.48,12.28,25.31,3.12,1.88,6.56,3.12,10.1,3.75-4.96,9.59-2.59,21.79-1,31.96,2.08,13.31,5.45,26.42,10.03,39.08,7.18,19.85,18.38,39.8,38.29,48.39,7.45,8.13,15.64,17.87,15.93,29.25.63,7.69-2.67,15.91-9.51,19.82-1.41.54-2.89,1.28-4.21,2.2-6.39-.84-12.91-.6-19.13,1.21-3.49,1.02-8.18,2.72-10.29,6.02-.47.34-.83.76-1.03,1.28-.17.44-.3.87-.41,1.3-2.98-1.18-9.38.48-7.94,3.31.96,1.88-22.14,8.44-24.74,9.1-8.57,2.17-17.25,3.65-26.01,4.84-16,2.18-32.33,3.92-47.44,9.99-15.29,6.13-27.35,17.13-39.08,28.36-12.66,12.12-25.19,24.36-37.89,36.44,1.52,1.8,3.07,3.58,4.64,5.34,13.14-12.42,26.09-25.05,39.13-37.57,13.05-12.53,26.05-25.05,43.64-30.75,16.44-5.33,33.97-6.03,50.9-9.01,10-1.76,19.83-4.25,29.48-7.41,2.93-.96,12.3-3.01,15.77-6.75,1.83,4.3,6.68,7.44,10.99,9.09,11.3,4.36,23.63,6.84,35.56,8.7,23.32,3.64,46.97,4.06,70.53,4.24.56.15,1.14.21,1.63.2,31.65-.62,62.5-9.01,89.96-24.83.65-.37.99-.81,1.1-1.26,1.1-.96,2.21-1.93,3.31-2.9,19.77,9.45,38.79,20.34,57.39,31.9,18.41,11.44,36.9,23.09,53.8,36.7,12.82,10.33,24.23,22.02,33.77,35.28,2.03-2.18,4.01-4.38,5.96-6.6-7.35-9.59-15.69-18.39-24.91-26.4ZM438.6,371.75c-3.35-5.47-4.7-12.39-5.04-18.58-.7-12.32,2.17-24.76-1.11-36.9-1.52-5.62-4.71-11.46-2.78-17.39,1.99-6.13,8.19-9.8,14-11.58,12.4-3.79,25.98-1.23,38.71-1.55,11.38-.28,22.21-2.8,32.99-6.33,11.29-3.7,22.34-8.39,34.02-10.76,12.84-2.62,23.75,0,35.76,4.6,11.97,4.59,23.46,6.67,36.26,7.03,11.67.33,23.81.19,34.28,6.12,4.83,2.73,9.03,6.61,11.43,11.67,2.78,5.89,2.41,12.63,6.13,18.19,3.28,4.9,8.31,8.35,12.01,12.9,4.18,5.14,7.15,11.2,8.69,17.64,3.16,13.3-1.07,25.54-5.75,37.87-4.04,10.62-8.08,21.7-5.77,33.08-.4-.15-.88-.24-1.4-.28-.23-.31-.63-.62-1.23-.92-18.07-9.09-41.12-.21-47.32,17.72-.9-2.47-1.59-4.83-2.09-6.34-1.96-5.92-3.36-12.02-4.74-18.1-2.42-10.7-4.81-21.46-9.52-31.43-4.76-10.1-11.65-19.23-20.06-26.59-9.1-7.96-19.07-9.85-30.89-9.59-9.74.21-23.06.26-26.09-11.46-2.27-8.79.28-19.07-10.22-23.08-8.55-3.28-18.34-.3-26.43,2.89-9.33,3.68-18.21,8.62-26.26,14.59-16.3,12.06-29.35,28.11-37.58,46.58ZM488.12,623.04c.38-.14.72-.33,1.02-.53,8.59-4.48,13.34-14.37,12.55-23.88-.22-8.9-5.04-16.9-10.7-23.91,39.86.1,79.45-7.48,116.46-22.39,1.71-.69,2.8-2.01,1.39-3.5-1.4-1.48-5.14-.81-6.73-.17-35.87,14.45-74.24,21.61-112.89,21.06.01-.65-.43-1.23-1.49-1.56-1.23-.38-2.43-.81-3.6-1.28-.07-.08-.15-.17-.22-.25-.55-.59-1.5-.9-2.6-1-18.58-8.96-28.61-29.24-35.08-48.18-3.95-11.56-6.89-23.47-8.79-35.54-1.53-9.78-3.9-21.44.81-30.65,2.38-.27,4.73-.79,6.99-1.56,20.01-6.79,27.39-28.83,23.08-48.11,6.76-4.86,14.35-8.09,22.54-9.02-2.57,5.07-3.81,10.91-3.66,16.73.37,14.08,9.34,26.68,22.7,31.39,12.66,4.45,27.57,1.13,36.96-8.53,4.58-4.7,7.09-10.42,7.93-16.88.56-4.23.79-8.32,3.7-11.69,2.34-2.72,5.56-4.95,6.08-8.79,1-7.51-10.49-10.76-16.07-12-8.24-1.83-16.79-1.16-25.05-3.03-3.52-.79-10.65,3.3-4.46,4.7,6.95,1.57,13.9,1.51,20.93,2.33,3.78.44,7.47,1.42,10.85,3.21,2.5,1.32,4.99,2.99,3.86,6.26-.58,1.68-2.01,2.92-3.19,4.15-2.42,2.51-4.32,4.76-5.21,8.2-.91,3.51-.8,7.21-1.67,10.72-1.66,6.67-6.21,12.46-12.22,15.78-13.12,7.23-28.12-2.75-33.25-15.34-4.99-12.28-1.99-31.98,11.95-37.07,1.74-.64,2.77-2.04,1.39-3.5-1.43-1.52-5.1-.77-6.73-.17-4.77,1.74-8.64,4.72-11.6,8.43-9.77.58-19.15,3.16-27.6,7.96-1.21-3.15-2.86-6.11-5.29-8.51-4.3-4.23-10.02-5.06-15.13-7.85-.24-.13-.46-.29-.7-.43,6.67-17.91,17.78-33.79,32.31-46.22,7.41-6.34,15.74-11.75,24.6-15.82,6.9-3.18,20.28-10.04,24.8-.08,1.93,4.25,1.21,9.33,2.02,13.82.73,4.12,2.51,7.69,5.72,10.43,6.43,5.52,15.65,6.57,23.79,6.5,5.46-.04,11.15-.69,16.53.54,6.25,1.42,11.43,5.77,15.86,10.21,7.31,7.32,13.23,16.11,17.25,25.65,4.77,11.35,6.67,23.63,9.65,35.5,1.42,5.69,3.1,11.33,5.37,16.75,2.01,4.8,4.1,10.43,9.31,12.38,1.82.68,8.37.6,8.09-2.58-1.59-18.14,15.01-33.87,32.63-25.01.34.17.77.28,1.26.32.11.14.24.27.42.41,16.87,13.13,9.89,37,0,51.99-2.97,4.5-6.27,8.82-9.67,12.99-3.72,4.57-6.96,7.9-13.14,8.04-6.97.15-17.49,1.17-18.53,9.81-.26.24-.47.51-.59.81-15.34,37.71-14.32,80.63,2.51,117.63-25.72,9.66-52.54,15.77-79.95,18.05-13.62,1.13-27.65,1.87-41.27.36-6.62-.74-13.19-2.13-19.35-4.7-4.94-2.05-18.03-9.34-6.89-13.38ZM648.11,632.75c-23.32,13.18-49.52,20.75-76.29,21.79-.27-.03-.54-.05-.78-.05-21.62-.16-43.34-.27-64.82-3-10.66-1.35-21.27-3.31-31.61-6.24-5.85-1.66-19.83-4.81-17.64-13.64.3-.29.54-.61.68-1,1.83-5.07,11.29-4.81,16.62-4.16-.55,1.68-.37,3.56,1,5.59,3.64,5.38,12.04,8.35,17.89,10.24,15.56,5.04,32.28,4.85,48.44,4.2,34.14-1.36,67.68-8.17,99.64-20.22,3.5,1.1,7,2.21,10.49,3.31-1.2,1.06-2.41,2.12-3.62,3.18Z"/>
  <path class="cls-4" d="M511,387.08c-6.74,1.21-11.91,6.78-13.43,13.63-1.5,6.74,1.33,13.8,9.22,12.75,2.93-.39,5.64-1.84,7.17-4.42,2.05-3.45-.6-9.91,2.66-11.47,2.57-1.23,5.26-1.62,5.31-5.27.06-3.81-3.25-5.89-6.5-6.71-1.45-.37-3.81.52-4.43,1.5ZM514.02,394.61c-.95.62-2.5.46-3.53,1.13-2.92,1.9-1.85,4.92-1.73,7.83.09,2.12-.82,7.35-3.99,5.3-1.26-.82-1.25-4.17-1.18-5.5.21-4.02,3.4-13.2,8.64-13.25.68,0,1.34-.18,1.92-.45,1.42,1.39,1.66,3.78-.14,4.94Z"/>
  <path class="cls-4" d="M513.65,421.49c-.2.41-.4.76-.68,1.12-.19.23-.59.47-.79.72-.24-.15-.52-.34-.47-.29-.51-.47-.85-1.17-.84-1.86,0-.39.1-.81.32-1.14.03-.05.06-.09.1-.13,1.17-.02,2.47-.34,3.12-1.14.93-1.14-.34-1.88-1.39-2.09-2.65-.53-5.86.14-7.61,2.34-1.57,1.97-1.15,4.48.72,6.08,4.29,3.68,11.5,1.37,13.85-3.39,1.01-2.04-5.34-2.2-6.32-.2ZM511.33,419.84c.43-.53.61-.15,0,0h0Z"/>
  <path class="cls-4" d="M421.09,425.85c3.46,4.59,9.36.07,11.24-3.48,3.45-6.5,1.22-13.8-2.17-19.79-.39-.69-1.51-.96-2.69-.91-3.7-1.39-9.23-.47-9.93,3.88-.55,3.39,2.83,6.32,3.02,9.82.18,3.22-1.63,7.6.54,10.48ZM424.62,405.22c2.34,4.6,4.41,11.62,1.94,16.46-.09-2.87.45-7.1.39-7.72-.13-1.31-.46-2.51-.97-3.72-.22-.54-2.15-5.41-2.07-5.34.18.15.43.25.71.32Z"/>
  <path class="cls-4" d="M427.63,439.01c3.02.53,6.97-.34,8.58-3.18,1.33-2.34.53-5.25-1.56-6.83-.72-.54-1.77-.66-2.76-.55-.84-.9-2.95-.67-3.89-.47-2.86.6-5.48,2.74-5.62,5.83-.13,2.97,2.64,4.74,5.25,5.19ZM429.68,435.82s-.01.04-.01.04c.05.25-.09-.08.01-.04ZM429.4,431.55s.06-.08.09-.12c.77.75,1.04,1.93.86,2.98-.02.14-.32.67-.52,1.05-.56-.49-.97-1.06-1-1.98-.02-.67.19-1.37.56-1.93Z"/>
  <g>
    <path class="cls-4" d="M497.51,687.19h.64l1.61.59c.21,0,.43-.1.64-.29,0-1.67.86-3.1,2.58-4.28.54-1.87,1.75-3.29,3.63-4.28,1.88-.98,4.86-2.6,8.95-4.87l4.03-3.25,1.94-.88,1.29-1.47c1.18-1.28,2.31-1.92,3.38-1.92,1.61,0,2.42.54,2.42,1.62l-1.45,2.95.65,4.87c0,1.77-.67,3.34-2.01,4.72-1.34,1.38-3.41,3.39-6.2,6.05l-8.21,7.96-4.35,2.06c-1.08.59-2.04,1.28-2.9,2.06l-6.28,4.87c0,1.38-.48,2.41-1.45,3.1h-2.58l-1.29.59c-.75,1.87-2.96,3.69-6.6,5.46l-2.25,1.47c-.75.59-1.45.88-2.09.88l-4.51-.59-3.06.59c-.86,0-2.02-.39-3.46-1.18-1.45-.79-2.93-1.4-4.43-1.84-1.5-.44-3.41-2.26-5.72-5.46-2.31-3.19-3.57-5.28-3.78-6.27,0-.39-.24-1.06-.73-1.99-.48-.93-.72-1.5-.72-1.7s.48-1.18,1.45-2.95v-.29c0-.29-.3-.98-.89-2.07-.59-1.08-.88-2.41-.88-3.98,0-.88-.32-2.01-.96-3.39.86-.79,1.29-1.38,1.29-1.77s-.16-.96-.48-1.7c-.32-.74-.48-1.3-.48-1.7l.96-7.23-.64-3.69.32-3.54c0-2.06-.96-3.1-2.88-3.1-.85,0-1.92.54-3.2,1.62l-1.12.29c-2.88,1.28-4.92,2.34-6.09,3.17-1.18.84-2.41,1.25-3.69,1.25-.64.59-1.87,1.13-3.69,1.62l-1.28.88c-.43.39-1.28.98-2.56,1.77,0,.29-2.01,1.94-6.01,4.94-4.01,3-7.61,5.83-10.82,8.48-3.21,2.65-5.53,4.11-6.97,4.35-1.44.25-2.16,1.5-2.16,3.76,0,.39-.96,1.18-2.89,2.36-.21,0-1.33,1.08-3.36,3.25-1.71-1.18-2.67-1.77-2.89-1.77-1.4,0-2.42,1.62-3.06,4.87-.65,1.28-2.37,2.06-5.16,2.36-.22.1-.59.84-1.13,2.21l-.64.59h-1.61c-.22,0-.97.57-2.26,1.7-1.29,1.13-2.42,1.84-3.39,2.14-1.4,2.66-2.58,3.98-3.55,3.98-.43,0-1.05-.2-1.85-.59-.81-.39-1.8-.74-2.98-1.03-1.18-.29-2.49-1.5-3.94-3.61-1.45-2.11-2.17-3.91-2.17-5.38,0-10.91,2.3-16.86,6.92-17.84l.32-.59v-1.18c0-1.28.62-2.19,1.85-2.73,1.23-.54,2.49-1.62,3.78-3.25s2.14-2.53,2.57-2.73h2.09c.43,0,.64-1.03.64-3.1,0-.59.27-1.13.8-1.62.54-.49.86-1.2.97-2.14.11-.93.88-2.46,2.33-4.57,1.45-2.11,2.17-3.37,2.17-3.76l-.32-.59c-2.68,2.26-4.61,3.49-5.79,3.69-1.18.2-2.79,1.62-4.83,4.28l-2.57-.44c-4.51,3.05-7.3,4.77-8.38,5.16-1.08.39-2.26,1.53-3.55,3.39,0,.59-.38.98-1.13,1.18-.75.2-2.15.98-4.19,2.36h-.97c-2.69,0-4.03-1.77-4.03-5.31l3.38-8.41c.96-2.66,3.24-4.89,6.83-6.71,3.59-1.82,6.61-3.56,9.08-5.24,2.46-1.67,4.93-2.56,7.39-2.65l1.12-1.48c3.64-1.28,6.11-3.29,7.39-6.05,1.29-2.75,3.05-4.13,5.31-4.13,5.89,0,10.39,1.99,13.5,5.97,3.11,3.98,4.66,7.15,4.66,9.51l.32,3.98c0,1.38-.32,3.29-.96,5.75-1.29,1.77-1.93,3.1-1.93,3.98,0,.79.54,1.18,1.61,1.18.64,0,1.5-.42,2.57-1.25,1.07-.83,2.28-1.6,3.62-2.29,1.34-.69,2.12-1.28,2.33-1.77,1.07-2.36,2.94-3.98,5.62-4.87,2.68-.88,4.34-1.62,4.98-2.21l1.61-1.18,1.29-2.21c2.89-1.18,4.82-2.26,5.78-3.24.96-.98,2.25-1.62,3.86-1.92,1.61-.29,3.43-1.18,5.47-2.65l2.41-.59,2.25-1.18c.21-.2.86-.44,1.93-.74,1.07-.3,2.65-.81,4.74-1.55s3.51-1.11,4.26-1.11c5.46,0,9.77,2.02,12.94,6.05,3.16,4.03,4.74,7.28,4.74,9.73l-.32,2.66.64,3.98v.59l-1.29,8.11.32,2.8c0,4.62-1.07,7.82-3.22,9.59-.54.2-.8.69-.8,1.47v1.33l3.22,6.19c.96,2.16,1.72,3.24,2.25,3.24l5.16-1.33c1.5-.39,2.74-1.42,3.71-3.1.86-.39,2.36-1.57,4.51-3.54.64-1.57,1.67-2.36,3.06-2.36Z"/>
    <path class="cls-4" d="M573.74,582.92l2.25-.59,1.61-1.47h.32l1.45.59h.32c2.57,0,4.86-.46,6.86-1.4,2-.93,3.67-1.6,5.03-1.99,1.35-.39,2.19-.69,2.52-.88.32-.2.6-.29.81-.29l2.6.29c.86,0,2.01-1.4,3.46-4.2,1.45-2.8,3.08-4.84,4.9-6.12,1.82-1.28,3.64-3.69,5.47-7.23.43-.49.91-1.25,1.45-2.29.54-1.03.96-1.55,1.29-1.55,1.61,0,2.89-.93,3.86-2.8,3.21-3.44,5.84-5.16,7.87-5.16,2.68,0,4.55,2.36,5.63,7.08l1.61,5.6c0,.1-.27.81-.8,2.14-.54,1.33-.78,2.65-.72,3.98.05,1.33,0,2.21-.16,2.65-.16.44-.24.96-.24,1.55,0,.79.91,1.18,2.73,1.18.64,0,1.82-.39,3.54-1.18l.96-.29c1.07.59,1.98.88,2.73.88.21,0,1.74-.49,4.58-1.47,2.84-.98,4.64-1.52,5.39-1.62.75-.1,2.04-.49,3.86-1.18h1.93l1.29.44c.43,0,1.31-.42,2.65-1.25,1.34-.83,3.89-1.35,7.64-1.55l2.25-.88h.64c3.54,0,5.31,1.43,5.31,4.28,0,.59-.51,1.62-1.53,3.1-1.02,1.47-1.85,3.15-2.49,5.01l-7.4,8.55c-2.47,2.95-4.93,4.42-7.4,4.42-.43,0-1.77-1.33-4.02-3.98,0-.2-.22-.29-.64-.29-1.07,0-2.2.2-3.38.59-1.18.39-2.15.59-2.89.59-.32,0-3.16.74-8.53,2.21l-3.86.59c-.43,0-1.45.2-3.06.59l-8.21,1.48c-2.79,1.28-4.99,3.69-6.6,7.23,0,.2-.54.64-1.61,1.33l-7.24,12.09c-2.37.59-3.92,1.87-4.67,3.83l-.65.88c-1.18.2-2.26.81-3.22,1.84-.97,1.03-1.88,1.84-2.74,2.43l-2.9,3.98c-1.18,1.38-2.37,2.88-3.55,4.5s-2.04,3.34-2.58,5.16c-.54,1.82-.97,2.88-1.29,3.17-.32.3-.48.84-.48,1.62l-.48,1.18c-1.29,1.18-1.94,2.51-1.94,3.98l.65,2.36c-1.51,4.72-2.26,7.23-2.26,7.52,0,.2.11.74.32,1.62v.88c0,2.16-.86,4.87-2.58,8.11l.32,2.36-.97,6.64c0,.88.32,2.51.97,4.87-.43.39-.65.69-.65.88,0,2.75,1.58,5.78,4.75,9.07,3.17,3.3,4.76,8.43,4.76,15.41,0,.59-.16,1.45-.49,2.58-.32,1.13-.54,2.36-.64,3.69-.11,1.33-.94,2.63-2.5,3.91-1.56,1.28-2.87,1.92-3.95,1.92-5.7,0-9.94-3.78-12.73-11.36-2.79-7.57-4.19-12.44-4.19-14.6l.32-5.75-.97-2.95.97-12.98-.65-3.1,3.71-12.68v-4.57c0-.2.75-.98,2.25-2.36,0-.2-.22-.29-.64-.29-.65,0-1.5.59-2.58,1.77-1.08,1.18-2.42,2.31-4.03,3.39l-1.29,2.07c-.21-.2-.64-.39-1.29-.59-.54.2-2.31,2.51-5.32,6.93-2.26.29-4.03,1.47-5.32,3.54s-3.06,3.1-5.32,3.1l-.65.29c-.43,2.85-1.93,4.28-4.51,4.28l-.64.29c-1.61,3.34-3.28,4.97-5,4.87-1.08,2.95-3.71,4.97-7.9,6.05-.64,1.18-1.58,2.06-2.82,2.65-1.23.59-2.12,1.13-2.66,1.62-.54.49-1.02.74-1.45.74-1.39,0-2.09-1.38-2.09-4.13,0-.79.35-1.65,1.05-2.58.7-.93,1.05-1.6,1.05-1.99,0-.2-.54-.79-1.61-1.77,0-3.05.86-4.96,2.58-5.75,1.72-.79,3.01-1.92,3.87-3.39.54-1.18,1.61-2.01,3.22-2.51,1.61-.49,2.42-1.13,2.42-1.92,0-.69,1.39-2.06,4.19-4.13,2.79-2.07,4.83-3.86,6.12-5.38,1.29-1.52,2.36-2.29,3.22-2.29l.64-.59c.21-2.46,1.23-3.69,3.06-3.69l1.61-.88.32-1.18.96-.59h1.29l.8-.59c.21-2.46,1.47-4.37,3.78-5.75,2.31-1.38,6.52-5.24,12.64-11.58,6.12-6.34,9.55-10.4,10.31-12.17.75-1.77,2.12-4.15,4.11-7.15,1.98-3,3.09-5.83,3.3-8.48-.22-.39-.54-.79-.96-1.18l-6.92,3.1c0-.29-1.07-.74-3.22-1.33-1.61.88-2.79,1.77-3.54,2.65-.75.88-1.34,1.33-1.77,1.33l-2.25-.29-7.08.74c-6.33.49-11.1,1.67-14.32,3.54l-6.59,1.77h-1.45c-.86,0-2.15.49-3.86,1.47l-3.7-.29c-3.43,1.67-5.95,2.51-7.56,2.51-.21,0-.86-.1-1.93-.29l-16.41,4.13c-1.29.39-4.18,2.41-8.69,6.05l-1.29.29c-1.07,0-2.33-1.11-3.78-3.32-1.45-2.21-2.17-4.2-2.17-5.97,0-9.73,9.12-15.39,27.34-16.96l6.59-2.36h.32l1.77.59h.64c.64,0,1.66-.37,3.06-1.11,1.39-.74,4.5-1.64,9.33-2.73l6.59-1.62,2.09.29c1.07,0,2.28-.39,3.62-1.18,1.34-.79,3.38-1.35,6.11-1.7,2.73-.34,4.64-.71,5.71-1.11l2.57-.59c.43,0,1.31-.34,2.65-1.03,1.34-.69,3.08-1.03,5.23-1.03.32,0,1.13.2,2.41.59Z"/>
    <path class="cls-4" d="M634.77,707.69l1.77-2.21c.64-.79.96-1.67.96-2.65l3.86-10.47c1.39-3.74,2.2-5.8,2.41-6.19l.64-2.95,1.93-3.39.64-3.83c.43-2.85,1.98-7.08,4.67-12.68l.32-2.21,1.29-3.25v-.59c0-.98-.32-1.47-.96-1.47h-1.29c-1.93,0-3,.39-3.22,1.18l-1.12,4.13c0,1.47-.96,2.21-2.9,2.21-.22,0-.78-.15-1.69-.44-.91-.29-1.48-.44-1.69-.44-.64,1.18-1.5,2.66-2.57,4.42-1.07.39-2.84,1.43-5.31,3.1l-1.61.29c-1.18,1.57-2.95,3.2-5.3,4.87l-.64.88c-1.5,2.16-3.59,3.25-6.27,3.25-3.53,0-5.3-2.21-5.3-6.64,0-2.75,1.45-4.84,4.34-6.27,2.9-1.42,4.77-2.7,5.63-3.83.86-1.13,3.16-2.68,6.92-4.65l1.61-2.06c.86-1.08,1.61-1.62,2.25-1.62l2.73-.88c.43-.39,1.39-.59,2.89-.59l-.32-2.07c0-.59,1.34-1.23,4.02-1.92.64-.59,2.11-1.67,4.42-3.24,2.3-1.57,6.3-5.8,11.98-12.68.43-.98,1.26-1.74,2.49-2.29,1.23-.54,2.28-1.2,3.14-1.99h3.21c.86,0,2.79,1.33,5.79,3.98,3,2.65,4.5,6.05,4.5,10.18l-4.66,19.03.32,1.33-.32,1.18c0,.39.21.59.64.59s1.34-.79,2.74-2.36c.64-1.87,1.96-3.29,3.95-4.28,1.99-.98,3.46-2.04,4.43-3.17.96-1.13,2.28-2.14,3.95-3.02,1.66-.89,3.87-2.33,6.61-4.35,2.74-2.01,5.24-3.12,7.49-3.32l1.61-.88.65-2.21c1.93-1.38,4.03-2.65,6.28-3.83l3.87-2.8c4.62-1.38,8.05-2.06,10.31-2.06,1.07,0,2.04-.39,2.9-1.18l3.71,1.47c.22,0,.65-.29,1.29-.88,0-.2.21-.29.65-.29,4.4,0,8.13,1.57,11.19,4.72,3.06,3.15,4.59,6.59,4.59,10.32,0,.2-.16.64-.48,1.33-.32.69-.48,1.28-.48,1.77l.96,2.36v.29l-3.54,8.41c-.32.98-.96,3.74-1.93,8.26-2.04,2.95-4.42,5.75-7.16,8.41-2.73,2.66-4.53,4.67-5.39,6.05.43.39.8.59,1.13.59.96,0,2.36-.88,4.18-2.65l7.56-4.28,1.29.59c1.5-.98,3.05-2.11,4.65-3.39,1.6-1.28,3-1.97,4.17-2.06.64-.79,1.76-1.77,3.37-2.95l1.6-1.62c.64,0,1.39-.34,2.24-1.03.85-.69,1.84-1.13,2.97-1.33,1.12-.2,2.27-.96,3.45-2.29s2.16-2.09,2.97-2.29c.8-.2,1.31-.59,1.52-1.18,3.63-3.34,6.47-5.16,8.5-5.46l1.93-.59c.21-.2.42-.29.64-.29,1.18,0,2.08,1.03,2.73,3.1l-2.09,2.95v1.47l.48,1.62c0,.98-.64,2.24-1.93,3.76-1.29,1.53-2.73,2.29-4.34,2.29-1.82.79-2.92,1.65-3.3,2.58-.38.94-1.96,2.29-4.74,4.06-2.79,1.77-4.5,3.32-5.14,4.65-.64,1.33-1.55,1.99-2.73,1.99l-2.89-.88c-2.47,2.95-4.13,4.33-4.98,4.13h-.96l-.64.3-1.93,3.69c-1.18.2-2.09.49-2.73.88l-1.61-.29c-6.54,6-10.72,9-12.54,9l-2.89-.29c-.22,0-.72.57-1.53,1.7-.8,1.13-1.47,1.94-2.01,2.43-.54.49-1.23,1.23-2.09,2.21h-3.38c-.86,0-2.47.84-4.82,2.51,0,.2-.11.29-.32.29l-2.41-.88h-.32c-1.07,0-2.47.79-4.18,2.36l-4.99,1.77c0,.2-.11.29-.32.29l-3.38-.59c-.64,0-1.61.49-2.89,1.47l-1.29.74c-.64,0-1.77.49-3.38,1.47l-5.14,1.77c-.54-.2-1.02-.29-1.45-.29l-2.89.29-2.57-.59c-.54,0-1.34.69-2.41,2.06,0,.2-.22.29-.64.29-.21,0-.75-.1-1.61-.29h-1.93l-3.7.88c-.86,0-2.39-.79-4.58-2.36-2.2-1.57-3.62-3-4.26-4.28l-1.61-2.36c-1.5-.59-2.52-1.18-3.05-1.77l-1.29.59c-.11.39-.56,1.03-1.37,1.92-.8.88-1.21,1.53-1.21,1.92,0,1.28-.51,2.98-1.53,5.09-1.02,2.12-2.5,5.88-4.44,11.28l-2.1,2.36c-.43.49-.65.98-.65,1.47,0,.88-.86,2.41-2.58,4.57-.11,2.46-1.13,4.92-3.06,7.37l-.65,1.47v2.07c0,.59-1.08,3-3.23,7.23l-.32,3.1c-.65.1-1.75,2.04-3.3,5.83-1.56,3.78-3.41,6.96-5.55,9.51l-1.45,4.87-1.61,2.65-.96,2.8c-.22.49-.54.88-.96,1.18l-.32,1.47-.96.59c.21,1.48-.8,3.93-3.06,7.37,0,.39-.54,1.08-1.61,2.07-1.07.98-2.3,2.43-3.7,4.35-1.39,1.92-3.43,3.66-6.11,5.24l-6.92,3.98c-5.15,0-8.68-2.51-10.62-7.52-.21-.59-1.26-2.21-3.14-4.87-1.87-2.65-2.81-6.59-2.81-11.8l1.45-6.05c.96-5.41,2.04-8.8,3.22-10.18l1.93-3.98c.22-.79.59-1.55,1.13-2.29.54-.74,1.1-1.87,1.69-3.39.59-1.53,2.07-2.97,4.42-4.35,1.5-3.15,3.06-5.85,4.67-8.11l2.25-3.98c0-1.18,1.13-2.46,3.38-3.83.96-1.87,2.31-3.76,4.02-5.68,1.72-1.92,2.84-3.07,3.38-3.47.54-.39,1.02-1.65,1.45-3.76.43-2.11,1.37-3.42,2.81-3.91,1.45-.49,2.28-1.13,2.49-1.92l1.61-2.51c1.07-.79,2.12-2.01,3.14-3.69,1.02-1.67,2.17-2.75,3.46-3.25,1.39-2.36,2.68-3.54,3.86-3.54ZM597,789.24c.54-.29,3.27-4.13,8.2-11.5l1.61-2.8c.96-1.57,1.88-2.85,2.73-3.83l.32-1.18c.54-.49,1.07-1.23,1.61-2.21l8.85-21.39c1.29-3.15,2.12-5.38,2.49-6.71.38-1.33,1.85-5.43,4.42-12.31-.64.2-1.29.91-1.93,2.14-.64,1.23-1.18,1.84-1.61,1.84l-2.41.29c-.22,0-1.07,1.77-2.57,5.31l-.64.74c-1.61.2-2.68.98-3.22,2.36l-2.73,5.16v2.07c0,2.36-1.88,4.57-5.63,6.64-1.18,2.85-1.93,4.28-2.25,4.28h-1.61l.64,2.66c0,2.26-.72,4.2-2.17,5.83s-2.17,2.53-2.17,2.73l.32,2.95-.32,2.66c-1.29,2.85-1.93,6.29-1.93,10.32v3.98ZM674.41,690.72l5.63-.88c3-.59,4.67-.88,4.99-.88.21,0,.7.15,1.45.44.75.29,1.58.59,2.49.88.91.29,1.9,1.38,2.97,3.25,5.26-2.26,8.42-3.88,9.49-4.87,1.07-.98,1.98-1.47,2.73-1.47.21,0,.54.1.96.29.21-.49.48-1.08.8-1.77.32-.69,1.1-1.5,2.33-2.43,1.23-.93,3.14-3.07,5.71-6.42l5.31-5.46,5.63-7.52c1.39-1.96,2.57-4.28,3.54-6.93l.96-1.92c.43-1.18.64-1.87.64-2.06,0-.69-.75-2.31-2.25-4.87l-4.02,1.62v-.29c-1.29-.88-2.36-1.33-3.22-1.33-.64,0-1.23.37-1.77,1.11-.54.74-1.31,1.21-2.33,1.4-1.02.2-1.9.64-2.65,1.33-.75.69-1.74,1.08-2.97,1.18-1.23.1-2.6.84-4.1,2.21l-1.93-.29-1.13.74-1.93-.44c-2.25,2.36-3.83,3.81-4.75,4.35-.91.54-2.17,1.84-3.78,3.91h-2.25c-.86,0-1.66,1.08-2.41,3.25-1.07.59-2.15,1.53-3.22,2.8l-4.02,1.47c-.86,1.28-1.82,2.26-2.89,2.95l-6.27,7.37c-.43.39-.91.64-1.45.74-.54.1-1.07.25-1.61.44l.8,2.95h-.48c-2.57,1.28-4.18,3.54-4.82,6.78l-.97,3.54c0,.59.21.88.64.88s1.02-.34,1.77-1.03c.75-.69,2.09-1.67,4.02-2.95,1.93-1.28,3.38-1.97,4.34-2.07Z"/>
  </g>
</svg>