<?xml version="1.0" encoding="UTF-8"?>
<svg id="Layer_1" data-name="Layer 1" xmlns="http://www.w3.org/2000/svg" xmlns:xlink="http://www.w3.org/1999/xlink" viewBox="0 0 1080 1080">
  <defs>
    <style>
      .cls-1 {
        fill: #d3605e;
      }

      .cls-1, .cls-2, .cls-3, .cls-4, .cls-5, .cls-6, .cls-7, .cls-8 {
        stroke-width: 0px;
      }

      .cls-2 {
        fill: none;
      }

      .cls-3 {
        fill: #655eff;
      }

      .cls-4 {
        fill: #004d6b;
      }

      .cls-5 {
        fill: url(#New_Pattern_2);
      }

      .cls-6 {
        fill: #0c186b;
      }

      .cls-7, .cls-9 {
        fill: #fff;
      }

      .cls-9 {
        stroke: #004d6b;
        stroke-miterlimit: 10;
      }

      .cls-8 {
        fill: #6d7dd3;
      }

      .cls-10 {
        opacity: .56;
      }
    </style>
    <pattern id="New_Pattern_2" data-name="New Pattern 2" x="0" y="0" width="116" height="204" patternTransform="translate(0 1080)" patternUnits="userSpaceOnUse" viewBox="0 0 116 204">
      <g>
        <rect class="cls-2" width="116" height="204"/>
        <g>
          <path class="cls-3" d="M96.91,238.22l-19.09-34.22,6.77-12.13c-.12-.07-.23-.14-.35-.21l-6.83,12.24-.06.1,19.27,34.53.06.1h11.6c-.02-.14-.04-.28-.07-.42h-11.3Z"/>
          <path class="cls-3" d="M135.38,169.47l-.06-.1h-21.98c.02.14.03.28.04.42h21.7l19.09,34.22-12.99,23.28c.11.11.2.23.27.35l13.12-23.52.06-.1-19.27-34.53Z"/>
        </g>
        <path class="cls-3" d="M19.38,169.47l-.06-.1H-2.66c.02.14.03.28.04.42h21.7l19.09,34.22-12.99,23.28c.11.11.2.23.27.35l13.12-23.52.06-.1-19.27-34.53Z"/>
        <g>
          <path class="cls-3" d="M38.91,136.22l-19.09-34.22,6.77-12.13c-.12-.07-.23-.14-.35-.21l-6.83,12.24-.06.1,19.27,34.53.06.1h11.6c-.02-.14-.04-.28-.07-.42h-11.3Z"/>
          <path class="cls-3" d="M77.38,67.47l-.06-.1h-21.98c.02.14.03.28.04.42h21.7l19.09,34.22-12.99,23.28c.11.11.2.23.27.35l13.12-23.52.06-.1-19.27-34.53Z"/>
        </g>
        <g>
          <path class="cls-3" d="M96.91,34.22L77.82,0l6.77-12.13c-.12-.07-.23-.14-.35-.21L77.41-.1l-.06.1,19.27,34.53.06.1h11.6c-.02-.14-.04-.28-.07-.42h-11.3Z"/>
          <path class="cls-3" d="M135.38-34.53l-.06-.1h-21.98c.02.14.03.28.04.42h21.7L154.18,0l-12.99,23.28c.11.11.2.23.27.35L154.59.1l.06-.1-19.27-34.53Z"/>
        </g>
        <path class="cls-3" d="M19.38-34.53l-.06-.1H-2.66c.02.14.03.28.04.42h21.7L38.18,0l-12.99,23.28c.11.11.2.23.27.35L38.59.1l.06-.1-19.27-34.53Z"/>
      </g>
    </pattern>
  </defs>
  <g>
    <path class="cls-7" d="M540,126.6c-199.99,0-362.11,162.13-362.11,362.12,0,89.59,32.53,171.57,86.44,234.79,12.69-12.07,25.22-24.32,37.88-36.43,11.74-11.23,23.8-22.23,39.08-28.36,15.12-6.07,31.44-7.81,47.45-9.99,8.75-1.19,17.43-2.67,26.01-4.84,2.6-.66,25.69-7.22,24.74-9.1-1.44-2.83,4.96-4.49,7.94-3.31.1-.43.23-.86.4-1.3.2-.52.57-.94,1.03-1.28,2.12-3.3,6.81-5,10.29-6.02,6.22-1.81,12.75-2.05,19.13-1.21,1.33-.92,2.8-1.66,4.21-2.2,6.85-3.91,10.15-12.13,9.51-19.82-.29-11.38-8.48-21.12-15.93-29.25-19.91-8.59-31.11-28.54-38.29-48.39-4.58-12.66-7.95-25.77-10.03-39.08-1.59-10.17-3.95-22.37,1-31.96-3.54-.63-6.97-1.87-10.1-3.75-9.69-5.83-10.59-15.13-12.28-25.31-.51-3.04-1.29-5.85-2.89-8.51-1.34-2.23-3.07-4.01-3.3-6.72-.34-4.03,2.38-7.64,5.47-9.89,4.38-3.2,9.94-3.94,15.22-4.12,4.91-.16,9.95.46,13.59-2.76-.54-1.42-.51-3.07.34-4.29.86-1.23,1.6-2.51,2.44-3.74-7.13-4.58-10.97-12.42-12.55-20.72-2.2-11.6.45-23.37-.46-35.05-.84-10.71-8.87-21.99-1.67-31.97,6.22-8.63,17.75-11.94,27.81-13.14,12.38-1.49,24.83.56,37.23-.35,22.48-1.67,42.49-14.21,64.7-17.46,11.21-1.63,22.04-.35,32.69,3.41,6.36,2.25,12.55,5.13,19.12,6.74,6.35,1.55,12.89,1.81,19.39,2,18.44.53,44.87,1.47,53.38,21.7,2.33,5.54,2.14,11.87,5.59,16.96,3.01,4.46,7.47,7.67,10.99,11.69,7.02,8.04,11.17,18.81,11.4,29.47.47,21.95-18.2,41.47-12.27,63.54.48,1.81-2.72,3.04-5.59,3.02,11.38,12.58,8.94,31.88,1.03,46.19-4.86,8.79-11.3,18.52-18.82,25.24-3.34,2.99-7.16,5-11.59,5.79-4.33.78-13.83-1.48-14.32,4.8-.04.52-.28.97-.65,1.36-.02.09-.05.18-.09.28-15.1,37.13-14.16,79.75,2.73,116.12.56.07,1.11.19,1.62.35,3.98,1.26,7.97,2.51,11.96,3.77,1.87-.78,4.44-1.14,5.76-.52,23.59,11.07,46.13,24.13,68.15,38.04,18.69,11.8,37.47,23.82,54.2,38.35,9.22,8.01,17.55,16.81,24.9,26.4,56.17-63.79,90.23-147.5,90.23-239.17,0-199.99-162.12-362.12-362.11-362.12Z"/>
    <path class="cls-4" d="M811.5,738.91l-5.18-6.76c-6.97-9.09-15.02-17.63-23.93-25.37-17.01-14.77-37.16-27.49-53.35-37.72-24.87-15.71-46.05-27.56-66.56-37.23-.27.04-.62.13-.92.25l-2.36.99-7.33-2.31c-2.36-.74-4.72-1.49-7.08-2.23-.09-.03-.24-.06-.38-.08l-3.84-.48-1.63-3.51c-17.68-38.08-18.78-82.28-3.02-121.33l.33-1.44.34-.36c1.99-9.23,12.66-9.19,16.83-9.18,1.03,0,2.45,0,2.95-.08,3-.53,5.66-1.88,8.16-4.12,5.71-5.11,11.72-13.2,17.36-23.41,6.49-11.74,8.98-28.08-.1-38.11l-10.68-11.81,13.58.1c-1.46-12.21,2.75-23.29,6.85-34.07,3.33-8.76,6.48-17.04,6.31-25.33-.2-9.08-3.72-18.2-9.67-25.02-1.17-1.33-2.54-2.64-4-4.03-2.47-2.35-5.27-5.01-7.52-8.35-2.79-4.11-3.75-8.47-4.61-12.33-.48-2.14-.92-4.16-1.63-5.84-6.32-15.02-25.9-16.81-47.13-17.42-7.37-.22-14.02-.53-20.85-2.2-4.86-1.19-9.38-2.95-13.76-4.66-2.08-.81-4.05-1.58-6.04-2.28-9.92-3.5-19.52-4.51-29.35-3.08-9.56,1.4-18.75,4.67-28.47,8.12-11.64,4.14-23.67,8.42-36.72,9.39-6.03.44-11.98.23-17.73.03-6.68-.24-12.98-.46-19.19.29-7.77.93-18.05,3.46-22.97,10.28-2.76,3.83-1.7,8.17.43,15.5,1.09,3.77,2.22,7.68,2.54,11.83.42,5.4.15,10.67-.11,15.77-.33,6.51-.65,12.66.47,18.52.99,5.23,3.44,12.27,9.45,16.13l6.03,3.87-4,5.94c-.33.49-.65.99-.96,1.49-.23.37-.47.74-.71,1.11l1.35,3.55-3.63,3.21c-4.98,4.41-10.91,4.45-15.68,4.48-.77,0-1.55,0-2.32.03-3.67.13-8.28.55-11.33,2.78-1.8,1.31-2.69,2.85-2.62,3.65.06.28.68,1.19,1.09,1.8.42.62.84,1.25,1.24,1.91,2.4,3.99,3.29,7.95,3.79,10.96l.33,2.01c1.56,9.65,2.66,14.85,8.66,18.46,2.33,1.4,4.92,2.36,7.72,2.86l9.35,1.66-4.36,8.44c-3.59,6.96-2.01,16.95-.6,25.77l.3,1.9c2,12.82,5.27,25.53,9.7,37.78,8.5,23.49,19.78,38,34.48,44.35l1.38.59,1.01,1.1c8.37,9.14,17.33,20.01,17.76,33.6.84,10.97-4.26,21.27-13.03,26.28l-.47.27-.5.19c-.99.38-1.94.87-2.73,1.42l-2.22,1.54-2.68-.35c-5.87-.77-11.34-.44-16.26.99-5,1.47-6.13,2.73-6.36,3.08l-.65,1.01-1.7,7.29-6.73-2.67c-1.47,2.92-4.24,4.64-15.85,8.39-5.82,1.88-11.92,3.6-13.36,3.97-7.87,1.99-16.38,3.58-26.79,4.99-1.55.21-3.11.42-4.67.63-13.9,1.85-28.27,3.77-41.11,8.92-13.86,5.56-24.89,15.48-36.85,26.92-5.59,5.34-11.15,10.72-16.71,16.09-6.92,6.69-14.08,13.6-21.19,20.36l-5.35,5.09-4.8-5.62c-27.87-32.69-49.63-69.56-64.66-109.59-15.56-41.43-23.45-85.08-23.45-129.75,0-49.83,9.76-98.17,29.01-143.68,18.59-43.96,45.2-83.43,79.1-117.33,33.9-33.9,73.37-60.51,117.32-79.1,45.51-19.25,93.85-29.01,143.68-29.01s98.17,9.76,143.68,29.01c43.95,18.59,83.43,45.21,117.32,79.1,33.9,33.9,60.51,73.37,79.1,117.33,19.25,45.51,29.01,93.85,29.01,143.68,0,89.86-32.67,176.44-91.98,243.8l-5.63,6.39ZM662.83,617.79c1.65,0,3.29.28,4.77.97,21.31,10,43.21,22.22,68.92,38.46,16.59,10.47,37.24,23.51,55.05,38.98,7.41,6.44,14.28,13.39,20.49,20.74,53.62-63.85,83.05-144.56,83.05-228.23,0-195.81-159.3-355.12-355.11-355.12S184.89,292.91,184.89,488.72c0,81.9,28.37,161.35,80.02,224.56,5.28-5.06,10.56-10.15,15.7-15.12,5.58-5.39,11.15-10.77,16.76-16.13,12.55-12,25.15-23.31,41.31-29.8,14.47-5.81,29.73-7.84,44.48-9.81,1.55-.21,3.09-.41,4.63-.62,9.88-1.34,17.9-2.83,25.24-4.69,3.42-.87,14.8-4.27,19.86-6.3.39-.96.96-1.87,1.71-2.69,2.2-2.42,5.66-3.7,9.04-3.96,3.51-4.62,9.34-6.76,13.53-7.99,6.07-1.77,12.62-2.34,19.51-1.71.87-.47,1.78-.9,2.7-1.28,4.4-2.76,6.01-8.44,5.64-12.94l-.02-.4c-.21-8.42-6.72-16.57-13.12-23.64-17.73-8.22-31.05-25.18-40.68-51.8-4.73-13.09-8.22-26.67-10.36-40.38l-.29-1.86c-1.27-8.02-2.79-17.55-.8-26.56-1.62-.67-3.19-1.46-4.69-2.37-11.85-7.13-13.66-18.34-15.26-28.23l-.32-1.94c-.45-2.67-1.04-4.48-1.98-6.05-.26-.44-.55-.86-.83-1.27-1.32-1.94-3.12-4.6-3.45-8.47-.5-5.95,2.61-11.98,8.32-16.14,6.11-4.47,13.42-5.26,19.1-5.46.9-.03,1.8-.04,2.7-.04,1.45,0,2.87-.02,4.04-.16.16-.72.39-1.42.69-2.09-5.11-5.19-8.61-12.3-10.25-20.91-1.42-7.51-1.05-14.8-.69-21.85.25-4.87.48-9.47.13-13.97-.21-2.72-1.1-5.79-2.04-9.03-2.32-8.04-5.21-18.04,1.67-27.58,6.33-8.78,17.32-14.17,32.66-16,7.27-.88,14.43-.62,21.34-.38,5.62.2,10.93.39,16.2,0,11.16-.83,21.79-4.61,33.06-8.62,9.93-3.53,20.21-7.19,31.14-8.79,11.96-1.74,24.09-.48,36.03,3.74,2.2.78,4.37,1.62,6.46,2.44,4.13,1.61,8.04,3.13,12,4.1,5.5,1.34,11.37,1.61,17.93,1.8,18.44.53,49.29,1.42,59.63,25.98,1.19,2.84,1.83,5.7,2.39,8.23.67,3.01,1.25,5.61,2.54,7.52,1.41,2.09,3.43,4.01,5.58,6.05,1.62,1.54,3.29,3.13,4.89,4.95,8.08,9.25,12.87,21.62,13.13,33.93.24,11.02-3.55,20.98-7.22,30.61-4.13,10.85-8.02,21.09-5.29,31.27.68,2.57.13,5.25-1.51,7.37-.11.14-.22.27-.33.4,7.93,15.26,3.67,33.94-3.35,46.64-6.49,11.74-13.31,20.85-20.28,27.07-4.42,3.96-9.48,6.47-15.02,7.46-1.75.32-3.64.31-5.47.3-.98,0-2.41,0-3.47.08-.24.8-.6,1.56-1.06,2.27-13.85,34.45-13.29,73.25,1.45,107.09,1.93.61,3.85,1.22,5.78,1.82l2.79.88c1.25-.3,2.61-.49,3.96-.49ZM445.73,631.62s.02.04.03.07c-.01-.02-.02-.04-.03-.07ZM636.32,503.18s0,.01,0,.02c0,0,0-.01,0-.02Z"/>
  </g>
  <g class="cls-10">
    <path class="cls-5" d="M540,126.6c-199.99,0-362.11,162.13-362.11,362.12,0,89.59,32.53,171.57,86.44,234.79,12.69-12.07,25.22-24.32,37.88-36.43,11.74-11.23,23.8-22.23,39.08-28.36,15.12-6.07,31.44-7.81,47.45-9.99,8.75-1.19,17.43-2.67,26.01-4.84,2.6-.66,25.69-7.22,24.74-9.1-1.44-2.83,4.96-4.49,7.94-3.31.1-.43.23-.86.4-1.3.2-.52.57-.94,1.03-1.28,2.12-3.3,6.81-5,10.29-6.02,6.22-1.81,12.75-2.05,19.13-1.21,1.33-.92,2.8-1.66,4.21-2.2,6.85-3.91,10.15-12.13,9.51-19.82-.29-11.38-8.48-21.12-15.93-29.25-19.91-8.59-31.11-28.54-38.29-48.39-4.58-12.66-7.95-25.77-10.03-39.08-1.59-10.17-3.95-22.37,1-31.96-3.54-.63-6.97-1.87-10.1-3.75-9.69-5.83-10.59-15.13-12.28-25.31-.51-3.04-1.29-5.85-2.89-8.51-1.34-2.23-3.07-4.01-3.3-6.72-.34-4.03,2.38-7.64,5.47-9.89,4.38-3.2,9.94-3.94,15.22-4.12,4.91-.16,9.95.46,13.59-2.76-.54-1.42-.51-3.07.34-4.29.86-1.23,1.6-2.51,2.44-3.74-7.13-4.58-10.97-12.42-12.55-20.72-2.2-11.6.45-23.37-.46-35.05-.84-10.71-8.87-21.99-1.67-31.97,6.22-8.63,17.75-11.94,27.81-13.14,12.38-1.49,24.83.56,37.23-.35,22.48-1.67,42.49-14.21,64.7-17.46,11.21-1.63,22.04-.35,32.69,3.41,6.36,2.25,12.55,5.13,19.12,6.74,6.35,1.55,12.89,1.81,19.39,2,18.44.53,44.87,1.47,53.38,21.7,2.33,5.54,2.14,11.87,5.59,16.96,3.01,4.46,7.47,7.67,10.99,11.69,7.02,8.04,11.17,18.81,11.4,29.47.47,21.95-18.2,41.47-12.27,63.54.48,1.81-2.72,3.04-5.59,3.02,11.38,12.58,8.94,31.88,1.03,46.19-4.86,8.79-11.3,18.52-18.82,25.24-3.34,2.99-7.16,5-11.59,5.79-4.33.78-13.83-1.48-14.32,4.8-.04.52-.28.97-.65,1.36-.02.09-.05.18-.09.28-15.1,37.13-14.16,79.75,2.73,116.12.56.07,1.11.19,1.62.35,3.98,1.26,7.97,2.51,11.96,3.77,1.87-.78,4.44-1.14,5.76-.52,23.59,11.07,46.13,24.13,68.15,38.04,18.69,11.8,37.47,23.82,54.2,38.35,9.22,8.01,17.55,16.81,24.9,26.4,56.17-63.79,90.23-147.5,90.23-239.17,0-199.99-162.12-362.12-362.11-362.12Z"/>
    <path class="cls-5" d="M811.5,738.91l-5.18-6.76c-6.97-9.09-15.02-17.63-23.93-25.37-17.01-14.77-37.16-27.49-53.35-37.72-24.87-15.71-46.05-27.56-66.56-37.23-.27.04-.62.13-.92.25l-2.36.99-7.33-2.31c-2.36-.74-4.72-1.49-7.08-2.23-.09-.03-.24-.06-.38-.08l-3.84-.48-1.63-3.51c-17.68-38.08-18.78-82.28-3.02-121.33l.33-1.44.34-.36c1.99-9.23,12.66-9.19,16.83-9.18,1.03,0,2.45,0,2.95-.08,3-.53,5.66-1.88,8.16-4.12,5.71-5.11,11.72-13.2,17.36-23.41,6.49-11.74,8.98-28.08-.1-38.11l-10.68-11.81,13.58.1c-1.46-12.21,2.75-23.29,6.85-34.07,3.33-8.76,6.48-17.04,6.31-25.33-.2-9.08-3.72-18.2-9.67-25.02-1.17-1.33-2.54-2.64-4-4.03-2.47-2.35-5.27-5.01-7.52-8.35-2.79-4.11-3.75-8.47-4.61-12.33-.48-2.14-.92-4.16-1.63-5.84-6.32-15.02-25.9-16.81-47.13-17.42-7.37-.22-14.02-.53-20.85-2.2-4.86-1.19-9.38-2.95-13.76-4.66-2.08-.81-4.05-1.58-6.04-2.28-9.92-3.5-19.52-4.51-29.35-3.08-9.56,1.4-18.75,4.67-28.47,8.12-11.64,4.14-23.67,8.42-36.72,9.39-6.03.44-11.98.23-17.73.03-6.68-.24-12.98-.46-19.19.29-7.77.93-18.05,3.46-22.97,10.28-2.76,3.83-1.7,8.17.43,15.5,1.09,3.77,2.22,7.68,2.54,11.83.42,5.4.15,10.67-.11,15.77-.33,6.51-.65,12.66.47,18.52.99,5.23,3.44,12.27,9.45,16.13l6.03,3.87-4,5.94c-.33.49-.65.99-.96,1.49-.23.37-.47.74-.71,1.11l1.35,3.55-3.63,3.21c-4.98,4.41-10.91,4.45-15.68,4.48-.77,0-1.55,0-2.32.03-3.67.13-8.28.55-11.33,2.78-1.8,1.31-2.69,2.85-2.62,3.65.06.28.68,1.19,1.09,1.8.42.62.84,1.25,1.24,1.91,2.4,3.99,3.29,7.95,3.79,10.96l.33,2.01c1.56,9.65,2.66,14.85,8.66,18.46,2.33,1.4,4.92,2.36,7.72,2.86l9.35,1.66-4.36,8.44c-3.59,6.96-2.01,16.95-.6,25.77l.3,1.9c2,12.82,5.27,25.53,9.7,37.78,8.5,23.49,19.78,38,34.48,44.35l1.38.59,1.01,1.1c8.37,9.14,17.33,20.01,17.76,33.6.84,10.97-4.26,21.27-13.03,26.28l-.47.27-.5.19c-.99.38-1.94.87-2.73,1.42l-2.22,1.54-2.68-.35c-5.87-.77-11.34-.44-16.26.99-5,1.47-6.13,2.73-6.36,3.08l-.65,1.01-1.7,7.29-6.73-2.67c-1.47,2.92-4.24,4.64-15.85,8.39-5.82,1.88-11.92,3.6-13.36,3.97-7.87,1.99-16.38,3.58-26.79,4.99-1.55.21-3.11.42-4.67.63-13.9,1.85-28.27,3.77-41.11,8.92-13.86,5.56-24.89,15.48-36.85,26.92-5.59,5.34-11.15,10.72-16.71,16.09-6.92,6.69-14.08,13.6-21.19,20.36l-5.35,5.09-4.8-5.62c-27.87-32.69-49.63-69.56-64.66-109.59-15.56-41.43-23.45-85.08-23.45-129.75,0-49.83,9.76-98.17,29.01-143.68,18.59-43.96,45.2-83.43,79.1-117.33,33.9-33.9,73.37-60.51,117.32-79.1,45.51-19.25,93.85-29.01,143.68-29.01s98.17,9.76,143.68,29.01c43.95,18.59,83.43,45.21,117.32,79.1,33.9,33.9,60.51,73.37,79.1,117.33,19.25,45.51,29.01,93.85,29.01,143.68,0,89.86-32.67,176.44-91.98,243.8l-5.63,6.39ZM662.83,617.79c1.65,0,3.29.28,4.77.97,21.31,10,43.21,22.22,68.92,38.46,16.59,10.47,37.24,23.51,55.05,38.98,7.41,6.44,14.28,13.39,20.49,20.74,53.62-63.85,83.05-144.56,83.05-228.23,0-195.81-159.3-355.12-355.11-355.12S184.89,292.91,184.89,488.72c0,81.9,28.37,161.35,80.02,224.56,5.28-5.06,10.56-10.15,15.7-15.12,5.58-5.39,11.15-10.77,16.76-16.13,12.55-12,25.15-23.31,41.31-29.8,14.47-5.81,29.73-7.84,44.48-9.81,1.55-.21,3.09-.41,4.63-.62,9.88-1.34,17.9-2.83,25.24-4.69,3.42-.87,14.8-4.27,19.86-6.3.39-.96.96-1.87,1.71-2.69,2.2-2.42,5.66-3.7,9.04-3.96,3.51-4.62,9.34-6.76,13.53-7.99,6.07-1.77,12.62-2.34,19.51-1.71.87-.47,1.78-.9,2.7-1.28,4.4-2.76,6.01-8.44,5.64-12.94l-.02-.4c-.21-8.42-6.72-16.57-13.12-23.64-17.73-8.22-31.05-25.18-40.68-51.8-4.73-13.09-8.22-26.67-10.36-40.38l-.29-1.86c-1.27-8.02-2.79-17.55-.8-26.56-1.62-.67-3.19-1.46-4.69-2.37-11.85-7.13-13.66-18.34-15.26-28.23l-.32-1.94c-.45-2.67-1.04-4.48-1.98-6.05-.26-.44-.55-.86-.83-1.27-1.32-1.94-3.12-4.6-3.45-8.47-.5-5.95,2.61-11.98,8.32-16.14,6.11-4.47,13.42-5.26,19.1-5.46.9-.03,1.8-.04,2.7-.04,1.45,0,2.87-.02,4.04-.16.16-.72.39-1.42.69-2.09-5.11-5.19-8.61-12.3-10.25-20.91-1.42-7.51-1.05-14.8-.69-21.85.25-4.87.48-9.47.13-13.97-.21-2.72-1.1-5.79-2.04-9.03-2.32-8.04-5.21-18.04,1.67-27.58,6.33-8.78,17.32-14.17,32.66-16,7.27-.88,14.43-.62,21.34-.38,5.62.2,10.93.39,16.2,0,11.16-.83,21.79-4.61,33.06-8.62,9.93-3.53,20.21-7.19,31.14-8.79,11.96-1.74,24.09-.48,36.03,3.74,2.2.78,4.37,1.62,6.46,2.44,4.13,1.61,8.04,3.13,12,4.1,5.5,1.34,11.37,1.61,17.93,1.8,18.44.53,49.29,1.42,59.63,25.98,1.19,2.84,1.83,5.7,2.39,8.23.67,3.01,1.25,5.61,2.54,7.52,1.41,2.09,3.43,4.01,5.58,6.05,1.62,1.54,3.29,3.13,4.89,4.95,8.08,9.25,12.87,21.62,13.13,33.93.24,11.02-3.55,20.98-7.22,30.61-4.13,10.85-8.02,21.09-5.29,31.27.68,2.57.13,5.25-1.51,7.37-.11.14-.22.27-.33.4,7.93,15.26,3.67,33.94-3.35,46.64-6.49,11.74-13.31,20.85-20.28,27.07-4.42,3.96-9.48,6.47-15.02,7.46-1.75.32-3.64.31-5.47.3-.98,0-2.41,0-3.47.08-.24.8-.6,1.56-1.06,2.27-13.85,34.45-13.29,73.25,1.45,107.09,1.93.61,3.85,1.22,5.78,1.82l2.79.88c1.25-.3,2.61-.49,3.96-.49ZM445.73,631.62s.02.04.03.07c-.01-.02-.02-.04-.03-.07ZM636.32,503.18s0,.01,0,.02c0,0,0-.01,0-.02Z"/>
  </g>
  <g>
    <path class="cls-8" d="M412,400.32c-5.22,5.53,1.71,11.21,3.3,16.88,1.51,5.39,1.18,11.17,3,16.49,4.33,12.66,19.28,16.18,29.39,8.2,10.41-8.2,13.36-22.15,11.72-34.73-.74-5.69-2.18-11.83-5.91-16.35-1.36-1.66-3.02-2.81-4.83-3.74-.04.06-.07.12-.1.17-.58.78-1.13,1.58-1.71,2.35-.44.75-1.04,1.35-1.79,1.79-.4.17-.8.34-1.19.5-.44.14-.89.19-1.34.18-3,2.72-6.98,4.12-11.01,4.83-5.93,1.06-15.04-1.34-19.52,3.41ZM436.21,435.82c-1.61,2.85-5.56,3.72-8.58,3.19-2.61-.46-5.38-2.23-5.25-5.2.13-3.09,2.75-5.23,5.62-5.83.94-.2,3.04-.43,3.89.47.99-.11,2.04,0,2.76.54,2.09,1.58,2.89,4.49,1.56,6.83ZM432.33,422.37c-1.88,3.54-7.78,8.07-11.24,3.48-2.17-2.88-.36-7.26-.54-10.48-.19-3.5-3.56-6.43-3.01-9.82.7-4.35,6.23-5.26,9.93-3.87,1.18-.05,2.3.21,2.69.91,3.39,5.98,5.62,13.28,2.17,19.78Z"/>
    <path class="cls-8" d="M435.57,453.14c-2.43,0-4.86-.34-7.22-1.04-7.88-2.32-13.96-8.21-16.68-16.15-1.22-3.57-1.65-7.15-2.02-10.31-.28-2.36-.55-4.6-1.1-6.56-.26-.91-1.04-2.3-1.81-3.64-2.28-4-7.02-12.33.16-19.93h0c5.12-5.43,12.65-5.36,18.15-5.31,2.03.02,3.95.04,5.23-.19,3.37-.6,5.9-1.65,7.54-3.13l2.07-1.87,1.61.04c.17-.24.34-.47.51-.71.25-.34.49-.68.74-1.02l3.41-5.42,5.71,2.94c2.91,1.5,5.21,3.3,7.03,5.52,5.17,6.26,6.72,14.35,7.44,19.89,2.21,16.95-3.15,32.32-14.33,41.13-4.77,3.77-10.6,5.75-16.45,5.75ZM439.38,423.81c3.7,3.12,5.23,8.01,4.11,12.47,7.18-5.76,10.53-16.29,8.97-28.22-.42-3.24-1.2-7.67-3.18-11.07-.22.15-.44.29-.67.42l-.41.24-2.19.9c-.2.06-.4.12-.6.18-2.14,1.57-4.63,2.82-7.45,3.76,4.31,9.31,3.42,16.46,1.4,21.32ZM424.07,406.04s.02.04.04.06c-.01-.02-.02-.04-.04-.06ZM442.96,383.05s0,0,0,0c0,0,0,0,0,0Z"/>
  </g>
  <g>
    <path class="cls-1" d="M420.55,415.37c-.19-3.5-3.56-6.43-3.01-9.82.7-4.35,6.23-5.26,9.93-3.87,1.18-.05,2.3.21,2.69.91,3.39,5.98,5.62,13.28,2.17,19.78-1.88,3.54-7.78,8.07-11.24,3.48-2.17-2.88-.36-7.26-.54-10.48Z"/>
    <path class="cls-4" d="M424.72,428.29c-1.58,0-2.97-.73-4.03-2.14-1.58-2.1-1.21-4.92-.89-7.41.16-1.2.31-2.34.25-3.35h0c-.08-1.49-.81-2.93-1.51-4.32-.89-1.77-1.82-3.6-1.49-5.6.26-1.64,1.19-2.97,2.68-3.83,2.1-1.22,5.24-1.4,7.83-.46,1.51-.04,2.61.38,3.05,1.17,4.43,7.81,5.16,14.63,2.17,20.26-1.38,2.6-4.61,5.43-7.63,5.67-.14.01-.28.02-.42.02ZM421.05,415.34c.06,1.1-.09,2.28-.26,3.53-.31,2.41-.64,4.9.7,6.68.95,1.26,2.15,1.84,3.57,1.73,2.64-.21,5.6-2.83,6.83-5.14,2.82-5.31,2.09-11.8-2.16-19.3-.25-.45-1.13-.71-2.23-.66h-.1s-.1-.03-.1-.03c-2.34-.88-5.19-.74-7.07.35-1.24.72-1.97,1.77-2.19,3.13-.27,1.69.54,3.29,1.4,4.99.75,1.49,1.53,3.02,1.62,4.72h0Z"/>
  </g>
  <g>
    <path class="cls-1" d="M422.38,433.81c.13-3.09,2.75-5.23,5.62-5.83.94-.2,3.04-.43,3.89.47.99-.11,2.04,0,2.76.54,2.09,1.58,2.89,4.49,1.56,6.83-1.61,2.85-5.56,3.72-8.58,3.19-2.61-.46-5.38-2.23-5.25-5.2Z"/>
    <path class="cls-4" d="M429.33,439.65c-.61,0-1.21-.05-1.79-.15-2.92-.52-5.8-2.48-5.66-5.71h0c.15-3.51,3.13-5.69,6.02-6.3.5-.11,2.93-.56,4.17.44,1.18-.09,2.19.14,2.89.66,2.37,1.79,3.1,5.01,1.69,7.48-1.4,2.47-4.47,3.59-7.31,3.59ZM429.71,428.29c-.53,0-1.1.07-1.61.17-2.51.52-5.1,2.39-5.22,5.36h0c-.11,2.63,2.35,4.25,4.84,4.69,2.89.51,6.59-.34,8.06-2.94,1.16-2.04.54-4.7-1.43-6.18-.53-.4-1.39-.56-2.4-.44l-.25.03-.17-.18c-.34-.36-1.04-.5-1.82-.5Z"/>
  </g>
  <g>
    <path class="cls-8" d="M811.88,727.89c-1.95,2.22-3.93,4.42-5.95,6.6-66.14,71.55-160.81,116.34-265.93,116.34s-204.7-47.16-271.03-121.98c-1.58-1.76-3.12-3.54-4.64-5.34,12.69-12.07,25.22-24.32,37.88-36.43,11.74-11.23,23.8-22.23,39.08-28.36,15.12-6.07,31.44-7.81,47.45-9.99,8.75-1.19,17.43-2.67,26.01-4.84,2.6-.66,25.69-7.22,24.74-9.1-1.44-2.83,4.96-4.49,7.94-3.31.1-.43.23-.86.4-1.3.2-.52.57-.94,1.03-1.28,2.12-3.3,6.81-5,10.29-6.02,6.22-1.81,12.75-2.05,19.13-1.21,1.33-.92,2.8-1.66,4.21-2.2,6.85-3.91,10.15-12.13,9.51-19.82-.29-11.38-8.48-21.12-15.93-29.25-19.91-8.59-31.11-28.54-38.29-48.39-4.58-12.66-7.95-25.77-10.03-39.08-1.59-10.17-3.95-22.37,1-31.96-3.54-.63-6.97-1.87-10.1-3.75-9.69-5.83-10.59-15.13-12.28-25.31-.51-3.04-1.29-5.85-2.89-8.51-1.34-2.23-3.07-4.01-3.3-6.72-.34-4.03,2.38-7.64,5.47-9.89,4.38-3.2,9.94-3.94,15.22-4.12,5.67-.19,11.52.68,15.17-4.54,1.77-2.54,11.19-2.12,8.63,1.56-3.04,4.36-8.08,6.32-13.15,7.22-5.93,1.06-15.04-1.34-19.52,3.41-5.22,5.53,1.71,11.21,3.3,16.88,1.51,5.39,1.18,11.17,3,16.49,4.33,12.66,19.28,16.18,29.39,8.2,10.41-8.2,13.36-22.15,11.72-34.73-.74-5.69-2.18-11.83-5.91-16.35-3.6-4.38-9.29-5.25-14.12-7.69-8.53-4.3-12.96-12.86-14.69-21.96-2.2-11.6.45-23.37-.46-35.05-.84-10.71-8.87-21.99-1.67-31.97,6.22-8.63,17.75-11.94,27.81-13.14,12.38-1.49,24.83.56,37.23-.35,22.48-1.67,42.49-14.21,64.7-17.46,11.21-1.63,22.04-.35,32.69,3.41,6.36,2.25,12.55,5.13,19.12,6.74,6.35,1.55,12.89,1.81,19.39,2,18.44.53,44.87,1.47,53.38,21.7,2.33,5.54,2.14,11.87,5.59,16.96,3.01,4.46,7.47,7.67,10.99,11.69,7.02,8.04,11.17,18.81,11.4,29.47.47,21.95-18.2,41.47-12.27,63.54.48,1.81-2.72,3.04-5.59,3.02,11.38,12.58,8.94,31.88,1.03,46.19-4.86,8.79-11.3,18.52-18.82,25.24-3.34,2.99-7.16,5-11.59,5.79-4.33.78-13.83-1.48-14.32,4.8-.04.52-.28.97-.65,1.36-.02.09-.05.18-.09.28-15.1,37.13-14.16,79.75,2.73,116.12.56.07,1.11.19,1.62.35,3.98,1.26,7.97,2.51,11.96,3.77,1.87-.78,4.44-1.14,5.76-.52,23.59,11.07,46.13,24.13,68.15,38.04,18.69,11.8,37.47,23.82,54.2,38.35,9.22,8.01,17.55,16.81,24.9,26.4Z"/>
    <path class="cls-6" d="M540,851.33c-52.8,0-103.7-11.1-151.3-32.98-45.99-21.14-86.4-51.14-120.11-89.17-1.48-1.65-3-3.4-4.65-5.35l-.3-.36.34-.33c7.08-6.73,14.23-13.64,21.14-20.32,5.57-5.38,11.14-10.76,16.74-16.11,12.07-11.55,24.15-22.41,39.24-28.46,13.72-5.51,28.56-7.48,42.92-9.4,1.55-.21,3.1-.41,4.65-.62,10.12-1.38,18.37-2.91,25.95-4.83,4.91-1.24,23.2-6.72,24.37-8.49-.39-.84-.24-1.7.42-2.42,1.43-1.57,5.18-2.34,7.67-1.65.08-.28.18-.56.28-.84.21-.55.59-1.03,1.12-1.45,2.24-3.41,7.07-5.14,10.52-6.15,5.87-1.71,12.31-2.13,19.15-1.25,1.24-.84,2.67-1.58,4.16-2.15,6.14-3.51,9.86-11.28,9.19-19.31-.28-11.08-8.25-20.71-15.73-28.88-16.66-7.23-29.24-23.14-38.46-48.64-4.59-12.7-7.98-25.88-10.05-39.17l-.3-1.88c-1.55-9.74-3.3-20.75,1.05-29.79-3.45-.69-6.68-1.93-9.62-3.69-9.26-5.57-10.69-14.37-12.19-23.69l-.32-1.96c-.59-3.49-1.46-6.06-2.83-8.33-.33-.54-.67-1.05-1.02-1.56-1.07-1.57-2.17-3.2-2.35-5.37-.31-3.66,1.81-7.52,5.67-10.34,4.69-3.43,10.75-4.05,15.5-4.22.84-.03,1.69-.03,2.54-.04,4.77-.03,9.28-.05,12.24-4.29,1.46-2.1,6.95-2.38,9.06-.92,1.08.75,1.22,1.86.39,3.05-2.7,3.87-7.1,6.3-13.47,7.43-1.98.35-4.23.33-6.62.31-4.8-.05-9.75-.09-12.62,2.95-3.37,3.57-1.29,7.21.91,11.08.99,1.73,2.01,3.53,2.51,5.33.71,2.52,1.02,5.15,1.32,7.7.35,2.92.71,5.95,1.67,8.77,1.92,5.61,6.18,9.76,11.7,11.38,5.74,1.69,12.06.42,16.91-3.41,9.09-7.16,13.4-19.97,11.53-34.27-.6-4.62-1.86-11.32-5.8-16.1-2.42-2.94-5.77-4.23-9.33-5.6-1.54-.59-3.13-1.21-4.63-1.96-9.79-4.94-13.54-14.86-14.96-22.31-1.28-6.75-.93-13.64-.59-20.3.25-4.86.5-9.89.12-14.8-.27-3.39-1.29-6.92-2.27-10.33-2.13-7.37-4.33-15,.7-21.97,5.22-7.25,14.7-11.74,28.16-13.34,6.78-.82,13.68-.57,20.35-.34,5.55.2,11.29.4,16.91-.01,12.04-.89,23.59-5,34.76-8.98,9.64-3.43,19.6-6.97,29.9-8.48,11.06-1.61,21.83-.48,32.93,3.43,2.1.74,4.21,1.57,6.26,2.36,4.15,1.62,8.44,3.29,12.81,4.36,6.12,1.49,12.35,1.78,19.29,1.99,17.96.52,45.12,1.3,53.83,22.01.97,2.3,1.51,4.75,2.04,7.12.78,3.51,1.51,6.82,3.5,9.75,1.8,2.66,4.18,4.93,6.48,7.11,1.51,1.44,3.08,2.93,4.48,4.53,7.09,8.12,11.29,18.98,11.52,29.79.21,9.75-3.35,19.11-6.79,28.15-4.51,11.86-8.77,23.06-5.49,35.27.16.59.03,1.18-.37,1.7-.88,1.13-2.85,1.74-4.64,1.9,11.5,13.62,7.48,33.18.41,45.98-6.14,11.1-12.5,19.63-18.92,25.37-3.52,3.15-7.5,5.14-11.83,5.91-1.18.21-2.7.21-4.3.2-4.33-.02-9.28-.03-9.61,4.14-.04.56-.28,1.09-.7,1.57-.02.07-.05.14-.08.22-15.1,37.14-14.15,79.21,2.61,115.48.49.08.97.19,1.43.33,2.35.75,4.71,1.49,7.07,2.23l4.72,1.49c1.9-.75,4.51-1.14,5.99-.44,21.06,9.88,42.73,21.98,68.21,38.07,16.41,10.36,36.82,23.25,54.26,38.4,9.29,8.07,17.69,16.98,24.97,26.47l.25.33-.27.31c-2,2.28-4,4.5-5.96,6.61-33.61,36.36-73.48,65-118.51,85.12-46.6,20.82-96.32,31.38-147.79,31.38ZM265.02,723.55c1.52,1.8,2.94,3.43,4.33,4.97,68.63,77.42,167.28,121.81,270.66,121.81s197.31-42.35,265.56-116.18c1.86-2.01,3.77-4.12,5.67-6.28-7.18-9.32-15.45-18.06-24.58-26-17.38-15.1-37.76-27.97-54.14-38.31-25.44-16.07-47.08-28.15-68.1-38.01-1.08-.5-3.43-.27-5.35.53l-.17.07-5.07-1.6c-2.36-.74-4.71-1.48-7.07-2.23-.49-.15-1-.26-1.53-.33l-.27-.03-.12-.25c-16.98-36.57-17.98-79.04-2.74-116.52.03-.07.05-.14.07-.2l.03-.13.09-.1c.32-.33.49-.68.51-1.05.4-5.1,6.06-5.08,10.6-5.07,1.56,0,3.04,0,4.12-.19,4.21-.75,7.92-2.61,11.34-5.67,6.34-5.66,12.64-14.11,18.72-25.11,7.05-12.76,11.03-32.36-.96-45.61l-.76-.84h1.14s.05,0,.07,0c2.07,0,4.14-.67,4.84-1.56.21-.27.27-.54.2-.83-3.36-12.52,1.15-24.4,5.52-35.88,3.41-8.96,6.93-18.22,6.73-27.78-.23-10.58-4.34-21.21-11.28-29.15-1.37-1.56-2.92-3.04-4.41-4.46-2.34-2.23-4.76-4.53-6.62-7.28-2.1-3.09-2.89-6.65-3.65-10.1-.52-2.33-1.05-4.73-1.98-6.95-8.46-20.12-35.22-20.89-52.93-21.39-6.99-.2-13.28-.5-19.49-2.01-4.44-1.09-8.76-2.77-12.94-4.4-2.04-.79-4.14-1.61-6.23-2.35-10.94-3.86-21.56-4.97-32.45-3.39-10.2,1.49-20.12,5.02-29.71,8.43-11.23,4-22.85,8.13-35.02,9.03-5.67.42-11.44.21-17.02.02-6.63-.23-13.49-.48-20.19.33-13.17,1.57-22.41,5.92-27.46,12.94-4.75,6.58-2.71,13.64-.55,21.11,1,3.46,2.04,7.04,2.31,10.53.39,4.98.13,10.04-.12,14.93-.34,6.61-.68,13.44.57,20.06,1.38,7.23,4.99,16.85,14.42,21.61,1.46.73,3.02,1.34,4.54,1.92,3.52,1.35,7.16,2.75,9.74,5.9,4.11,4.98,5.4,11.86,6.02,16.6,1.91,14.66-2.54,27.81-11.91,35.19-5.1,4.03-11.76,5.37-17.81,3.59-5.83-1.72-10.34-6.1-12.36-12.02-1-2.92-1.36-5.99-1.72-8.97-.3-2.51-.61-5.1-1.29-7.55-.47-1.68-1.46-3.42-2.42-5.1-2.28-4.01-4.64-8.15-.77-12.26,3.17-3.36,8.35-3.31,13.36-3.27,2.34.02,4.55.04,6.44-.29,6.1-1.08,10.29-3.38,12.83-7.01.65-.93.26-1.37-.14-1.66-1.81-1.26-6.61-.84-7.67.67-3.26,4.66-8.24,4.69-13.05,4.72-.84,0-1.67,0-2.51.04-4.61.16-10.47.76-14.94,4.02-3.58,2.6-5.55,6.14-5.27,9.44.16,1.91,1.14,3.36,2.18,4.9.35.52.71,1.05,1.05,1.61,1.44,2.39,2.35,5.07,2.95,8.68l.32,1.97c1.53,9.48,2.86,17.66,11.72,23,3.01,1.81,6.35,3.05,9.93,3.69l.67.12-.31.6c-4.57,8.86-2.81,19.97-1.25,29.77l.3,1.88c2.07,13.23,5.43,26.35,10.01,38.99,9.14,25.27,21.58,41.01,38.02,48.1l.17.12c7.62,8.31,15.77,18.14,16.06,29.58.7,8.38-3.22,16.53-9.76,20.27-1.54.6-2.96,1.34-4.17,2.18l-.16.11-.19-.02c-6.77-.89-13.14-.49-18.93,1.19-3.32.97-7.97,2.63-10.01,5.81l-.12.13c-.42.31-.71.67-.86,1.06-.16.41-.28.81-.38,1.23l-.13.57-.54-.21c-2.01-.8-5.86-.14-7.1,1.22-.4.44-.47.89-.21,1.4.11.22.11.46,0,.7-1.2,2.64-24.83,9.05-25.07,9.11-7.62,1.93-15.9,3.47-26.07,4.85-1.55.21-3.1.42-4.65.62-14.29,1.9-29.08,3.87-42.68,9.33-14.92,5.99-26.92,16.78-38.92,28.26-5.59,5.35-11.16,10.73-16.73,16.11-6.8,6.57-13.84,13.36-20.81,20Z"/>
  </g>
  <g>
    <g>
      <path class="cls-7" d="M461.64,476.35c2.51.87,5.19,1.11,7.89.86,1.41-.13,4.8-.94,4.59-2.93-.21-2.01-3.78-2.04-5.1-1.91-.13.01-.21.02-.27.04-.14-.03-.46-.1-.64-.15.03,0-.17-.08-.38-.16-.6-.85-1.27-1.81-1.94-2.86.38.27.76.54,1.14.82.54.39,1.37.52,2.01.54.79.03,1.75-.1,2.47-.42.49-.22,1.21-.56,1.38-1.12.15-.5-.02-.9-.46-1.21l-2.26-1.62c-.54-.39-1.37-.52-2.01-.54-.79-.03-1.75.1-2.47.42-.39.18-.91.43-1.2.8-1.74-3.16-2.97-6.62-1.95-9.32.87-2.29,3.11-4.04,4.61-5.97,1.53-1.97,2.95-4.03,4.29-6.14,5.78-9.1,9.64-19.24,13.44-29.27,1.28-3.37-8.32-3.38-9.49-.31-4.3,11.33-8.65,22.95-15.86,32.81-2.35,3.21-7.2,6.69-7.19,11.06,0,4.47,2.84,9.54,5.49,13.46-.2.55-.08,1.13.71,1.62.23.14.47.27.7.4.49.63,1.42.99,2.5,1.12ZM468.73,472.4s0,0,0,0c-.05-.01-.11-.03-.18-.04.09.02.15.03.19.04Z"/>
      <path class="cls-4" d="M467.54,477.81c-2.12,0-4.14-.32-6.02-.96-1.23-.16-2.17-.58-2.71-1.22l-.12-.07c-.18-.1-.35-.19-.52-.3-1.03-.65-1.1-1.43-.98-1.96-3.65-5.46-5.43-9.89-5.44-13.54,0-3.33,2.6-6.13,4.89-8.6.9-.96,1.74-1.88,2.39-2.76,7.05-9.62,11.38-21.04,15.57-32.09l.23-.6c.46-1.2,1.96-2.09,4.13-2.44,2.15-.35,4.95-.12,6.03,1.19.44.54.53,1.2.27,1.91-3.77,9.92-7.67,20.19-13.49,29.36-1.47,2.32-2.88,4.34-4.32,6.18-.5.64-1.09,1.27-1.65,1.88-1.15,1.23-2.33,2.5-2.88,3.96-.76,2.02-.22,4.82,1.63,8.35.26-.18.56-.33.85-.46.73-.33,1.73-.51,2.7-.47.67.02,1.61.15,2.28.63l2.26,1.62c.62.45.85,1.07.64,1.76-.24.79-1.13,1.19-1.66,1.43-.73.33-1.74.5-2.7.47-.42-.01-.94-.07-1.44-.23.18.26.37.53.57.81.08.03.16.06.23.1l.49.11c.06,0,.13-.02.21-.02,1.99-.18,5.41.1,5.65,2.36.06.58-.11,1.12-.5,1.6-1.02,1.24-3.33,1.77-4.54,1.88-.69.06-1.37.1-2.03.1ZM480.78,414.13c-.54,0-1.11.04-1.67.13-1.75.28-3.04.98-3.35,1.81l-.23.6c-4.22,11.11-8.57,22.59-15.7,32.32-.68.93-1.55,1.86-2.47,2.85-2.28,2.45-4.63,4.98-4.62,7.91,0,3.49,1.77,7.8,5.4,13.18l.14.21-.09.24c-.1.27-.13.62.5,1.02.15.1.31.18.47.27l.36.25c.37.48,1.14.81,2.17.93l.1.02c2.35.81,4.93,1.09,7.68.84,1.14-.11,3.11-.6,3.86-1.52.22-.27.31-.55.28-.87-.16-1.54-3.35-1.58-4.56-1.47-.07,0-.13.01-.17.02l-.16.03h0s-.02,0-.02,0l-.27-.06h0s-3.8-.87-3.8-.87l2.29-.15c-.59-.84-1.09-1.59-1.56-2.32l-1.4-2.19.14.1-.15-.28c-2.26-4.11-2.91-7.29-1.98-9.74.62-1.64,1.87-2.99,3.09-4.29.58-.62,1.12-1.2,1.6-1.81,1.42-1.82,2.81-3.81,4.26-6.1,5.77-9.09,9.65-19.3,13.4-29.18.14-.37.11-.66-.11-.92-.5-.61-1.86-.97-3.42-.97ZM464.44,467.66l2.78,1.99c.36.26.99.42,1.74.45.8.03,1.67-.12,2.25-.38.35-.16,1-.45,1.11-.81.07-.23.05-.43-.27-.66l-2.26-1.62c-.36-.26-.99-.42-1.74-.45-.81-.03-1.67.12-2.25.38-.27.12-.78.35-1.01.65l-.35.45Z"/>
    </g>
    <g>
      <path class="cls-7" d="M478.33,464.19c-.48.22-1.22.56-1.37,1.12-.29,1.08-.06,2.19.73,3.01,1.3,1.34,3.18,1.69,4.99,1.49.74-.08,1.6-.29,2.24-.71.35-.23.93-.73.83-1.24-.17-.87-1.15-1.19-2.09-1.28-.06-.05-.12-.11-.15-.16-.06-.09-.1-.19-.15-.29-.06-.24-.09-.47-.07-.72,0-.03,0-.06,0-.09.83-.34,1.43-.86,1.47-1.57.33.04.67.09,1,.13.81.11,1.62.21,2.42.32,1.78.23,3.55.46,5.33.7,1.26.16,3.53.15,4.36-1.04.79-1.13-.21-1.94-1.39-2.09-3.86-.5-7.85-1.35-11.74-1.44-2.59-.06-6.19.86-6.42,3.87Z"/>
      <path class="cls-4" d="M481.77,470.36c-1.82,0-3.37-.59-4.44-1.69-.89-.92-1.2-2.19-.85-3.49.18-.68.86-1.07,1.39-1.32.43-2.89,3.72-4.1,6.9-4.04,2.74.07,5.55.5,8.26.93,1.18.18,2.36.37,3.53.52.95.12,1.71.59,1.99,1.23.16.36.25.94-.25,1.64-1.15,1.64-4.23,1.33-4.84,1.25l-8.3-1.08c-.2.54-.67,1-1.37,1.34,0,.09.02.2.05.31.03.07.05.11.07.14,1.69.22,2.21,1.01,2.33,1.66.17.88-.75,1.57-1.04,1.76-.83.55-1.9.73-2.46.79-.33.04-.65.05-.96.05ZM484.51,460.82c-2.12,0-5.48.71-5.68,3.41l-.02.29-.27.12c-.33.15-1,.45-1.09.79-.25.95-.03,1.88.61,2.54,1.4,1.45,3.47,1.46,4.58,1.34.8-.09,1.53-.32,2.01-.63.4-.26.64-.59.61-.73-.12-.63-1.08-.82-1.64-.88l-.17-.02-.12-.12c-.1-.1-.17-.17-.22-.24-.06-.09-.11-.19-.15-.28l-.07-.16c-.08-.3-.11-.59-.08-.88l.05-.41.27-.11c.42-.17,1.13-.55,1.16-1.13l.03-.54,9.29,1.21c1.51.2,3.29.01,3.89-.83.18-.26.23-.49.15-.67-.13-.31-.62-.56-1.2-.64-1.18-.15-2.36-.34-3.56-.52-2.68-.42-5.45-.85-8.13-.91-.07,0-.15,0-.22,0Z"/>
    </g>
    <g>
      <path class="cls-7" d="M517.56,499.87c-1.28.03-2.47.55-3.74.71-1.44.18-2.92.11-4.34-.2-2.82-.62-5.32-2.14-7.69-3.74-2.18-1.46-4.56-2.87-6.86-4.18-3.3-1.89-7.33-3.72-11.21-3.72-2.36-.14-4.96.33-6.87,1.81-1.37,1.07-2.18.8-3.85.73-1.41-.06-2.84-.03-4.24.2-2.8.45-5.4,1.75-6.9,4.24-.57.95-1.18,1.98-1.25,3.11-.09,1.56.05,3.53,1.13,4.75.75.86,1.9,1.25,3.02,1.47,1.63.31,3.26.68,4.9.89,3.69.46,7.92.64,11.45-.73,1.74-.67,3.32-1.58,5.14-2.07,1.98-.53,3.97-.9,6.02-.98,1.8-.07,3.6.05,5.39.31,3.02.44,6.01,1.17,9.05,1.44,2.58.23,5.18.1,7.66-.48,1.97-.46,3.88-1.22,5.65-2.31-.35-.87-1.63-1.27-2.46-1.25ZM490.21,498.75c-1.7.17-3.38.46-5.04.87-2.51.62-4.78,1.65-7.11,2.37-2.24.69-4.53,1.08-7.13.55-.75-.15-1.5-.37-2.12-.82-1.88-1.35-1.26-4.47.05-6.01.2-.24.42-.47.7-.6,1-.46,2.92.55,4.03.65,1.67.15,3.37-.09,4.94-.68.77-.29,1.45-.71,2.08-1.25.41-.35,1.04-1.37,1.56-1.46.15-.02.29.02.44.06,3.24.98,6.47,2.21,9.28,4.12,1.1.75,2.05,1.4,3.02,2-.86-.53-3.7.09-4.7.19Z"/>
      <path class="cls-4" d="M474.48,506.76c-1.79,0-3.48-.17-4.88-.34-1.25-.16-2.51-.41-3.73-.65l-1.21-.24c-1.52-.29-2.6-.82-3.3-1.63-1.21-1.37-1.35-3.54-1.25-5.11.08-1.29.77-2.43,1.32-3.34,1.84-3.02,4.96-4.1,7.25-4.47,1.28-.21,2.71-.27,4.34-.2.27.01.51.03.74.04,1.18.08,1.77.12,2.78-.67,2.43-1.9,5.55-2.02,7.2-1.92h0c3.24,0,6.99,1.24,11.43,3.79,2.15,1.23,4.65,2.7,6.89,4.2,2.16,1.45,4.69,3.05,7.52,3.66,1.37.3,2.77.36,4.17.19.52-.06,1.02-.19,1.55-.32.71-.18,1.45-.37,2.24-.39h0c.87-.02,2.47.38,2.94,1.57l.15.39-.36.22c-1.75,1.08-3.7,1.88-5.79,2.37-2.43.57-5.06.73-7.82.49-1.89-.17-3.77-.51-5.59-.85-1.14-.21-2.32-.43-3.49-.6-1.84-.27-3.62-.37-5.29-.31-1.82.07-3.7.38-5.91.96-1.11.29-2.12.75-3.19,1.23-.62.28-1.25.57-1.9.82-2.17.83-4.57,1.1-6.81,1.1ZM471.79,491.75c-1.08,0-2.06.07-2.96.22-2.09.34-4.92,1.3-6.56,4-.5.82-1.11,1.83-1.18,2.88-.08,1.39.02,3.27,1,4.39.55.63,1.45,1.06,2.74,1.31l1.21.24c1.2.24,2.44.49,3.66.64,3.05.38,7.53.72,11.21-.7.63-.24,1.24-.52,1.85-.8,1.06-.48,2.15-.97,3.34-1.29,2.29-.61,4.23-.92,6.13-.99,1.74-.06,3.58.04,5.48.32,1.18.17,2.37.39,3.53.6,1.8.33,3.66.67,5.5.84,2.65.23,5.18.07,7.5-.47,1.81-.43,3.51-1.09,5.05-1.98-.4-.38-1.14-.6-1.74-.59h0c-.68.02-1.33.18-2.02.36-.54.14-1.09.28-1.67.35-1.51.19-3.03.12-4.51-.21-2.99-.65-5.63-2.31-7.86-3.81-2.21-1.49-4.69-2.94-6.83-4.16-4.29-2.46-7.87-3.65-10.97-3.65-1.54-.09-4.39.01-6.56,1.71-1.31,1.02-2.21.96-3.46.88-.22-.02-.46-.03-.72-.04-.41-.02-.8-.03-1.19-.03ZM473.36,503.28c-.8,0-1.65-.07-2.53-.26-.69-.14-1.57-.37-2.31-.9-.77-.55-1.24-1.39-1.36-2.43-.17-1.45.36-3.18,1.33-4.31.24-.28.5-.56.87-.73.81-.37,1.9-.04,2.95.28.51.15.98.3,1.33.33,1.58.14,3.22-.08,4.72-.65.68-.26,1.31-.64,1.93-1.16.12-.1.26-.28.42-.46.42-.5.86-1.02,1.39-1.11.26-.04.5.03.66.08,2.74.83,6.29,2.06,9.42,4.19l.2.14c1.02.69,1.9,1.29,2.8,1.85,0,0,0,0,0,0l-.52.85s0,0,0,0c-.52-.32-2.52-.01-3.49.14-.36.06-.68.1-.9.13-1.68.17-3.35.46-4.97.86-1.47.36-2.88.88-4.25,1.38-.93.34-1.88.69-2.84.98-1.32.41-2.97.82-4.85.82ZM470.19,495.49c-.16,0-.31.02-.42.07-.18.08-.35.27-.53.47-.78.91-1.23,2.37-1.09,3.54.09.76.41,1.35.95,1.74.58.42,1.34.61,1.93.74,2.71.56,5,.04,6.89-.54.93-.28,1.83-.61,2.79-.96,1.39-.51,2.83-1.03,4.35-1.41,1.66-.41,3.37-.71,5.1-.89l.05.5-.05-.5c.21-.02.51-.07.85-.12.69-.11,1.35-.2,1.94-.25-.37-.25-.74-.5-1.14-.77l-.2-.14c-3.01-2.06-6.47-3.25-9.14-4.06-.05-.02-.17-.05-.21-.05-.17.04-.59.53-.78.77-.2.23-.38.45-.53.58-.7.6-1.43,1.04-2.22,1.34-1.64.62-3.43.86-5.16.71-.45-.04-.98-.2-1.54-.37-.6-.18-1.31-.4-1.83-.4Z"/>
    </g>
    <g>
      <path class="cls-7" d="M505.04,513.39c-7.49,2.14-15.03,4.37-22.79,5.26-3.34.38-9.28,1.43-11.93-1.2-2.4-2.38-1.96-5.86-.23-8.43,1.73-2.56-7.61-3.08-9.49-.31-2.1,3.1-2.24,7.25-.08,10.41,2.61,3.81,7.69,4.63,11.96,4.83,12.1.58,24.12-2.86,35.62-6.15,6.29-1.8,1.41-5.69-3.07-4.4Z"/>
      <path class="cls-4" d="M475.22,524.51c-.92,0-1.83-.02-2.75-.06-3.94-.19-9.51-.92-12.34-5.05-2.21-3.23-2.18-7.64.07-10.97,1.13-1.66,4.35-2.23,6.87-2.05,1.12.08,3.08.38,3.61,1.48.15.31.25.82-.17,1.44-1.54,2.27-2.08,5.57.16,7.79,2.22,2.21,7.2,1.59,10.49,1.18.36-.04.71-.09,1.03-.12,7.35-.84,14.61-2.92,21.64-4.93l1.07-.31c2.46-.71,4.87.02,5.99,1.1.59.57.83,1.25.66,1.91-.25,1.01-1.36,1.81-3.31,2.36-10.72,3.07-21.78,6.24-33.03,6.24ZM466.17,507.35c-2.08,0-4.39.53-5.14,1.64-2.03,3-2.06,6.96-.08,9.85,2.58,3.77,7.84,4.44,11.57,4.62,12.03.57,23.94-2.84,35.46-6.14,2.14-.61,2.54-1.35,2.61-1.64.09-.38-.16-.72-.39-.95-.9-.87-3.02-1.42-5.02-.85l-1.07.31c-7.06,2.03-14.37,4.12-21.8,4.96-.32.04-.66.08-1.02.12-3.48.43-8.74,1.08-11.31-1.47-2.66-2.63-2.06-6.45-.29-9.06.18-.27.12-.39.1-.44-.17-.36-1.12-.8-2.79-.92-.27-.02-.55-.03-.83-.03Z"/>
    </g>
    <g>
      <path class="cls-7" d="M639.63,468.64c4.64,1.31,10.34.63,13.36-3.58,1.42-1.98,1.69-4.44,1.58-6.81-.05-1.09-1.27-6.98-1.13-9.16,2.75-.59,5.08-2.12,3.05-3.75-3.15-2.54-9.78-1.67-11.71,2.13-1.19,2.35-.78,5.3-.45,7.79.18,1.33.49,2.66.54,4.01.09,2.39-1.66,4.39,1.26,5.22-2.16-.61-4.93-.63-6.86.72-1.46,1.03-1.7,2.85.36,3.43Z"/>
      <path class="cls-4" d="M643.94,469.74c-1.58,0-3.11-.24-4.45-.62h0c-1.41-.4-1.76-1.26-1.84-1.74-.15-.91.35-1.89,1.33-2.58,1.48-1.04,3.4-1.31,5.13-1.17-.33-.73-.15-1.61.02-2.42.13-.62.26-1.26.23-1.92-.03-.86-.18-1.74-.32-2.59-.08-.46-.15-.92-.21-1.38l-.02-.14c-.32-2.45-.72-5.49.52-7.94.9-1.77,2.82-3.09,5.27-3.61,2.72-.58,5.47-.07,7.2,1.32.96.77,1.02,1.52.91,2.01-.35,1.49-2.65,2.24-3.79,2.53,0,1.53.47,4.38.79,6.31.19,1.18.33,2.03.35,2.42.15,3.02-.4,5.35-1.67,7.12-2.33,3.25-5.99,4.39-9.45,4.39ZM639.76,468.16c3.98,1.13,9.73.91,12.82-3.39,1.14-1.58,1.62-3.71,1.49-6.49-.02-.33-.17-1.25-.34-2.31-.37-2.28-.89-5.39-.79-6.91l.03-.38.37-.08c1.84-.4,3.24-1.17,3.41-1.87.07-.3-.12-.64-.56-1-1.48-1.19-3.98-1.63-6.37-1.12-2.15.46-3.82,1.59-4.58,3.09-1.1,2.17-.74,4.92-.42,7.35l.02.14c.06.45.13.9.21,1.35.15.88.3,1.79.33,2.71.03.78-.12,1.51-.25,2.16-.3,1.47-.44,2.15,1.14,2.6,0,0,0,0,0,0l-.27.96c-1.9-.54-4.59-.65-6.43.65-.64.45-1,1.08-.92,1.59.09.54.66.82,1.12.95h0Z"/>
    </g>
    <g>
      <path class="cls-7" d="M665.72,431.84c.62-1.36,1.43-2.54,2.58-3.52.34-.29.67-.51.99-.7.27.41,1.14.9,1.66,1.56.75.95,1.38,1.99,1.88,3.09,1.13,2.47,1.6,5.28,1.67,7.97.12,5.27-1.52,10.35-3.31,15.27-.28.26-.49.56-.59.89-1.68,5.39-4.25,10.29-7.6,14.83-2.33,3.16-8.79,12.59-12.03,5.92-1.38-2.84-10.89-1.17-9.21,2.27,3.79,7.8,15.33,6.37,21.34,2.35,7.33-4.92,13.1-14.24,16.18-22.69.21-.22.37-.46.47-.72,3.32-8.99,6.72-19.11,2.31-28.36-2.93-6.15-11.58-11.38-17.55-6.33-3.57,1.58-6.58,4.2-8.25,7.86-1.44,3.17,8.1,3.33,9.49.31Z"/>
      <path class="cls-4" d="M652.08,485.55c-1.37,0-2.74-.16-4.05-.51-3.09-.84-5.42-2.7-6.73-5.39-.37-.77-.32-1.53.14-2.22,1.08-1.59,4.18-2.36,6.55-2.19,1.74.12,2.96.73,3.43,1.7.63,1.29,1.38,1.96,2.29,2.04,2.83.23,6.66-5,8.51-7.52l.38-.52c3.43-4.66,5.9-9.46,7.52-14.68.11-.36.33-.71.64-1.02,1.71-4.71,3.36-9.75,3.24-14.98-.07-2.91-.62-5.6-1.62-7.78-.49-1.08-1.1-2.08-1.82-2.99-.24-.3-.58-.58-.89-.83-.17-.14-.33-.27-.47-.4-.21.14-.39.28-.57.43-1.01.86-1.81,1.96-2.45,3.35h0c-1.14,2.5-6.72,3.02-9.19,1.89-1.24-.57-1.69-1.54-1.2-2.61,1.62-3.54,4.53-6.33,8.44-8.08,2.23-1.86,4.99-2.5,7.96-1.86,4.2.9,8.35,4.28,10.31,8.4,4.33,9.08,1.39,18.78-2.29,28.75-.1.28-.27.55-.5.81-3.62,9.87-9.72,18.41-16.34,22.84-2.71,1.82-7,3.36-11.28,3.36ZM647.3,476.22c-2.13,0-4.35.76-5.04,1.78-.26.39-.28.77-.07,1.22,1.19,2.46,3.24,4.09,6.09,4.86,5.13,1.39,11.12-.43,14.52-2.71,6.47-4.34,12.45-12.73,15.99-22.45l.11-.17c.17-.18.29-.36.36-.55,3.6-9.76,6.49-19.25,2.32-27.97-1.81-3.8-5.77-7.03-9.62-7.86-2.68-.58-5.16,0-7.16,1.69l-.12.08c-3.71,1.64-6.48,4.27-8,7.61-.11.24-.37.8.71,1.29,2.22,1.01,7.05.38,7.87-1.4.7-1.52,1.58-2.73,2.71-3.69.31-.27.65-.5,1.05-.75l.42-.25.26.41c.08.13.34.34.59.53.35.28.74.6,1.05.99.76.97,1.42,2.05,1.94,3.19,1.05,2.3,1.64,5.13,1.71,8.17.12,5.45-1.58,10.62-3.34,15.46l-.04.11-.09.08c-.23.22-.38.45-.46.68-1.66,5.33-4.17,10.23-7.67,14.98l-.38.52c-2.1,2.88-6.01,8.23-9.4,7.92-1.27-.11-2.32-.99-3.1-2.6-.3-.63-1.25-1.04-2.6-1.14-.2-.01-.41-.02-.61-.02Z"/>
    </g>
    <path class="cls-9" d="M862.47,866.54c-8.01-39.82-16.42-80.65-36.17-116.6-4.27-7.76-9.08-15.11-14.42-22.05-7.35-9.59-15.68-18.39-24.9-26.4-16.73-14.53-35.51-26.55-54.2-38.35-22.02-13.91-44.56-26.97-68.15-38.04-1.32-.62-3.89-.26-5.76.52-3.99-1.26-7.98-2.51-11.96-3.77-.51-.16-1.06-.28-1.62-.35-16.89-36.37-17.83-78.99-2.73-116.12.04-.1.07-.19.09-.28.37-.39.61-.84.65-1.36.49-6.28,9.99-4.02,14.32-4.8,4.43-.79,8.25-2.8,11.59-5.79,7.52-6.72,13.96-16.45,18.82-25.24,7.91-14.31,10.35-33.61-1.03-46.19,2.87.02,6.07-1.21,5.59-3.02-5.93-22.07,12.74-41.59,12.27-63.54-.23-10.66-4.38-21.43-11.4-29.47-3.52-4.02-7.98-7.23-10.99-11.69-3.45-5.09-3.26-11.42-5.59-16.96-8.51-20.23-34.94-21.17-53.38-21.7-6.5-.19-13.04-.45-19.39-2-6.57-1.61-12.76-4.49-19.12-6.74-10.65-3.76-21.48-5.04-32.69-3.41-22.21,3.25-42.22,15.79-64.7,17.46-12.4.91-24.85-1.14-37.23.35-10.06,1.2-21.59,4.51-27.81,13.14-7.2,9.98.83,21.26,1.67,31.97.91,11.68-1.74,23.45.46,35.05,1.73,9.1,6.16,17.66,14.69,21.96,4.83,2.44,10.52,3.31,14.12,7.69,3.73,4.52,5.17,10.66,5.91,16.35,1.64,12.58-1.31,26.53-11.72,34.73-10.11,7.98-25.06,4.46-29.39-8.2-1.82-5.32-1.49-11.1-3-16.49-1.59-5.67-8.52-11.35-3.3-16.88,4.48-4.75,13.59-2.35,19.52-3.41,5.07-.9,10.11-2.86,13.15-7.22,2.56-3.68-6.86-4.1-8.63-1.56-3.65,5.22-9.5,4.35-15.17,4.54-5.28.18-10.84.92-15.22,4.12-3.09,2.25-5.81,5.86-5.47,9.89.23,2.71,1.96,4.49,3.3,6.72,1.6,2.66,2.38,5.47,2.89,8.51,1.69,10.18,2.59,19.48,12.28,25.31,3.13,1.88,6.56,3.12,10.1,3.75-4.95,9.59-2.59,21.79-1,31.96,2.08,13.31,5.45,26.42,10.03,39.08,7.18,19.85,18.38,39.8,38.29,48.39,7.45,8.13,15.64,17.87,15.93,29.25.64,7.69-2.66,15.91-9.51,19.82-1.41.54-2.88,1.28-4.21,2.2-6.38-.84-12.91-.6-19.13,1.21-3.48,1.02-8.17,2.72-10.29,6.02-.46.34-.83.76-1.03,1.28-.17.44-.3.87-.4,1.3-2.98-1.18-9.38.48-7.94,3.31.95,1.88-22.14,8.44-24.74,9.1-8.58,2.17-17.26,3.65-26.01,4.84-16.01,2.18-32.33,3.92-47.45,9.99-15.28,6.13-27.34,17.13-39.08,28.36-12.66,12.11-25.19,24.36-37.88,36.43-.42.41-.85.82-1.27,1.22-15.2,14.44-30.64,28.62-46.71,42.07-1.8,1.5.88,2.84,2.08,3.14,2.2.53,4.84-.14,6.55-1.57,15.12-12.67,29.67-25.97,43.99-39.52,13.14-12.42,26.08-25.04,39.12-37.56,13.05-12.53,26.05-25.05,43.65-30.75,16.44-5.33,33.96-6.03,50.89-9.01,10-1.76,19.83-4.25,29.49-7.41,2.93-.96,12.29-3.01,15.77-6.75,1.82,4.3,6.67,7.44,10.98,9.09,11.3,4.36,23.63,6.84,35.56,8.7,23.33,3.64,46.97,4.06,70.54,4.24.56.15,1.14.21,1.62.2,31.66-.62,62.5-9.01,89.96-24.83.66-.37,1-.81,1.1-1.26,1.11-.96,2.21-1.93,3.32-2.9,19.76,9.45,38.78,20.34,57.39,31.9,18.4,11.44,36.89,23.09,53.79,36.7,12.82,10.33,24.24,22.02,33.78,35.28,2.66,3.68,5.17,7.48,7.52,11.4,10.41,17.34,17.88,36.26,23.72,55.58,6.56,21.69,11.14,43.9,15.6,66.09.7,3.43,10.34,2.18,9.7-1.02ZM438.6,371.75c-3.34-5.47-4.69-12.39-5.04-18.58-.69-12.32,2.17-24.76-1.11-36.9-1.52-5.62-4.71-11.46-2.78-17.39,2-6.13,8.19-9.8,14.01-11.58,12.4-3.79,25.98-1.23,38.71-1.55,11.38-.28,22.2-2.8,32.98-6.33,11.29-3.7,22.35-8.39,34.03-10.76,12.84-2.62,23.74,0,35.76,4.6,11.96,4.59,23.45,6.67,36.25,7.03,11.68.33,23.81.19,34.29,6.12,4.83,2.73,9.03,6.61,11.42,11.67,2.78,5.89,2.41,12.63,6.13,18.19,3.28,4.9,8.32,8.35,12.02,12.9,4.17,5.14,7.15,11.2,8.68,17.64,3.16,13.3-1.06,25.54-5.75,37.87-4.03,10.62-8.08,21.7-5.76,33.08-.41-.15-.88-.24-1.41-.28-.23-.31-.62-.62-1.22-.92-18.08-9.09-41.12-.21-47.33,17.72-.9-2.47-1.59-4.83-2.09-6.34-1.96-5.92-3.36-12.02-4.74-18.1-2.42-10.7-4.81-21.46-9.51-31.43-4.77-10.1-11.65-19.23-20.06-26.59-9.11-7.96-19.08-9.85-30.9-9.59-9.74.21-23.05.26-26.09-11.46-2.27-8.79.29-19.07-10.21-23.08-8.55-3.28-18.34-.3-26.44,2.89-9.32,3.68-18.2,8.62-26.26,14.59-16.29,12.06-29.34,28.11-37.58,46.58ZM488.12,623.04c.39-.14.73-.33,1.02-.53,8.6-4.48,13.35-14.37,12.56-23.88-.23-8.9-5.05-16.9-10.71-23.91,39.86.1,79.46-7.48,116.46-22.39,1.71-.69,2.81-2.01,1.39-3.5-1.4-1.48-5.13-.81-6.72-.17-35.88,14.45-74.25,21.61-112.9,21.06.01-.65-.43-1.23-1.49-1.56-1.23-.38-2.42-.81-3.59-1.28-.08-.08-.15-.17-.23-.25-.54-.59-1.5-.9-2.6-1-18.58-8.96-28.61-29.24-35.08-48.18-3.95-11.56-6.88-23.47-8.78-35.54-1.54-9.78-3.91-21.44.81-30.65,2.37-.27,4.72-.79,6.99-1.56,20-6.79,27.38-28.83,23.08-48.11,6.75-4.86,14.34-8.09,22.53-9.02-2.56,5.07-3.81,10.91-3.66,16.73.38,14.08,9.34,26.68,22.71,31.39,12.65,4.45,27.57,1.13,36.96-8.53,4.57-4.7,7.08-10.42,7.93-16.88.55-4.23.79-8.32,3.69-11.69,2.35-2.72,5.57-4.95,6.08-8.79,1-7.51-10.49-10.76-16.06-12-8.25-1.83-16.79-1.16-25.06-3.03-3.52-.79-10.65,3.3-4.45,4.7,6.94,1.57,13.9,1.51,20.92,2.33,3.78.44,7.48,1.42,10.86,3.21,2.5,1.32,4.98,2.99,3.85,6.26-.58,1.68-2.01,2.92-3.19,4.15-2.41,2.51-4.32,4.76-5.21,8.2-.91,3.51-.79,7.21-1.67,10.72-1.66,6.67-6.21,12.46-12.21,15.78-13.13,7.23-28.13-2.75-33.25-15.34-5-12.28-1.99-31.98,11.94-37.07,1.75-.64,2.78-2.04,1.39-3.5-1.43-1.52-5.1-.77-6.72-.17-4.78,1.74-8.65,4.72-11.6,8.43-9.77.58-19.16,3.16-27.61,7.96-1.2-3.15-2.85-6.11-5.29-8.51-4.29-4.23-10.02-5.06-15.13-7.85-.24-.13-.46-.29-.69-.43,6.66-17.91,17.78-33.79,32.3-46.22,7.41-6.34,15.74-11.75,24.6-15.82,6.91-3.18,20.29-10.04,24.81-.08,1.92,4.25,1.21,9.33,2.01,13.82.74,4.12,2.52,7.69,5.72,10.43,6.43,5.52,15.65,6.57,23.79,6.5,5.46-.04,11.15-.69,16.53.54,6.25,1.42,11.43,5.77,15.86,10.21,7.32,7.32,13.23,16.11,17.25,25.65,4.78,11.35,6.67,23.63,9.65,35.5,1.43,5.69,3.1,11.33,5.37,16.75,2.01,4.8,4.11,10.43,9.31,12.38,1.82.68,8.38.6,8.1-2.58-1.59-18.14,15-33.87,32.62-25.01.34.17.78.28,1.26.32.11.14.25.27.42.41,16.87,13.13,9.89,37,.01,51.99-2.96,4.5-6.27,8.82-9.67,12.99-3.72,4.57-6.96,7.9-13.14,8.04-6.97.15-17.48,1.17-18.53,9.81-.26.24-.46.51-.58.81-15.34,37.71-14.32,80.63,2.51,117.63-25.73,9.66-52.55,15.77-79.96,18.05-13.62,1.13-27.65,1.87-41.27.36-6.62-.74-13.18-2.13-19.35-4.7-4.93-2.05-18.03-9.34-6.89-13.38ZM648.11,632.75c-23.32,13.18-49.51,20.75-76.28,21.79-.28-.03-.54-.05-.78-.05-21.62-.16-43.35-.27-64.83-3-10.65-1.35-21.26-3.31-31.6-6.24-5.85-1.66-19.83-4.81-17.65-13.64.3-.29.54-.61.68-1,1.84-5.07,11.3-4.81,16.63-4.16-.56,1.68-.38,3.56.99,5.59,3.65,5.38,12.05,8.35,17.9,10.24,15.55,5.04,32.28,4.85,48.43,4.2,34.15-1.36,67.68-8.17,99.64-20.22,3.5,1.1,7,2.21,10.5,3.31-1.21,1.06-2.42,2.12-3.63,3.18Z"/>
    <g>
      <path class="cls-7" d="M511,387.08c-6.74,1.21-11.91,6.78-13.43,13.63-1.5,6.74,1.33,13.8,9.22,12.75,2.93-.39,5.64-1.84,7.17-4.42,2.05-3.45-.6-9.91,2.66-11.47,2.57-1.23,5.26-1.62,5.31-5.27.06-3.81-3.25-5.89-6.5-6.71-1.45-.37-3.81.52-4.43,1.5ZM514.02,394.61c-.95.62-2.5.46-3.53,1.13-2.92,1.9-1.85,4.92-1.73,7.83.09,2.12-.82,7.35-3.99,5.3-1.26-.82-1.25-4.17-1.18-5.5.21-4.02,3.4-13.2,8.64-13.25.68,0,1.34-.18,1.92-.45,1.42,1.39,1.66,3.78-.14,4.94Z"/>
      <path class="cls-4" d="M505.27,414.06c-2.48,0-4.55-.85-6.06-2.5-2.26-2.47-3.08-6.67-2.12-10.96,1.6-7.22,6.94-12.69,13.63-13.98.91-1.12,3.33-1.91,4.84-1.53,4.36,1.1,6.93,3.79,6.88,7.21-.05,3.36-2.22,4.28-4.33,5.16-.42.18-.85.35-1.27.56-1.53.73-1.52,2.87-1.5,5.34.01,2.1.03,4.28-.95,5.93-1.52,2.56-4.19,4.22-7.53,4.66-.54.07-1.07.11-1.59.11ZM514.68,386c-1.24,0-2.84.68-3.26,1.35l-.12.18-.22.04c-6.38,1.15-11.5,6.35-13.03,13.25-.89,3.98-.16,7.84,1.88,10.07,1.59,1.74,3.94,2.45,6.78,2.07,3.03-.41,5.45-1.89,6.8-4.18.84-1.41.82-3.44.81-5.41-.02-2.58-.03-5.25,2.07-6.25.44-.21.88-.4,1.31-.58,2.05-.86,3.67-1.54,3.71-4.25.06-4.2-4.26-5.75-6.12-6.22-.19-.05-.4-.07-.62-.07ZM506.11,409.84c-.45,0-.99-.14-1.62-.55-1.5-.97-1.48-4.48-1.41-5.95.2-3.76,3.31-13.67,9.14-13.72.56,0,1.15-.14,1.72-.4l.31-.14.25.24c.91.9,1.39,2.13,1.27,3.31-.1,1-.63,1.85-1.48,2.41-.55.36-1.22.48-1.87.61-.62.12-1.21.23-1.66.52-2.1,1.37-1.89,3.35-1.65,5.65.06.58.12,1.16.15,1.74.06,1.53-.37,5.01-2.12,6.01-.26.15-.6.27-1.02.27ZM514.02,390.27c-.59.23-1.2.35-1.79.35-4.86.04-7.96,9.09-8.15,12.78-.11,2.14.14,4.53.95,5.05.95.62,1.44.34,1.6.25,1.15-.66,1.69-3.43,1.62-5.1-.02-.56-.08-1.12-.14-1.68-.25-2.41-.51-4.89,2.1-6.59.61-.4,1.33-.53,2.02-.67.58-.11,1.13-.22,1.52-.47l.27.42-.27-.42c.77-.5.98-1.18,1.03-1.67.08-.77-.21-1.61-.75-2.26Z"/>
    </g>
    <g>
      <path class="cls-7" d="M513.65,421.49c-.2.41-.4.76-.68,1.12-.19.23-.59.47-.79.72-.24-.15-.52-.34-.47-.29-.51-.47-.85-1.17-.84-1.86,0-.39.1-.81.32-1.14.03-.05.06-.09.1-.13,1.17-.02,2.47-.34,3.12-1.14.93-1.14-.34-1.88-1.39-2.09-2.65-.53-5.86.14-7.61,2.34-1.57,1.97-1.15,4.48.72,6.08,4.29,3.68,11.5,1.37,13.85-3.39,1.01-2.04-5.34-2.2-6.32-.2ZM511.33,419.84c.43-.53.61-.15,0,0h0ZM510.63,419.88c.06,0,.12,0,.18,0-.06,0-.12,0-.18,0ZM510.05,419.8c.15.03.32.05.49.07-.15-.01-.31-.03-.49-.07Z"/>
      <path class="cls-4" d="M511.25,427.41c-2.06,0-3.98-.67-5.45-1.93-2.13-1.82-2.45-4.67-.78-6.77,1.96-2.47,5.48-3.05,8.1-2.52.39.08,1.69.41,2.04,1.37.12.34.16.88-.36,1.52-.84,1.04-2.39,1.27-3.24,1.32-.12.22-.19.5-.19.8,0,.51.24,1.06.64,1.45.03.02.07.04.1.06.05-.04.11-.09.16-.13.12-.09.25-.2.3-.27.25-.31.43-.63.62-1.02h0c.68-1.38,2.94-1.63,3.61-1.68,1.34-.08,2.98.13,3.56,1.01.26.39.27.85.05,1.31-1.3,2.62-4.05,4.64-7.18,5.28-.67.14-1.34.2-1.99.2ZM511.26,417c-1.98,0-4.14.67-5.46,2.32-1.35,1.69-1.08,3.91.65,5.39,1.73,1.49,4.08,2.02,6.6,1.51,2.84-.58,5.32-2.4,6.48-4.75.1-.2.05-.27.02-.31-.23-.35-1.29-.65-2.66-.57-1.38.09-2.49.54-2.78,1.12-.22.45-.43.83-.74,1.21-.12.15-.29.29-.46.42-.12.1-.27.21-.33.3l-.28.35-.53-.34c-.13-.08-.24-.16-.29-.18l.24-.43h-.01s-.34.36-.34.36l-.34-.31.02-.03c-.44-.55-.69-1.23-.68-1.9,0-.17.02-.38.07-.6l-.43.1.27-.33c-.09-.01-.18-.03-.28-.04-.02,0-.03,0-.05,0l.2-.98s.03,0,.05,0c.12.02.26.04.39.05l-.06.67.1-.13.04-.53h.15s0,.3,0,.3l.13-.16s0-.01.01-.02l.09-.11c.37-.39.68-.36.84-.3l.34.13v.07c.81-.14,1.45-.45,1.79-.87.18-.22.24-.41.19-.55-.11-.3-.65-.6-1.29-.73-.52-.1-1.08-.16-1.66-.16Z"/>
    </g>
    <path class="cls-9" d="M430.16,402.59c-.39-.7-1.51-.96-2.69-.91-3.7-1.39-9.23-.48-9.93,3.87-.55,3.39,2.82,6.32,3.01,9.82.18,3.22-1.63,7.6.54,10.48,3.46,4.59,9.36.06,11.24-3.48,3.45-6.5,1.22-13.8-2.17-19.78ZM426.55,421.69c-.09-2.88.46-7.1.4-7.72-.14-1.31-.47-2.51-.98-3.73-.22-.52-2.07-5.23-2.07-5.34.19.15.44.25.72.32,2.34,4.6,4.4,11.62,1.93,16.47Z"/>
    <path class="cls-9" d="M434.65,428.99c-.72-.54-1.77-.65-2.76-.54-.85-.9-2.95-.67-3.89-.47-2.87.6-5.49,2.74-5.62,5.83-.13,2.97,2.64,4.74,5.25,5.2,3.02.53,6.97-.34,8.58-3.19,1.33-2.34.53-5.25-1.56-6.83ZM429.68,435.82s-.02.04-.01.05c.05.25-.09-.08.01-.05ZM430.35,434.42c-.02.14-.32.66-.51,1.04-.57-.48-.97-1.06-1-1.98-.02-.66.19-1.37.56-1.93.02-.04.06-.07.09-.11.77.75,1.04,1.93.86,2.98Z"/>
  </g>
  <g>
    <path class="cls-7" d="M582.95,726.99c.11-1.33.32-2.56.64-3.69.32-1.13.49-1.99.49-2.58,0-6.98-1.59-12.12-4.75-15.41-3.17-3.29-4.75-6.32-4.75-9.07,0-.2.21-.49.65-.88-.65-2.36-.97-3.98-.97-4.87l.97-6.64-.32-2.36c1.72-3.24,2.58-5.95,2.58-8.11v-.88c-.22-.88-.32-1.42-.32-1.62,0-.29.75-2.8,2.26-7.52l-.65-2.36c0-1.47.64-2.8,1.94-3.98l.48-1.18c0-.79.16-1.33.48-1.62.32-.29.75-1.35,1.29-3.17.54-1.82,1.4-3.54,2.58-5.16,1.18-1.62,2.36-3.12,3.55-4.5l2.9-3.98c.86-.59,1.77-1.4,2.74-2.43.96-1.03,2.04-1.65,3.22-1.84l.65-.88c.75-1.97,2.31-3.25,4.67-3.83l7.24-12.09c1.07-.69,1.61-1.13,1.61-1.33,1.61-3.54,3.81-5.95,6.6-7.23l8.21-1.47c1.61-.39,2.63-.59,3.06-.59l3.86-.59c5.36-1.47,8.2-2.21,8.53-2.21.75,0,1.71-.2,2.89-.59,1.18-.39,2.3-.59,3.38-.59.43,0,.64.1.64.29,2.25,2.66,3.59,3.98,4.02,3.98,2.47,0,4.93-1.47,7.4-4.42l7.4-8.55c.64-1.87,1.47-3.54,2.49-5.01,1.02-1.47,1.53-2.51,1.53-3.1,0-2.85-1.77-4.28-5.31-4.28h-.64l-2.25.88c-3.75.2-6.3.71-7.64,1.55-1.34.84-2.23,1.25-2.65,1.25l-1.29-.44h-1.93c-1.83.69-3.11,1.08-3.86,1.18-.75.1-2.55.64-5.39,1.62-2.84.98-4.37,1.47-4.58,1.47-.75,0-1.66-.29-2.73-.88l-.96.29c-1.72.79-2.89,1.18-3.54,1.18-1.83,0-2.73-.39-2.73-1.18,0-.59.08-1.11.24-1.55.16-.44.21-1.33.16-2.65-.06-1.33.19-2.65.72-3.98.54-1.33.8-2.04.8-2.14l-1.61-5.6c-1.07-4.72-2.95-7.08-5.63-7.08-2.04,0-4.66,1.72-7.87,5.16-.97,1.87-2.25,2.8-3.86,2.8-.32,0-.75.52-1.29,1.55-.54,1.03-1.02,1.79-1.45,2.29-1.82,3.54-3.64,5.95-5.47,7.23-1.82,1.28-3.46,3.32-4.9,6.12-1.45,2.8-2.6,4.2-3.46,4.2l-2.6-.29c-.22,0-.49.1-.81.29-.33.2-1.17.49-2.52.88-1.35.39-3.03,1.06-5.03,1.99-2,.94-4.29,1.4-6.86,1.4h-.32l-1.45-.59h-.32l-1.61,1.47-2.25.59c-1.29-.39-2.09-.59-2.41-.59-2.15,0-3.89.35-5.23,1.03-1.34.69-2.23,1.03-2.65,1.03l-2.57.59c-1.07.39-2.98.76-5.71,1.11-2.73.35-4.77.91-6.11,1.7-1.34.79-2.55,1.18-3.62,1.18l-2.09-.29-6.59,1.62c-4.83,1.08-7.94,1.99-9.33,2.73-1.39.74-2.41,1.11-3.06,1.11h-.64l-1.77-.59h-.32l-6.59,2.36c-18.23,1.57-27.34,7.23-27.34,16.96,0,1.77.72,3.76,2.17,5.97,1.45,2.21,2.71,3.32,3.78,3.32l1.29-.29c4.5-3.64,7.4-5.65,8.69-6.05l16.41-4.13c1.07.2,1.72.29,1.93.29,1.61,0,4.13-.83,7.56-2.51l3.7.29c1.71-.98,3-1.47,3.86-1.47h1.45l6.59-1.77c3.22-1.87,7.99-3.05,14.31-3.54l7.08-.74,2.25.29c.43,0,1.02-.44,1.77-1.33.75-.88,1.93-1.77,3.54-2.66,2.14.59,3.22,1.03,3.22,1.33l6.92-3.1c.43.39.75.79.97,1.18-.22,2.66-1.32,5.48-3.3,8.48-1.99,3-3.35,5.38-4.11,7.15-.75,1.77-4.19,5.83-10.31,12.17-6.12,6.34-10.33,10.2-12.64,11.58-2.31,1.38-3.57,3.29-3.78,5.75l-.8.59h-1.29l-.96.59-.32,1.18-1.61.88c-1.83,0-2.85,1.23-3.06,3.69l-.64.59c-.86,0-1.94.76-3.22,2.29-1.29,1.53-3.33,3.32-6.12,5.38-2.79,2.06-4.19,3.44-4.19,4.13,0,.79-.81,1.43-2.42,1.92-1.61.49-2.68,1.33-3.22,2.51-.86,1.48-2.15,2.61-3.87,3.39-1,.46-1.7,1.31-2.12,2.54l-1.61,1.3c-4.09,2.26-7.07,3.89-8.95,4.87-1.88.98-3.09,2.41-3.63,4.28-1.72,1.18-2.58,2.61-2.58,4.28-.22.2-.43.29-.64.29l-1.61-.59h-.64c-1.4,0-2.42.79-3.06,2.36-2.15,1.97-3.65,3.15-4.51,3.54-.97,1.67-2.21,2.71-3.71,3.1l-5.16,1.33c-.54,0-1.29-1.08-2.25-3.25l-3.22-6.19v-1.33c0-.79.27-1.28.8-1.47,2.14-1.77,3.22-4.96,3.22-9.59l-.32-2.8,1.29-8.11v-.59l-.64-3.98.32-2.65c0-2.46-1.58-5.7-4.74-9.73-3.16-4.03-7.47-6.05-12.94-6.05-.75,0-2.17.37-4.26,1.11-2.09.74-3.67,1.25-4.74,1.55-1.07.29-1.71.54-1.93.74l-2.25,1.18-2.41.59c-2.04,1.48-3.86,2.36-5.47,2.66s-2.89.94-3.86,1.92c-.96.98-2.89,2.06-5.78,3.25l-1.29,2.21-1.61,1.18c-.64.59-2.3,1.33-4.98,2.21s-4.55,2.51-5.62,4.87c-.22.49-.99,1.08-2.33,1.77-1.34.69-2.55,1.45-3.62,2.29-1.07.84-1.93,1.25-2.57,1.25-1.07,0-1.61-.39-1.61-1.18,0-.88.64-2.21,1.93-3.98.64-2.46.96-4.37.96-5.75l-.32-3.98c0-2.36-1.55-5.53-4.66-9.51-3.11-3.98-7.61-5.97-13.5-5.97-2.25,0-4.02,1.38-5.31,4.13-1.29,2.75-3.75,4.77-7.39,6.05l-1.12,1.47c-2.46.1-4.93.98-7.39,2.65-2.46,1.67-5.49,3.42-9.08,5.24-3.59,1.82-5.87,4.06-6.83,6.71l-3.38,8.41c0,3.54,1.34,5.31,4.03,5.31h.97c2.04-1.38,3.44-2.16,4.19-2.36.75-.2,1.13-.59,1.13-1.18,1.29-1.87,2.47-3,3.55-3.39,1.08-.39,3.87-2.11,8.38-5.16l2.57.44c2.04-2.66,3.64-4.08,4.83-4.28,1.18-.2,3.11-1.42,5.79-3.69l.32.59c0,.39-.72,1.65-2.17,3.76-1.45,2.12-2.23,3.64-2.33,4.57-.11.94-.43,1.65-.96,2.14-.54.49-.8,1.03-.8,1.62,0,2.07-.22,3.1-.64,3.1h-2.09c-.43.2-1.29,1.11-2.57,2.73-1.29,1.62-2.55,2.71-3.78,3.24-1.23.54-1.85,1.45-1.85,2.73v1.18l-.32.59c-4.61.98-6.92,6.93-6.92,17.85,0,1.47.72,3.27,2.17,5.38,1.45,2.12,2.76,3.32,3.94,3.61,1.18.29,2.17.64,2.98,1.03.8.39,1.42.59,1.85.59.97,0,2.15-1.33,3.55-3.98.97-.29,2.1-1.01,3.39-2.14,1.29-1.13,2.04-1.7,2.26-1.7h1.61l.64-.59c.54-1.38.92-2.11,1.13-2.21,2.79-.29,4.51-1.08,5.16-2.36.64-3.24,1.67-4.87,3.06-4.87.21,0,1.18.59,2.88,1.77,2.03-2.16,3.15-3.24,3.37-3.24,1.92-1.18,2.88-1.97,2.88-2.36,0-2.26.72-3.51,2.16-3.76,1.44-.24,3.76-1.7,6.97-4.35s6.81-5.48,10.82-8.48c4.01-3,6.01-4.65,6.01-4.94,1.28-.79,2.14-1.38,2.56-1.77l1.28-.88c1.82-.49,3.05-1.03,3.69-1.62,1.28,0,2.51-.42,3.69-1.25,1.18-.83,3.21-1.89,6.09-3.17l1.12-.29c1.28-1.08,2.35-1.62,3.2-1.62,1.92,0,2.89,1.03,2.89,3.1l-.32,3.54.64,3.69-.96,7.23c0,.39.16.96.48,1.7.32.74.48,1.3.48,1.7s-.43.98-1.29,1.77c.64,1.38.96,2.51.96,3.39,0,1.57.29,2.9.88,3.98.59,1.08.89,1.77.89,2.06v.29c-.97,1.77-1.45,2.75-1.45,2.95s.24.76.72,1.7c.48.94.73,1.6.73,1.99.21.98,1.48,3.07,3.79,6.27,2.31,3.2,4.21,5.01,5.72,5.46,1.5.44,2.98,1.06,4.43,1.84,1.45.79,2.6,1.18,3.46,1.18l3.06-.59,4.51.59c.64,0,1.34-.29,2.09-.88l2.25-1.47c3.65-1.77,5.85-3.59,6.6-5.46l1.29-.59h2.58c.97-.69,1.45-1.72,1.45-3.1l6.28-4.87c.86-.79,1.82-1.47,2.9-2.06l4.35-2.07,8.21-7.96c.99-.94,1.89-1.8,2.7-2.59.05-.02.09-.05.14-.07,1.24-.59,2.18-1.47,2.82-2.66,4.19-1.08,6.82-3.1,7.9-6.05,1.72.1,3.38-1.52,5-4.87l.64-.29c2.58,0,4.08-1.42,4.51-4.28l.65-.29c2.25,0,4.03-1.03,5.32-3.1,1.29-2.07,3.06-3.25,5.32-3.54,3.01-4.42,4.78-6.73,5.32-6.93.64.2,1.07.39,1.29.59l1.29-2.06c1.61-1.08,2.95-2.21,4.03-3.39,1.07-1.18,1.93-1.77,2.58-1.77.43,0,.64.1.64.29-1.5,1.38-2.25,2.16-2.25,2.36v4.57l-3.71,12.68.65,3.1-.97,12.98.97,2.95-.32,5.75c0,2.16,1.39,7.03,4.19,14.6,2.79,7.57,7.04,11.36,12.73,11.36,1.07,0,2.39-.64,3.95-1.92,1.56-1.28,2.39-2.58,2.5-3.91Z"/>
    <path class="cls-7" d="M781.46,676.03l2.09-2.95c-.64-2.07-1.55-3.1-2.73-3.1-.22,0-.43.1-.64.29l-1.93.59c-2.03.29-4.87,2.12-8.5,5.46-.21.59-.72.98-1.52,1.18-.8.2-1.79.96-2.97,2.29-1.18,1.33-2.33,2.09-3.45,2.29-1.12.2-2.11.64-2.97,1.33-.85.69-1.6,1.03-2.25,1.03l-1.6,1.62c-1.61,1.18-2.73,2.16-3.37,2.95-1.18.1-2.57.79-4.17,2.06-1.6,1.28-3.15,2.41-4.65,3.39l-1.29-.59-7.56,4.28c-1.82,1.77-3.22,2.66-4.18,2.66-.32,0-.7-.2-1.13-.59.86-1.38,2.65-3.39,5.39-6.05,2.73-2.66,5.12-5.46,7.16-8.41.96-4.52,1.61-7.28,1.93-8.26l3.54-8.41v-.29l-.96-2.36c0-.49.16-1.08.48-1.77.32-.69.48-1.13.48-1.33,0-3.74-1.53-7.18-4.59-10.32-3.06-3.15-6.79-4.72-11.19-4.72-.43,0-.65.1-.65.29-.64.59-1.07.88-1.29.88l-3.71-1.47c-.86.79-1.83,1.18-2.9,1.18-2.26,0-5.69.69-10.31,2.07l-3.87,2.8c-2.26,1.18-4.35,2.46-6.28,3.83l-.65,2.21-1.61.88c-2.26.2-4.75,1.3-7.49,3.32-2.74,2.02-4.94,3.47-6.61,4.35-1.66.88-2.98,1.89-3.95,3.02-.97,1.13-2.45,2.19-4.43,3.17-1.99.98-3.3,2.41-3.95,4.28-1.4,1.57-2.31,2.36-2.74,2.36s-.64-.2-.64-.59l.32-1.18-.32-1.33,4.66-19.03c0-4.13-1.5-7.52-4.5-10.18-3-2.65-4.93-3.98-5.79-3.98h-3.21c-.86.79-1.91,1.45-3.14,1.99-1.23.54-2.07,1.3-2.49,2.29-5.68,6.88-9.67,11.11-11.98,12.68-2.31,1.57-3.78,2.66-4.42,3.25-2.68.69-4.02,1.33-4.02,1.92l.32,2.06c-1.5,0-2.47.2-2.9.59l-2.73.88c-.64,0-1.39.54-2.25,1.62l-1.61,2.06c-3.75,1.97-6.06,3.52-6.92,4.65-.86,1.13-2.73,2.41-5.63,3.83-2.89,1.43-4.34,3.52-4.34,6.27,0,4.42,1.77,6.64,5.3,6.64,2.68,0,4.77-1.08,6.27-3.24l.64-.88c2.36-1.67,4.12-3.29,5.31-4.87l1.61-.29c2.46-1.67,4.23-2.7,5.31-3.1,1.07-1.77,1.93-3.24,2.57-4.42.21,0,.78.15,1.69.44.91.29,1.47.44,1.69.44,1.93,0,2.89-.74,2.89-2.21l1.13-4.13c.21-.79,1.29-1.18,3.22-1.18h1.29c.64,0,.96.49.96,1.47v.59l-1.29,3.24-.32,2.21c-2.68,5.6-4.24,9.83-4.66,12.68l-.64,3.83-1.93,3.39-.64,2.95c-.22.39-1.02,2.46-2.41,6.19l-3.86,10.47c0,.98-.32,1.87-.96,2.65l-1.77,2.21c-1.18,0-2.47,1.18-3.86,3.54-1.29.49-2.44,1.57-3.46,3.24-1.02,1.67-2.07,2.9-3.14,3.69l-1.61,2.51c-.22.79-1.05,1.43-2.49,1.92-1.45.49-2.39,1.8-2.82,3.91-.43,2.11-.91,3.37-1.45,3.76-.54.39-1.66,1.55-3.38,3.47-1.71,1.92-3.06,3.81-4.02,5.68-2.25,1.38-3.38,2.65-3.38,3.83l-2.25,3.98c-1.61,2.26-3.16,4.96-4.66,8.11-2.36,1.38-3.83,2.83-4.42,4.35-.59,1.52-1.15,2.66-1.69,3.39-.54.74-.91,1.5-1.13,2.29l-1.93,3.98c-1.18,1.38-2.25,4.77-3.22,10.18l-1.45,6.05c0,5.21.94,9.14,2.81,11.8,1.88,2.66,2.92,4.28,3.14,4.87,1.93,5.01,5.47,7.52,10.62,7.52l6.92-3.98c2.68-1.57,4.72-3.32,6.11-5.24,1.39-1.92,2.63-3.37,3.7-4.35,1.07-.98,1.61-1.67,1.61-2.06,2.25-3.44,3.27-5.9,3.06-7.37l.96-.59.32-1.47c.43-.29.75-.69.96-1.18l.96-2.8,1.61-2.65,1.45-4.87c2.14-2.56,3.99-5.73,5.55-9.51,1.55-3.79,2.65-5.73,3.3-5.83l.32-3.1c2.15-4.23,3.23-6.64,3.23-7.23v-2.06l.65-1.47c1.93-2.46,2.96-4.92,3.06-7.37,1.72-2.16,2.58-3.69,2.58-4.57,0-.49.21-.98.65-1.47l2.1-2.36c1.93-5.41,3.42-9.17,4.44-11.28,1.02-2.11,1.53-3.81,1.53-5.09,0-.39.4-1.03,1.21-1.92.8-.89,1.26-1.52,1.37-1.92l1.29-.59c.53.59,1.55,1.18,3.05,1.77l1.61,2.36c.64,1.28,2.06,2.71,4.26,4.28,2.2,1.57,3.72,2.36,4.58,2.36l3.7-.88h1.93c.86.2,1.39.29,1.61.29.43,0,.64-.1.64-.29,1.07-1.38,1.88-2.07,2.41-2.07l2.57.59,2.89-.29c.43,0,.91.1,1.45.29l5.14-1.77c1.61-.98,2.73-1.47,3.38-1.47l1.29-.74c1.29-.98,2.25-1.47,2.9-1.47l3.38.59c.21,0,.32-.1.32-.29l4.99-1.77c1.71-1.57,3.11-2.36,4.18-2.36h.32l2.41.88c.21,0,.32-.1.32-.29,2.36-1.67,3.96-2.51,4.82-2.51h3.38c.86-.98,1.55-1.72,2.09-2.21.54-.49,1.2-1.3,2.01-2.43.8-1.13,1.31-1.7,1.53-1.7l2.89.29c1.82,0,6-3,12.54-9l1.61.29c.64-.39,1.55-.69,2.73-.88l1.93-3.69.64-.29h.96c.85.2,2.52-1.18,4.98-4.13l2.9.88c1.18,0,2.09-.66,2.73-1.99.64-1.33,2.36-2.88,5.14-4.65,2.79-1.77,4.37-3.12,4.75-4.06.37-.93,1.47-1.79,3.3-2.58,1.61,0,3.05-.76,4.34-2.29,1.29-1.52,1.93-2.78,1.93-3.76l-.48-1.62v-1.47ZM618.3,756.34c-.38,1.33-1.21,3.56-2.49,6.71l-8.85,21.38c-.54.98-1.07,1.72-1.61,2.21l-.32,1.18c-.86.98-1.77,2.26-2.73,3.83l-1.61,2.8c-4.93,7.37-7.67,11.21-8.2,11.5v-3.98c0-4.03.64-7.47,1.93-10.32l.32-2.65-.32-2.95c0-.2.72-1.11,2.17-2.73,1.45-1.62,2.17-3.56,2.17-5.83l-.64-2.65h1.61c.32,0,1.07-1.43,2.25-4.28,3.75-2.06,5.63-4.28,5.63-6.64v-2.06l2.73-5.16c.54-1.38,1.61-2.16,3.22-2.36l.64-.74c1.5-3.54,2.36-5.31,2.57-5.31l2.41-.29c.43,0,.96-.62,1.61-1.84.64-1.23,1.29-1.94,1.93-2.14-2.57,6.88-4.05,10.99-4.42,12.31ZM724.91,671.76l-.96,1.92c-.96,2.65-2.15,4.97-3.54,6.93l-5.63,7.52-5.31,5.46c-2.57,3.34-4.48,5.48-5.71,6.42-1.23.94-2.01,1.75-2.33,2.43-.32.69-.59,1.28-.8,1.77-.43-.2-.75-.29-.96-.29-.75,0-1.66.49-2.73,1.47-1.07.98-4.24,2.61-9.49,4.87-1.07-1.87-2.07-2.95-2.98-3.24-.91-.29-1.74-.59-2.49-.88-.75-.29-1.23-.44-1.45-.44-.32,0-1.99.29-4.99.88l-5.63.88c-.97.1-2.41.79-4.34,2.06-1.93,1.28-3.27,2.26-4.02,2.95-.75.69-1.34,1.03-1.77,1.03s-.64-.29-.64-.88l.96-3.54c.64-3.24,2.25-5.5,4.83-6.78h.48l-.8-2.95c.54-.2,1.07-.34,1.61-.44.54-.1,1.02-.34,1.45-.74l6.27-7.37c1.07-.69,2.04-1.67,2.9-2.95l4.02-1.47c1.07-1.28,2.14-2.21,3.22-2.8.75-2.16,1.55-3.24,2.41-3.24h2.25c1.61-2.06,2.87-3.37,3.78-3.91.91-.54,2.5-1.99,4.75-4.35l1.93.44,1.13-.74,1.93.29c1.5-1.38,2.87-2.11,4.1-2.21,1.23-.1,2.22-.49,2.98-1.18.75-.69,1.63-1.13,2.65-1.33,1.02-.2,1.79-.66,2.33-1.4.54-.74,1.13-1.11,1.77-1.11.86,0,1.93.44,3.22,1.33v.29l4.02-1.62c1.5,2.56,2.25,4.18,2.25,4.87,0,.2-.22.88-.64,2.07Z"/>
  </g>
</svg>