<?xml version="1.0" encoding="UTF-8"?>
<svg id="Layer_1" data-name="Layer 1" xmlns="http://www.w3.org/2000/svg" viewBox="0 0 1080 1080">
  <defs>
    <style>
      .cls-1 {
        fill: #fff;
        stroke-width: 0px;
      }

      .cls-2 {
        fill: #3e4863;
        stroke: #004d6b;
      }

      .cls-2, .cls-3 {
        stroke-miterlimit: 10;
      }

      .cls-3 {
        fill: #ce4a34;
        stroke: #c13d3a;
      }
    </style>
  </defs>
  <path class="cls-3" d="M999.57,540c0,144.26-66.46,273-170.45,357.25-4.4-12.54-9.68-24.91-16.21-36.81-31.35-57.14-92.08-90.07-147.87-119.03-5.95-3.09-12.09-6.14-18.74-6.98-1.47-.19-3.08-.31-4.16-1.33-.86-.82-1.19-2.04-1.48-3.19-2.75-10.96-5.41-21.83-5.41-33.22-.14-7.04.42-14.2,1.14-21.2,1.03-10.13.82-16.26,11.31-19.74,10.84-3.59,19.87-11.46,26.7-20.61,6.74-9.02,12.94-20.01,16.43-30.74,1.85-5.69,2.71-11.92,2.74-17.89.02-4.51-3.77-13.63-2.74-17.38,1.92-7.03-1-13.62.78-20.81,2.26-9.1,6.72-17.48,9.13-26.54,5.32-20,.27-42.26-13.36-57.86-1.89-2.17-3.76-3.94-5.4-5.51-1.06-1-2.33-2.21-2.99-2.99-.19-.66-.44-1.82-.64-2.71-.61-2.75-1.38-6.18-2.96-9.93-12.94-30.78-48.31-31.79-67.31-32.34-5.27-.15-9.95-.35-13.78-1.29-2.8-.68-6-1.93-9.39-3.25-2.05-.8-4.16-1.62-6.41-2.42-13.17-4.65-26.57-6.02-39.83-4.09-11.46,1.67-21.61,5.28-31.44,8.78-9.55,3.39-18.56,6.6-27.09,7.23-4.16.31-8.73.15-13.57-.02-6.59-.23-14.05-.49-21.82.43-18.11,2.17-31.44,9.01-39.61,20.35-10.21,14.17-5.89,29.14-3.56,37.19.61,2.12,1.31,4.52,1.4,5.67.25,3.29.06,7.13-.15,11.2-.35,6.98-.76,14.89.87,23.44.48,2.58,1.12,5.07,1.9,7.45-3.85,1.12-7.86,2.88-11.66,5.65-9.16,6.66-14.1,16.77-13.23,27.02.6,7.1,3.89,11.95,5.47,14.29.08.12.17.24.24.36.05.17.13.49.22,1.07l.29,1.75c1.55,9.56,3.84,23.68,17.42,33.5-.16,7.09.91,13.77,1.8,19.39l.27,1.69c2.12,13.55,5.57,26.98,10.24,39.91,4.89,13.52,11.44,26.73,20.96,37.62,4.06,4.64,8.64,8.82,13.73,12.32,3.9,2.68,8.3,5.4,11.27,9.3,1.24,1.63,3.51,4.4,1.83,5.79-1.81,1.5-6.99.99-9.2.99-2.9.46-5.77,1.13-8.52,2.18-10.74,4.1-19.43,12.05-30.2,16.23-8.19,3.18-16.96,4.5-25.66,5.71-13.09,1.82-26.25,3.45-39.02,6.85-22.39,5.96-39.29,18.88-55.79,34.67-5.18,4.96-10.34,9.94-15.5,14.93-6.79,6.55-13.8,13.32-20.72,19.9-15.55,14.78-28.55,26.52-40.73,36.78-85.56-83.46-138.69-200.02-138.69-329,0-253.81,205.75-459.57,459.57-459.57s459.57,205.76,459.57,459.57Z"/>
  <g>
    <path class="cls-1" d="M454.29,433.16h1.01l2.53.92c.33,0,.67-.15,1.01-.46,0-2.62,1.35-4.85,4.04-6.7.84-2.92,2.73-5.16,5.68-6.7,2.94-1.54,7.61-4.08,14.01-7.62l6.31-5.08,3.03-1.39,2.02-2.31c1.85-2,3.62-3,5.3-3,2.52,0,3.79.85,3.79,2.54l-2.27,4.62,1.01,7.62c0,2.77-1.05,5.24-3.15,7.39-2.1,2.16-5.34,5.31-9.71,9.47l-12.86,12.47-6.81,3.23c-1.68.92-3.19,2-4.54,3.23l-9.84,7.62c0,2.16-.76,3.77-2.27,4.85h-4.04l-2.01.92c-1.18,2.93-4.63,5.77-10.34,8.54l-3.53,2.31c-1.18.92-2.27,1.38-3.28,1.38l-7.06-.92-4.79.92c-1.35,0-3.16-.61-5.42-1.85-2.27-1.23-4.58-2.19-6.93-2.89s-5.34-3.54-8.95-8.54c-3.62-5-5.59-8.27-5.93-9.81,0-.61-.38-1.65-1.14-3.12-.76-1.46-1.13-2.34-1.13-2.66s.76-1.85,2.27-4.62v-.46c0-.46-.46-1.54-1.39-3.23-.92-1.69-1.38-3.77-1.38-6.23,0-1.39-.5-3.15-1.51-5.31,1.34-1.23,2.01-2.15,2.01-2.77s-.25-1.5-.76-2.66c-.5-1.15-.76-2.04-.76-2.66l1.51-11.31-1-5.77.5-5.54c0-3.23-1.51-4.85-4.52-4.85-1.34,0-3.01.85-5.02,2.54l-1.75.46c-4.52,2-7.7,3.66-9.54,4.96-1.84,1.31-3.77,1.96-5.77,1.96-1,.92-2.93,1.77-5.77,2.54l-2.01,1.39c-.67.62-2.01,1.54-4.01,2.77,0,.46-3.14,3.04-9.41,7.74-6.27,4.7-11.92,9.12-16.94,13.28s-8.66,6.43-10.91,6.81c-2.26.39-3.39,2.35-3.39,5.89,0,.62-1.51,1.85-4.52,3.69-.33,0-2.09,1.7-5.27,5.08-2.68-1.85-4.18-2.77-4.52-2.77-2.19,0-3.79,2.54-4.8,7.62-1.01,2-3.7,3.23-8.08,3.7-.34.15-.93,1.31-1.77,3.46l-1.01.92h-2.53c-.34,0-1.52.89-3.53,2.66-2.02,1.77-3.79,2.89-5.3,3.35-2.19,4.16-4.04,6.23-5.55,6.23-.68,0-1.64-.31-2.9-.92-1.26-.61-2.82-1.15-4.67-1.62s-3.9-2.34-6.17-5.66c-2.27-3.31-3.4-6.12-3.4-8.43,0-17.09,3.61-26.4,10.83-27.94l.5-.92v-1.85c0-2,.96-3.42,2.9-4.27,1.93-.84,3.9-2.54,5.92-5.08,2.01-2.54,3.36-3.96,4.03-4.27h3.27c.67,0,1.01-1.62,1.01-4.85,0-.92.42-1.77,1.26-2.54.84-.77,1.34-1.88,1.51-3.35.17-1.46,1.39-3.85,3.65-7.16,2.27-3.31,3.4-5.27,3.4-5.89l-.5-.92c-4.2,3.54-7.22,5.47-9.07,5.77-1.85.31-4.37,2.54-7.55,6.7l-4.03-.69c-7.06,4.77-11.43,7.47-13.11,8.08-1.68.62-3.54,2.39-5.56,5.31,0,.92-.59,1.54-1.77,1.85-1.18.31-3.37,1.54-6.56,3.7h-1.51c-4.21,0-6.31-2.77-6.31-8.31l5.28-13.16c1.51-4.16,5.07-7.66,10.69-10.51,5.62-2.85,10.36-5.58,14.22-8.2,3.86-2.62,7.72-4,11.58-4.16l1.76-2.31c5.7-2,9.56-5.16,11.57-9.47,2.01-4.31,4.78-6.47,8.31-6.47,9.22,0,16.27,3.12,21.13,9.35s7.29,11.2,7.29,14.89l.5,6.23c0,2.16-.5,5.16-1.51,9.01-2.01,2.77-3.02,4.85-3.02,6.23,0,1.23.84,1.85,2.52,1.85,1,0,2.35-.65,4.02-1.96,1.68-1.31,3.56-2.5,5.66-3.58,2.1-1.08,3.31-2,3.65-2.77,1.68-3.69,4.61-6.23,8.8-7.62,4.19-1.39,6.79-2.54,7.8-3.46l2.51-1.85,2.01-3.46c4.52-1.85,7.54-3.54,9.05-5.08,1.51-1.54,3.52-2.54,6.04-3,2.52-.46,5.37-1.85,8.56-4.16l3.77-.92,3.52-1.85c.33-.31,1.34-.69,3.02-1.15,1.68-.46,4.15-1.27,7.42-2.42,3.27-1.16,5.49-1.73,6.67-1.73,8.55,0,15.3,3.16,20.25,9.47,4.95,6.31,7.42,11.39,7.42,15.24l-.5,4.16,1.01,6.23v.92l-2.01,12.7.5,4.39c0,7.24-1.68,12.24-5.04,15.01-.84.31-1.26,1.08-1.26,2.31v2.08l5.04,9.7c1.51,3.39,2.69,5.08,3.53,5.08l8.08-2.08c2.35-.61,4.29-2.23,5.81-4.85,1.35-.61,3.7-2.46,7.07-5.54,1.01-2.46,2.61-3.69,4.8-3.69Z"/>
    <path class="cls-1" d="M573.63,269.92l3.53-.92,2.52-2.31h.5l2.27.92h.5c4.03,0,7.61-.73,10.74-2.19,3.13-1.46,5.75-2.5,7.87-3.12,2.12-.61,3.43-1.08,3.95-1.38.51-.31.93-.46,1.27-.46l4.07.46c1.34,0,3.14-2.19,5.41-6.58,2.26-4.39,4.82-7.58,7.67-9.58,2.85-2,5.71-5.77,8.56-11.31.67-.77,1.42-1.96,2.27-3.58.84-1.62,1.51-2.42,2.01-2.42,2.51,0,4.53-1.46,6.04-4.39,5.03-5.39,9.14-8.08,12.33-8.08,4.19,0,7.13,3.69,8.81,11.08l2.52,8.77c0,.16-.42,1.27-1.26,3.35-.84,2.08-1.22,4.16-1.13,6.23.08,2.08,0,3.46-.25,4.16s-.38,1.5-.38,2.42c0,1.23,1.42,1.85,4.28,1.85,1.01,0,2.85-.61,5.54-1.85l1.51-.46c1.68.92,3.1,1.38,4.28,1.38.33,0,2.73-.77,7.18-2.31,4.45-1.54,7.26-2.38,8.44-2.54,1.17-.15,3.19-.77,6.04-1.85h3.02l2.01.69c.67,0,2.05-.65,4.16-1.96,2.1-1.31,6.08-2.11,11.96-2.42l3.53-1.39h1.01c5.54,0,8.31,2.23,8.31,6.7,0,.92-.8,2.54-2.39,4.85-1.6,2.31-2.9,4.93-3.9,7.85l-11.58,13.39c-3.86,4.62-7.72,6.93-11.58,6.93-.67,0-2.77-2.08-6.29-6.23,0-.31-.34-.46-1.01-.46-1.68,0-3.44.31-5.29.92-1.85.62-3.36.92-4.53.92-.5,0-4.95,1.16-13.35,3.46l-6.04.92c-.67,0-2.27.31-4.78.92l-12.85,2.31c-4.37,2-7.81,5.77-10.33,11.31,0,.31-.84,1-2.52,2.08l-11.34,18.93c-3.7.92-6.14,2.93-7.31,6l-1.01,1.39c-1.85.31-3.53,1.27-5.04,2.89-1.51,1.62-2.94,2.89-4.29,3.81l-4.54,6.23c-1.85,2.16-3.7,4.5-5.55,7.04-1.85,2.54-3.19,5.23-4.04,8.08-.84,2.85-1.51,4.5-2.02,4.96-.5.46-.76,1.31-.76,2.54l-.76,1.85c-2.02,1.85-3.03,3.92-3.03,6.23l1.01,3.69c-2.36,7.39-3.53,11.31-3.53,11.78,0,.31.17,1.15.5,2.54v1.39c0,3.39-1.35,7.62-4.04,12.7l.51,3.69-1.51,10.39c0,1.38.5,3.92,1.51,7.62-.68.62-1.01,1.08-1.01,1.39,0,4.31,2.48,9.04,7.44,14.2,4.96,5.16,7.44,13.2,7.44,24.13,0,.92-.26,2.27-.76,4.04-.5,1.77-.84,3.69-1.01,5.77-.17,2.08-1.47,4.12-3.91,6.12-2.44,2-4.5,3-6.18,3-8.92,0-15.56-5.92-19.93-17.78-4.38-11.85-6.56-19.47-6.56-22.86l.51-9-1.52-4.62,1.52-20.32-1.01-4.85,5.8-19.86v-7.16c0-.31,1.18-1.54,3.53-3.69,0-.31-.34-.46-1.01-.46-1.01,0-2.36.92-4.04,2.77-1.68,1.85-3.79,3.62-6.31,5.31l-2.02,3.23c-.34-.31-1.01-.61-2.02-.92-.84.31-3.62,3.92-8.33,10.85-3.53.46-6.31,2.31-8.33,5.54-2.02,3.23-4.79,4.85-8.32,4.85l-1.01.46c-.67,4.47-3.03,6.7-7.06,6.7l-1.01.46c-2.53,5.23-5.13,7.77-7.82,7.62-1.68,4.62-5.8,7.78-12.36,9.47-1.01,1.85-2.48,3.23-4.41,4.16-1.93.92-3.32,1.77-4.16,2.54-.84.77-1.59,1.15-2.27,1.15-2.18,0-3.28-2.15-3.28-6.46,0-1.23.55-2.58,1.64-4.04,1.1-1.46,1.64-2.5,1.64-3.12,0-.31-.84-1.23-2.52-2.77,0-4.77,1.35-7.77,4.03-9,2.69-1.23,4.71-3,6.05-5.31.84-1.85,2.52-3.15,5.04-3.93,2.52-.77,3.79-1.77,3.79-3,0-1.08,2.18-3.23,6.56-6.47,4.37-3.23,7.56-6.04,9.58-8.43,2.01-2.38,3.7-3.58,5.04-3.58l1.01-.92c.33-3.85,1.93-5.77,4.79-5.77l2.52-1.39.51-1.85,1.51-.92h2.02l1.26-.92c.33-3.85,2.31-6.85,5.92-9,3.61-2.15,10.21-8.2,19.79-18.12,9.58-9.93,14.96-16.28,16.14-19.05,1.18-2.77,3.32-6.5,6.43-11.2,3.11-4.69,4.83-9.12,5.17-13.28-.34-.61-.84-1.23-1.51-1.85l-10.83,4.85c0-.46-1.68-1.15-5.04-2.08-2.52,1.39-4.37,2.77-5.54,4.16-1.18,1.39-2.1,2.08-2.77,2.08l-3.53-.46-11.08,1.16c-9.91.77-17.38,2.62-22.41,5.54l-10.32,2.77h-2.27c-1.35,0-3.36.77-6.04,2.31l-5.79-.46c-5.37,2.62-9.32,3.92-11.83,3.92-.33,0-1.34-.15-3.02-.46l-25.68,6.46c-2.01.62-6.55,3.77-13.6,9.47l-2.01.46c-1.68,0-3.65-1.73-5.92-5.2-2.27-3.46-3.4-6.58-3.4-9.35,0-15.24,14.27-24.09,42.81-26.55l10.32-3.69h.5l2.77.92h1.01c1.01,0,2.6-.58,4.78-1.73s7.05-2.58,14.6-4.27l10.32-2.54,3.27.46c1.68,0,3.56-.61,5.67-1.85,2.1-1.23,5.29-2.11,9.57-2.66,4.28-.54,7.26-1.11,8.94-1.73l4.03-.92c.67,0,2.05-.54,4.16-1.62,2.1-1.08,4.82-1.62,8.18-1.62.5,0,1.76.31,3.78.92Z"/>
    <path class="cls-1" d="M669.17,465.26l2.77-3.46c1.01-1.23,1.51-2.62,1.51-4.16l6.04-16.39c2.18-5.85,3.44-9.08,3.78-9.7l1.01-4.62,3.02-5.31,1.01-6c.67-4.46,3.1-11.08,7.3-19.86l.5-3.46,2.01-5.08v-.92c0-1.54-.5-2.31-1.51-2.31h-2.01c-3.02,0-4.7.62-5.04,1.85l-1.76,6.46c0,2.31-1.51,3.46-4.53,3.46-.34,0-1.22-.23-2.64-.69-1.43-.46-2.31-.69-2.64-.69-1.01,1.85-2.35,4.16-4.03,6.93-1.68.62-4.45,2.23-8.31,4.85l-2.51.46c-1.85,2.46-4.62,5-8.31,7.62l-1,1.38c-2.35,3.39-5.62,5.08-9.82,5.08-5.53,0-8.3-3.46-8.3-10.39,0-4.31,2.27-7.58,6.79-9.81,4.53-2.23,7.47-4.23,8.81-6,1.34-1.77,4.95-4.19,10.83-7.27l2.51-3.23c1.34-1.69,2.52-2.54,3.53-2.54l4.28-1.38c.67-.61,2.18-.92,4.53-.92l-.5-3.23c0-.92,2.1-1.92,6.29-3,1-.92,3.31-2.62,6.92-5.08,3.61-2.46,9.86-9.08,18.76-19.86.67-1.54,1.97-2.73,3.9-3.58,1.93-.84,3.57-1.88,4.91-3.12h5.03c1.34,0,4.36,2.08,9.06,6.23,4.7,4.16,7.05,9.47,7.05,15.93l-7.3,29.79.5,2.08-.5,1.85c0,.62.33.92,1.01.92s2.1-1.23,4.29-3.69c1.01-2.92,3.07-5.16,6.18-6.7,3.11-1.54,5.42-3.19,6.94-4.96,1.51-1.77,3.57-3.35,6.18-4.73,2.6-1.39,6.06-3.66,10.34-6.81,4.29-3.15,8.2-4.89,11.73-5.2l2.52-1.39,1.01-3.46c3.03-2.15,6.3-4.16,9.84-6l6.06-4.39c7.23-2.15,12.61-3.23,16.14-3.23,1.68,0,3.19-.61,4.54-1.85l5.8,2.31c.34,0,1.01-.46,2.02-1.38,0-.31.33-.46,1.01-.46,6.89,0,12.73,2.46,17.53,7.39,4.79,4.93,7.18,10.31,7.18,16.16,0,.31-.25,1-.76,2.08-.5,1.08-.76,2-.76,2.77l1.51,3.69v.46l-5.54,13.16c-.5,1.54-1.51,5.85-3.02,12.93-3.19,4.62-6.92,9-11.21,13.16-4.28,4.16-7.09,7.31-8.44,9.47.67.62,1.26.92,1.76.92,1.51,0,3.69-1.38,6.55-4.16l11.83-6.7,2.01.92c2.34-1.54,4.77-3.31,7.28-5.31,2.51-2,4.69-3.08,6.53-3.23,1-1.23,2.76-2.77,5.27-4.62l2.51-2.54c1,0,2.18-.54,3.51-1.62,1.34-1.08,2.89-1.77,4.65-2.08,1.75-.31,3.56-1.5,5.4-3.58,1.84-2.08,3.39-3.27,4.65-3.58,1.26-.31,2.05-.92,2.38-1.85,5.69-5.23,10.13-8.08,13.31-8.54l3.01-.92c.33-.31.67-.46,1-.46,1.84,0,3.26,1.62,4.27,4.85l-3.27,4.62v2.31l.76,2.54c0,1.54-1.01,3.5-3.02,5.89-2.01,2.39-4.28,3.58-6.79,3.58-2.86,1.23-4.58,2.58-5.16,4.04-.59,1.46-3.06,3.58-7.43,6.35-4.36,2.77-7.05,5.19-8.05,7.27-1.01,2.08-2.43,3.12-4.28,3.12l-4.53-1.38c-3.86,4.62-6.46,6.78-7.8,6.46h-1.51l-1.01.46-3.02,5.77c-1.85.31-3.27.77-4.28,1.39l-2.52-.46c-10.24,9.39-16.78,14.08-19.63,14.08l-4.53-.46c-.34,0-1.13.89-2.39,2.66-1.26,1.77-2.31,3.04-3.14,3.81-.84.77-1.93,1.93-3.27,3.46h-5.29c-1.35,0-3.86,1.31-7.55,3.92,0,.31-.17.46-.5.46l-3.78-1.39h-.5c-1.68,0-3.86,1.23-6.54,3.69l-7.81,2.77c0,.31-.17.46-.5.46l-5.28-.92c-1.01,0-2.52.77-4.53,2.31l-2.01,1.15c-1.01,0-2.77.77-5.29,2.31l-8.05,2.77c-.84-.31-1.6-.46-2.27-.46l-4.53.46-4.03-.92c-.84,0-2.1,1.08-3.78,3.23,0,.31-.34.46-1.01.46-.34,0-1.18-.15-2.52-.46h-3.02l-5.79,1.39c-1.35,0-3.74-1.23-7.18-3.69-3.44-2.46-5.66-4.69-6.67-6.7l-2.52-3.69c-2.35-.92-3.95-1.85-4.78-2.77l-2.01.92c-.17.62-.88,1.62-2.14,3-1.26,1.39-1.89,2.39-1.89,3,0,2-.8,4.66-2.4,7.97-1.6,3.31-3.92,9.2-6.94,17.66l-3.28,3.69c-.68.77-1.01,1.54-1.01,2.31,0,1.39-1.35,3.77-4.04,7.16-.17,3.85-1.77,7.7-4.8,11.54l-1.01,2.31v3.23c0,.92-1.68,4.69-5.05,11.31l-.5,4.85c-1.01.15-2.73,3.19-5.17,9.12-2.44,5.92-5.33,10.89-8.69,14.89l-2.27,7.62-2.52,4.16-1.51,4.39c-.34.77-.84,1.38-1.51,1.85l-.5,2.31-1.51.92c.33,2.31-1.26,6.16-4.78,11.54,0,.61-.84,1.69-2.52,3.23-1.68,1.54-3.61,3.81-5.79,6.81-2.18,3-5.37,5.73-9.57,8.2l-10.83,6.23c-8.06,0-13.6-3.92-16.62-11.78-.33-.92-1.97-3.46-4.91-7.62-2.93-4.16-4.41-10.31-4.41-18.47l2.27-9.47c1.51-8.47,3.19-13.78,5.04-15.93l3.02-6.23c.34-1.23.92-2.42,1.76-3.58.84-1.15,1.72-2.93,2.64-5.31.92-2.39,3.23-4.66,6.92-6.81,2.35-4.93,4.79-9.16,7.3-12.7l3.53-6.23c0-1.85,1.76-3.85,5.29-6,1.51-2.93,3.61-5.89,6.3-8.89,2.69-3,4.45-4.81,5.29-5.43.84-.62,1.6-2.58,2.27-5.89.67-3.31,2.14-5.35,4.41-6.12,2.27-.77,3.56-1.77,3.9-3l2.52-3.92c1.68-1.23,3.31-3.15,4.91-5.77,1.59-2.62,3.4-4.31,5.41-5.08,2.18-3.69,4.19-5.54,6.04-5.54ZM610.04,592.94c.84-.46,5.12-6.46,12.84-18.01l2.52-4.39c1.51-2.46,2.94-4.47,4.28-6l.5-1.85c.84-.77,1.68-1.93,2.52-3.46l13.85-33.48c2.01-4.93,3.31-8.43,3.9-10.51.59-2.08,2.9-8.51,6.92-19.28-1.01.31-2.01,1.42-3.02,3.35-1.01,1.92-1.85,2.89-2.52,2.89l-3.78.46c-.34,0-1.68,2.77-4.03,8.31l-1.01,1.15c-2.52.31-4.19,1.54-5.04,3.69l-4.28,8.08v3.23c0,3.69-2.93,7.16-8.81,10.39-1.84,4.46-3.02,6.7-3.53,6.7h-2.52l1.01,4.16c0,3.54-1.13,6.58-3.4,9.12-2.27,2.54-3.4,3.96-3.4,4.27l.5,4.62-.5,4.16c-2.01,4.46-3.02,9.85-3.02,16.16v6.23ZM731.24,438.7l8.81-1.38c4.7-.92,7.3-1.39,7.81-1.39.33,0,1.09.23,2.27.69,1.17.46,2.47.92,3.9,1.39,1.42.46,2.98,2.16,4.66,5.08,8.23-3.54,13.18-6.08,14.86-7.62,1.68-1.54,3.1-2.31,4.28-2.31.33,0,.84.16,1.51.46.33-.77.76-1.69,1.26-2.77.5-1.08,1.72-2.34,3.65-3.81,1.93-1.46,4.91-4.81,8.94-10.04l8.31-8.54,8.81-11.78c2.18-3.08,4.03-6.7,5.54-10.85l1.51-3c.67-1.85,1.01-2.92,1.01-3.23,0-1.08-1.18-3.62-3.53-7.62l-6.3,2.54v-.46c-2.01-1.39-3.69-2.08-5.04-2.08-1.01,0-1.93.58-2.77,1.73-.84,1.16-2.06,1.89-3.65,2.19-1.6.31-2.98,1-4.16,2.08-1.18,1.08-2.73,1.7-4.66,1.85-1.93.16-4.07,1.31-6.42,3.46l-3.02-.46-1.76,1.15-3.02-.69c-3.53,3.69-6,5.97-7.43,6.81-1.43.85-3.4,2.89-5.92,6.12h-3.53c-1.35,0-2.61,1.7-3.78,5.08-1.68.92-3.36,2.39-5.04,4.39l-6.3,2.31c-1.35,2-2.86,3.54-4.53,4.62l-9.82,11.54c-.67.62-1.43,1-2.27,1.16-.84.16-1.68.39-2.52.69l1.26,4.62h-.75c-4.03,2-6.55,5.54-7.55,10.62l-1.51,5.54c0,.92.33,1.38,1.01,1.38s1.59-.54,2.77-1.62c1.17-1.08,3.27-2.62,6.29-4.62,3.02-2,5.29-3.08,6.8-3.23Z"/>
  </g>
  <g>
    <path class="cls-2" d="M458.37,622.92c2.32.8,4.8,1.03,7.31.8,1.31-.12,4.45-.87,4.26-2.72-.2-1.86-3.5-1.89-4.73-1.77-.12.01-.2.02-.25.03-.13-.03-.42-.1-.59-.14.03,0-.15-.07-.35-.15-.56-.78-1.18-1.68-1.8-2.65.35.25.7.5,1.06.76.5.36,1.27.48,1.86.5.73.03,1.62-.09,2.29-.39.46-.21,1.12-.51,1.28-1.04.14-.46-.02-.84-.42-1.12-.7-.5-1.4-1-2.1-1.5-.5-.36-1.27-.48-1.86-.5-.73-.03-1.62.09-2.29.39-.36.16-.84.39-1.11.74-1.61-2.92-2.76-6.13-1.81-8.63.8-2.12,2.88-3.75,4.27-5.53,1.42-1.82,2.74-3.74,3.98-5.69,5.35-8.43,8.93-17.82,12.45-27.11,1.19-3.12-7.7-3.13-8.79-.28-3.98,10.49-8.01,21.26-14.7,30.39-2.18,2.97-6.67,6.2-6.66,10.25,0,4.15,2.63,8.83,5.08,12.47-.19.51-.07,1.04.65,1.5.21.13.43.25.65.37.46.59,1.31.91,2.32,1.04ZM464.94,619.26s0,0,0,0c-.05-.01-.1-.02-.17-.04.09.02.14.03.18.04Z"/>
    <path class="cls-2" d="M473.83,611.65c-.45.2-1.13.52-1.27,1.03-.27,1-.06,2.03.68,2.79,1.2,1.24,2.95,1.56,4.62,1.38.69-.07,1.48-.27,2.07-.66.32-.21.86-.68.77-1.15-.16-.8-1.07-1.1-1.93-1.18-.05-.05-.11-.1-.14-.15-.06-.08-.09-.18-.14-.26-.06-.22-.08-.44-.06-.67,0-.03,0-.06,0-.09.77-.31,1.32-.8,1.36-1.45.31.04.62.08.93.12.75.1,1.5.2,2.24.29l4.94.64c1.17.15,3.27.14,4.04-.97.73-1.04-.2-1.79-1.29-1.94-3.58-.47-7.27-1.25-10.87-1.34-2.4-.06-5.73.79-5.95,3.59Z"/>
    <path class="cls-2" d="M510.17,644.7c-1.19.03-2.28.51-3.47.66-1.34.16-2.7.1-4.02-.18-2.61-.57-4.93-1.99-7.12-3.46-2.02-1.36-4.23-2.65-6.35-3.87-3.06-1.75-6.79-3.45-10.39-3.45-2.18-.13-4.6.3-6.36,1.68-1.27,1-2.02.74-3.56.67-1.31-.06-2.63-.03-3.93.18-2.59.42-5,1.63-6.4,3.92-.53.88-1.09,1.83-1.16,2.88-.09,1.44.05,3.27,1.04,4.4.7.79,1.76,1.16,2.8,1.36,1.51.29,3.02.63,4.54.82,3.42.43,7.34.59,10.61-.67,1.62-.62,3.08-1.47,4.76-1.91,1.84-.49,3.67-.83,5.58-.91,1.67-.06,3.34.05,4.99.29,2.8.41,5.56,1.09,8.39,1.34,2.39.21,4.8.09,7.1-.45,1.83-.43,3.59-1.13,5.23-2.14-.32-.81-1.51-1.18-2.28-1.16ZM484.83,643.66c-1.57.16-3.13.43-4.67.81-2.33.58-4.43,1.53-6.59,2.19-2.07.64-4.19,1-6.61.51-.69-.14-1.39-.35-1.96-.76-1.74-1.25-1.17-4.14.05-5.57.19-.22.39-.44.65-.56.93-.42,2.7.51,3.74.61,1.55.14,3.12-.08,4.58-.63.72-.27,1.34-.66,1.92-1.16.38-.32.97-1.27,1.45-1.35.14-.02.27.02.4.06,3,.91,5.99,2.04,8.59,3.82,1.02.69,1.9,1.3,2.8,1.85-.8-.49-3.43.08-4.35.18Z"/>
    <path class="cls-2" d="M498.58,657.23c-6.93,1.99-13.92,4.05-21.11,4.87-3.09.35-8.59,1.32-11.05-1.11-2.22-2.2-1.82-5.43-.21-7.81,1.61-2.37-7.05-2.86-8.79-.28-1.95,2.88-2.08,6.71-.07,9.64,2.42,3.53,7.13,4.29,11.07,4.48,11.21.53,22.34-2.65,33-5.7,5.82-1.67,1.31-5.27-2.84-4.08Z"/>
    <path class="cls-2" d="M623.25,615.77c4.3,1.22,9.58.58,12.37-3.32,1.31-1.83,1.57-4.11,1.46-6.31-.05-1.01-1.18-6.46-1.05-8.48,2.55-.55,4.7-1.96,2.83-3.47-2.92-2.36-9.06-1.54-10.85,1.97-1.11,2.18-.72,4.91-.42,7.21.16,1.23.45,2.47.5,3.72.08,2.21-1.54,4.07,1.16,4.84-2-.57-4.57-.58-6.35.67-1.36.95-1.57,2.64.33,3.18Z"/>
    <path class="cls-2" d="M647.42,581.69c.57-1.26,1.33-2.35,2.39-3.26.31-.27.62-.47.91-.65.25.38,1.06.84,1.54,1.45.69.88,1.28,1.85,1.74,2.86,1.04,2.28,1.49,4.89,1.54,7.39.11,4.88-1.41,9.59-3.07,14.15-.26.24-.45.52-.55.83-1.55,4.99-3.93,9.53-7.04,13.73-2.16,2.93-8.14,11.67-11.14,5.48-1.28-2.63-10.08-1.08-8.54,2.1,3.51,7.22,14.2,5.9,19.76,2.17,6.79-4.55,12.13-13.19,14.99-21.02.19-.2.34-.42.43-.67,3.07-8.33,6.23-17.7,2.14-26.27-2.72-5.7-10.73-10.54-16.26-5.86-3.3,1.46-6.09,3.89-7.64,7.28-1.34,2.93,7.51,3.09,8.79.28Z"/>
    <path class="cls-2" d="M829.68,984.37c-7.43-36.89-15.21-74.72-33.51-108.02-9.4-17.11-21.7-32.09-36.43-44.88-15.49-13.46-32.89-24.59-50.2-35.53-20.39-12.88-41.28-24.98-63.13-35.24-1.22-.57-3.6-.25-5.34.48-3.69-1.17-7.39-2.33-11.08-3.5-.47-.15-.98-.25-1.5-.32-15.65-33.69-16.51-73.18-2.52-107.57.04-.1.07-.19.09-.29.34-.36.56-.76.6-1.24.45-5.82,9.26-3.73,13.27-4.44,4.1-.73,7.64-2.6,10.74-5.37,6.96-6.23,12.93-15.23,17.43-23.38,7.33-13.26,9.59-31.14-.96-42.8,2.66.02,5.64-1.11,5.18-2.79-5.49-20.45,11.81-38.53,11.37-58.86-.21-9.88-4.05-19.85-10.55-27.3-3.26-3.73-7.39-6.7-10.19-10.84-3.19-4.72-3.02-10.57-5.18-15.71-7.88-18.74-32.37-19.61-49.45-20.1-6.02-.17-12.08-.42-17.96-1.85-6.09-1.49-11.82-4.16-17.71-6.24-9.87-3.49-19.9-4.68-30.28-3.16-20.58,3-39.11,14.63-59.94,16.17-11.49.85-23.02-1.05-34.49.32-9.31,1.11-20,4.19-25.76,12.18-6.66,9.24.77,19.69,1.55,29.61.85,10.82-1.61,21.72.43,32.47,1.6,8.43,5.7,16.36,13.6,20.35,4.48,2.26,9.75,3.06,13.09,7.12,3.45,4.19,4.79,9.88,5.47,15.15,1.52,11.65-1.21,24.57-10.85,32.17-9.37,7.39-23.22,4.13-27.23-7.6-1.69-4.92-1.38-10.28-2.78-15.27-1.47-5.26-7.89-10.52-3.06-15.64,4.15-4.4,12.6-2.18,18.09-3.16,4.69-.83,9.36-2.65,12.17-6.69,2.38-3.41-6.35-3.8-7.99-1.45-3.37,4.84-8.79,4.03-14.05,4.21-4.89.16-10.04.86-14.1,3.81-2.86,2.08-5.38,5.44-5.07,9.16.21,2.51,1.82,4.16,3.06,6.23,1.48,2.47,2.21,5.06,2.68,7.88,1.57,9.43,2.4,18.05,11.38,23.45,2.9,1.74,6.08,2.89,9.36,3.48-4.59,8.88-2.4,20.18-.93,29.61,1.93,12.33,5.05,24.47,9.29,36.2,6.65,18.38,17.03,36.87,35.47,44.82,6.9,7.53,14.49,16.56,14.76,27.1.59,7.14-2.47,14.76-8.83,18.38-1.3.5-2.65,1.18-3.87,2.02-5.92-.78-11.97-.56-17.73,1.12-3.23.94-7.57,2.51-9.53,5.58-.43.31-.77.7-.96,1.18-.16.41-.28.81-.37,1.2-2.76-1.1-8.69.44-7.35,3.06.89,1.74-20.51,7.82-22.92,8.43-7.94,2.01-15.98,3.38-24.1,4.49-14.83,2.02-29.95,3.64-43.95,9.25-14.16,5.68-25.33,15.87-36.2,26.28-12.12,11.6-24.11,23.32-36.27,34.88-14.07,13.37-28.38,26.5-43.27,38.97-1.66,1.39.82,2.63,1.93,2.9,2.03.49,4.48-.13,6.06-1.45,26.86-22.49,51.74-47.16,77-71.41,12.09-11.6,24.13-23.2,40.43-28.48,15.23-4.94,31.47-5.59,47.15-8.35,9.26-1.63,18.37-3.93,27.31-6.86,2.72-.89,11.39-2.79,14.61-6.25,1.69,3.98,6.18,6.88,10.18,8.42,10.47,4.03,21.89,6.33,32.94,8.05,21.61,3.37,43.51,3.76,65.34,3.93.52.14,1.06.19,1.5.18,29.33-.57,57.9-8.35,83.34-23,.6-.35.91-.75,1.01-1.16,1.03-.9,2.06-1.8,3.08-2.7,18.31,8.75,35.93,18.84,53.16,29.55,17.05,10.6,34.18,21.39,49.83,34,15.18,12.22,28.21,26.5,38.26,43.24,9.65,16.07,16.57,33.59,21.98,51.49,6.07,20.09,10.31,40.67,14.45,61.22.64,3.18,9.58,2.02,8.98-.94ZM432.36,508.81c-.64-11.42,2.01-22.94-1.03-34.18-1.41-5.21-4.37-10.61-2.58-16.11,1.85-5.67,7.59-9.08,12.97-10.72,11.49-3.51,24.07-1.14,35.86-1.44,10.54-.26,20.57-2.6,30.56-5.87,10.46-3.43,20.7-7.76,31.52-9.97,11.89-2.42,22,0,33.13,4.27,11.08,4.25,21.73,6.17,33.58,6.51,10.81.31,22.05.18,31.76,5.67,4.47,2.53,8.36,6.12,10.58,10.82,2.58,5.46,2.23,11.7,5.68,16.85,3.04,4.54,7.7,7.74,11.13,11.95,3.87,4.76,6.63,10.37,8.05,16.34,2.93,12.32-.99,23.66-5.33,35.08-3.74,9.83-7.48,20.1-5.34,30.64-.37-.14-.82-.22-1.3-.26-.22-.29-.58-.57-1.14-.85-16.74-8.42-38.09-.19-43.84,16.42-.83-2.29-1.47-4.48-1.93-5.87-1.82-5.49-3.11-11.14-4.39-16.77-2.24-9.91-4.46-19.88-8.82-29.11-4.42-9.36-10.79-17.82-18.58-24.63-8.43-7.38-17.67-9.13-28.62-8.89-9.03.2-21.36.25-24.17-10.62-2.11-8.14.26-17.66-9.46-21.38-7.92-3.03-16.99-.28-24.49,2.68-8.64,3.41-16.86,7.99-24.32,13.51-15.09,11.18-27.18,26.04-34.81,43.15-3.1-5.07-4.35-11.48-4.67-17.21ZM495.48,736.19c-.21-8.24-4.67-15.65-9.91-22.15,36.92.1,73.6-6.93,107.88-20.74,1.58-.64,2.6-1.86,1.29-3.24-1.3-1.37-4.76-.75-6.23-.16-33.23,13.39-68.78,20.02-104.58,19.51,0-.59-.4-1.14-1.38-1.44-1.14-.35-2.25-.75-3.33-1.19-.07-.07-.14-.15-.21-.23-.51-.55-1.39-.84-2.41-.93-17.21-8.3-26.5-27.09-32.49-44.64-3.66-10.71-6.38-21.74-8.14-32.92-1.43-9.07-3.62-19.86.75-28.39,2.2-.25,4.38-.73,6.48-1.45,18.53-6.29,25.37-26.71,21.38-44.57,6.26-4.51,13.29-7.49,20.88-8.35-2.37,4.7-3.53,10.1-3.39,15.49.34,13.05,8.65,24.72,21.03,29.07,11.72,4.13,25.54,1.05,34.24-7.9,4.24-4.36,6.56-9.65,7.34-15.64.51-3.92.73-7.71,3.43-10.83,2.17-2.52,5.15-4.58,5.63-8.14.93-6.96-9.72-9.98-14.88-11.12-7.64-1.7-15.55-1.07-23.21-2.8-3.26-.74-9.87,3.06-4.13,4.35,6.43,1.45,12.88,1.4,19.38,2.16,3.5.41,6.93,1.32,10.06,2.97,2.32,1.22,4.62,2.77,3.57,5.8-.54,1.55-1.86,2.7-2.96,3.85-2.23,2.33-4,4.41-4.82,7.59-.85,3.25-.74,6.68-1.55,9.94-1.54,6.17-5.75,11.54-11.31,14.61-12.16,6.71-26.05-2.54-30.8-14.21-4.63-11.38-1.84-29.62,11.06-34.34,1.62-.59,2.57-1.89,1.29-3.24-1.33-1.4-4.73-.71-6.23-.16-4.42,1.62-8.01,4.37-10.75,7.82-9.05.54-17.74,2.93-25.57,7.37-1.12-2.92-2.64-5.66-4.9-7.88-3.98-3.92-9.28-4.69-14.02-7.27-.22-.12-.43-.27-.65-.4,6.18-16.59,16.47-31.31,29.93-42.82,6.86-5.87,14.58-10.88,22.79-14.65,6.4-2.94,18.79-9.3,22.98-.07,1.79,3.94,1.12,8.64,1.87,12.81.68,3.82,2.33,7.12,5.3,9.67,5.96,5.11,14.5,6.08,22.04,6.02,5.06-.04,10.33-.64,15.32.5,5.79,1.32,10.59,5.35,14.69,9.46,6.78,6.79,12.25,14.93,15.98,23.77,4.43,10.51,6.18,21.89,8.94,32.89,1.32,5.27,2.87,10.49,4.97,15.51,1.86,4.45,3.81,9.67,8.63,11.47,1.69.63,7.76.55,7.5-2.39-1.47-16.8,13.9-31.37,30.22-23.17.32.16.72.26,1.17.3.1.12.23.25.39.38,15.63,12.16,9.16,34.28,0,48.16-2.75,4.16-5.81,8.17-8.96,12.03-3.45,4.23-6.45,7.32-12.17,7.44-6.45.14-16.16,1.1-17.15,9.08-.25.23-.45.48-.56.76-14.21,34.93-13.26,74.7,2.33,108.97-23.83,8.95-48.68,14.61-74.07,16.72-12.62,1.05-25.62,1.73-38.24.34-6.13-.68-12.21-1.98-17.92-4.35-4.57-1.9-16.7-8.66-6.38-12.4.36-.13.67-.3.94-.49,7.96-4.15,12.36-13.31,11.63-22.12ZM470.39,779.38c-5.42-1.54-18.37-4.46-16.35-12.64.28-.26.5-.56.63-.92,1.71-4.7,10.48-4.46,15.42-3.85-.51,1.56-.36,3.3.91,5.17,3.38,4.99,11.16,7.74,16.58,9.49,14.41,4.66,29.9,4.49,44.87,3.89,31.63-1.26,62.7-7.57,92.3-18.74,3.24,1.02,6.48,2.05,9.72,3.07-1.12.98-2.24,1.96-3.36,2.94-21.6,12.21-45.87,19.23-70.66,20.19-.26-.03-.5-.05-.72-.05-20.03-.14-40.15-.24-60.05-2.77-9.87-1.25-19.7-3.07-29.28-5.78Z"/>
    <path class="cls-2" d="M504.09,540.22c-6.25,1.13-11.03,6.28-12.44,12.63-1.39,6.25,1.23,12.79,8.54,11.81,2.72-.36,5.22-1.71,6.64-4.1,1.89-3.2-.55-9.18,2.47-10.62,2.38-1.14,4.87-1.5,4.92-4.88.05-3.53-3.01-5.46-6.02-6.22-1.35-.34-3.53.48-4.1,1.39ZM506.89,547.2c-.88.57-2.32.43-3.27,1.05-2.71,1.76-1.71,4.56-1.6,7.25.08,1.96-.76,6.8-3.69,4.91-1.17-.76-1.16-3.86-1.09-5.09.19-3.72,3.15-12.23,8.01-12.27.63,0,1.25-.17,1.78-.41,1.31,1.29,1.54,3.5-.13,4.57Z"/>
    <path class="cls-2" d="M506.55,572.1c-.19.38-.37.71-.63,1.03-.17.21-.55.44-.73.67-.22-.14-.48-.31-.44-.27-.47-.43-.79-1.08-.78-1.72,0-.36.1-.75.3-1.06.04-.06.07-.08.1-.13,1.08-.02,2.28-.31,2.88-1.06.86-1.06-.32-1.74-1.29-1.94-2.45-.49-5.43.13-7.05,2.17-1.45,1.83-1.06,4.15.66,5.64,3.98,3.41,10.65,1.27,12.83-3.14.93-1.89-4.94-2.04-5.86-.19ZM504.42,570.56c.37-.43.51-.14,0,0h0ZM503.81,570.61s.05,0,.08,0c-.03,0-.05,0-.08,0Z"/>
    <path class="cls-2" d="M417.62,573.15c3.2,4.25,8.67.06,10.41-3.22,3.19-6.02,1.13-12.79-2.01-18.33-.36-.64-1.4-.89-2.49-.84-3.43-1.28-8.55-.44-9.2,3.59-.51,3.14,2.62,5.85,2.8,9.1.16,2.98-1.51,7.04.5,9.71ZM422.68,569.28c-.08-2.66.42-6.56.36-7.13-.12-1.21-.43-2.33-.9-3.45-.21-.5-1.99-5.01-1.92-4.95.17.14.4.23.66.3,2.16,4.25,4.07,10.74,1.79,15.23Z"/>
    <path class="cls-2" d="M423.2,585.5c2.79.49,6.45-.31,7.95-2.95,1.23-2.17.49-4.87-1.44-6.32-.66-.5-1.64-.61-2.56-.51-.78-.83-2.73-.62-3.6-.43-2.65.56-5.08,2.54-5.2,5.4-.12,2.75,2.45,4.39,4.86,4.81ZM424.83,578.6s.05-.06.07-.09c.71.7.98,1.77.82,2.74-.02.13-.3.62-.48.97-.52-.45-.9-.98-.93-1.83-.02-.62.17-1.27.52-1.79ZM425.09,582.55s-.01.03,0,.04c.05.23-.08-.07,0-.04Z"/>
  </g>
</svg>