<?xml version="1.0" encoding="utf-8"?>
<!-- Generator: Adobe Illustrator 26.5.0, SVG Export Plug-In . SVG Version: 6.00 Build 0)  -->
<svg version="1.1" id="Layer_1" xmlns="http://www.w3.org/2000/svg" xmlns:xlink="http://www.w3.org/1999/xlink" x="0px" y="0px"
	 viewBox="0 0 1080 1080" style="enable-background:new 0 0 1080 1080;" xml:space="preserve">
<style type="text/css">
	.st0{fill:#E0E06C;}
	.st1{fill:none;}
	.st2{fill:none;stroke:#000000;stroke-miterlimit:10;}
	.st3{fill:#D15454;stroke:#E0E06C;stroke-miterlimit:10;}
	.st4{fill:#E74100;}
	.st5{font-family:'Centaur';}
	.st6{font-size:100px;}
	.st7{fill:#0040D0;}
</style>
<path class="st0" d="M580.1,366.6c-2.6-1.6-5.4-2.5-8.4-3.3c-0.7-0.5-1.5-0.8-2.5-0.9c-0.5,0-1-0.1-1.5-0.1
	c-0.3-0.1-0.6-0.2-0.9-0.2c-5.9-1.6-11.7-3.7-17.7-5.1c-9.7-2.3-20.2-2.8-29.2,2c-8.6,4.6-14.4,13.7-16.4,23c-0.2,1-0.5,2.2-0.7,3.4
	c-0.5,0.7-0.8,1.7-0.8,2.8c0.1,11.3,2.2,22.4,6.5,32.8c4.3,10.2,10.5,15.7,21.5,17.6c9.8,1.7,21.4,4.5,31.1,1.1
	c8.8-3.1,15.8-9.6,20.4-17.6c5.2-9.1,7.6-20,8.5-30.3C590.9,382.5,588.5,372,580.1,366.6z M564.4,398.8c-0.3,0.4-0.6,0.8-0.9,1.1
	c0.3-0.9,0.7-1.8,1.1-2.7C564.6,397.7,564.6,398.3,564.4,398.8z"/>
<path class="st0" d="M467.9,395.8c-0.6-9.2-3.5-23.2-13.6-26.1c-10.8-3.1-23.2-2.4-34.1-0.3c-10.2,2-21.8,6-29.9,12.7
	c-2.4,2-3.9,4.2-4.8,6.8c-4.6-4-11.3,2.8-6.8,7.3c4.6,4.6,6.5,9.1,6.8,15.6c0.3,6.1,0.3,12.1,1.4,18.1c2.1,11.3,10,18,20.6,21.8
	c9.4,3.4,21.4,1.1,30.6-2.4c9.4-3.6,17.9-9.8,22.4-19C465.3,420.3,468.6,407,467.9,395.8z"/>
<path class="st1" d="M482.7,700.1c4.4-4.4,8.8-9.1,10.5-15.1c1-3.6,1-7.3,1-11c-0.1-10.7-0.2-21.3-0.2-32
	c-0.1-7.1-0.4-14.9-5.1-20.2c-4.1-4.6-10.6-6.1-15.8-9.5c-3.2-2.1-5.9-5-8.4-7.8c-10.4-11.8-19.4-25-26.6-39"/>
<path class="st1" d="M436.9,564.6c-2.4-4.2-4.3-8.7-6.3-13.1c-2.1-4.7-4.2-9.5-5-14.6c-0.6-4.1-0.4-8.2-0.6-12.3
	c-0.8-15.8-8.4-31-7.3-46.8c0.4-5.8,1.9-11.6,1.6-17.4c-0.1-1.5-0.4-3.3-1.7-4.1"/>
<path class="st1" d="M416.2,448.4c-6.4,0.9-12.1-3.6-16.8-7.9c-4.8-4.4-9.7-9-12.5-14.9c-2.5-5.5-2.9-11.8-2.9-17.8s0.5-12,1.7-17.8
	c1.3-6.3,3.8-12.8,9.1-16.3c4.3-2.8,9.7-3.1,14.8-3.3c11.3-0.5,22.6-1.1,33.9-1.6c2.5-0.1,5-0.2,7.4,0.4c2,0.5,3.8,1.5,5.5,2.6
	c11.7,7.7,16.8,24.2,11.4,37.2c-3.7,8.9-11.3,15.6-15.8,24c-1.3,2.4-2.3,5-4.3,6.7c-1.6,1.4-3.7,2.2-5.8,3
	c-10.2,3.6-20.7,6.4-31.3,8.5"/>
<path class="st1" d="M416.9,460.9c-4.6,13-3.1,27.3-0.3,40.8c7.6,36.7,24,71.6,47.6,100.8c4.7,5.8,9.9,11.6,16.9,14.2"/>
<path class="st1" d="M620.4,535.3c0.2-0.5-0.6-0.8-1.1-0.8c-22.9-0.1-50.7,3.5-51,2.7c-0.4-1,58.4-14.3,60.3-33.2
	c2.1-21-67.2-39.5-166.3-81.8c-70.1-29.9-130.4-68.2-133-63.8c-3.7,6.1,118.6,67.9,108.4,119.7c-4.8,24.4-35,26.1-38.3,47.3
	c-8.3,53.7,168.4,141.5,189.8,115c9-11.1-4.5-48.7-116.2-170.2"/>
<path class="st2" d="M584,522"/>
<path class="st2" d="M474,697.2c2.3,1.4,5.2,0.1,7.5-1.2c1.7-0.9,3.3-1.9,5-2.8c0.9-0.5,1.9-1.1,2.7-1.8c3.5-3.1,3.4-8.6,3.1-13.3
	c-1-15.1-1.3-30.3-0.8-45.5c0.1-3.4,0.2-7.2-2-9.8c-1.2-1.5-4-2.6-5.5-3.9c-6.1-5.3-12.3-10.7-18.4-16c-2.2-1.9-4.3-3.8-6.3-5.8
	c-1.6-1.7-3.2-3.4-4.7-5.2c-10.7-12.7-21.1-26.5-24.7-42.7c-1.2-5.2-5.2-9.9-6.1-15.2c-0.9-5.2-1-10.6-1.3-15.9
	c-0.6-10.5-1.9-21-4.1-31.2c-0.6-3.1-1.4-6.1-1.8-9.2c-1.2-8.5-0.4-17.1,0.5-25.7"/>
<path class="st2" d="M376.4,389.9c1.3,2.8,3,5.5,5,7.9c1,1.2,2.1,2.3,2.8,3.7c0.7,1.4,0.9,3,1.1,4.5c1.3,9.4,3.5,18.7,6.3,27.8
	c0.5,1.6,1.1,3.2,2,4.6c0.9,1.3,2.2,2.3,3.4,3.3c5.8,4.6,12.7,9.5,20,9.2c6.9-0.3,13.9-0.9,20.6-2.8s13.1-5.2,17.8-10.3
	c5-5.5,7.7-12.9,9.2-20.2c1.5-7.4,1.9-14.9,3-22.3c0.6-4.1,1.5-8.4,0.3-12.5c-1.1-3.7-3.7-6.8-6.9-9s-6.8-3.6-10.5-4.8
	c-15.3-5.1-26.1-3.6-31.4-21.8c-2.5-8.6-5-17.2-7.5-25.8c-1.7-5.8-3.4-11.7-3.4-17.7c0-8.4,3.1-16.4,5-24.6c1.8-8.2,2.1-17.5-3-24.2
	c-2.7-3.5-6.7-6.1-8.2-10.2c-1.9-5.2,1-11.2,5.5-14.5s10.1-4.5,15.6-5.5c39.7-7,81.5-6.6,118.1-23.6c11.3-5.3,22-12.1,34.1-15.2
	c16.5-4.2,33.9-0.8,50.6,2.7c27.5,5.6,54.9,11.2,82.4,16.8c17.1,3.5,34.6,7.1,49.9,15.6c15.3,8.5,28.4,22.8,31,40
	c0.7,4.9,0.6,9.9,1.9,14.7c1.5,5.8,4.9,10.8,7.3,16.3c8.2,18.8,4.1,40.3-0.3,60.3c-2.3,10.5-4.7,21.2-10.5,30.2
	c-3.9,6-9.1,11.1-13,17.2c-3.9,6-6.4,13.7-3.9,20.4"/>
<path class="st2" d="M771.1,421.5c2.1,3.5,4.2,7.1,4.9,11.2c0.5,3.1,0.1,6.3-0.4,9.5c-1.5,10-3.6,20-8,29
	c-2.5,5.2-5.8,10.1-8.3,15.4c-2,4.1-3.5,8.5-6,12.3s-5.9,7.3-10.4,8.5c-1.1,0.3-2.4,0.5-3.2,1.4c-0.6,0.7-0.7,1.6-1.2,2.3
	c-0.8,1.2-2.3,1.8-3.8,2.1c-6.1,1.6-12.5,2.1-18.9,1.6"/>
<path class="st2" d="M714,517.7c-5.8,9.7-10.6,20-14.1,30.7c-2.2,6.8-3.9,13.7-5.5,20.6c-1.9,7.9-3.8,15.8-4.4,23.9
	c-1,12,0.8,24.1,3.6,35.8"/>
<path class="st2" d="M695,630.1c-0.9,8.6,1.4,17.3,3.8,25.6c1.1,4,2.3,8,3.5,11.9c0.6,1.8,1.1,3.7,1.8,5.4c0.7,1.8,1.5,3.5,2.3,5.2
	c1.6,3.4,3.3,6.8,4.9,10.2c1.2,2.6,2.5,5.1,4.2,7.4c22.7,6.9,48.6,15.9,63.2,34.6c3.4,4.4,6.2,9.2,10.2,13
	c5.6,5.4,13.1,8.4,20.4,11.2c23.9,9.2,47.8,18.4,71.7,27.6c24.7,9.5,51.4,20.7,63.9,44c5.1,9.4,7.3,20.1,12,29.8
	c6.5,13.3,17.3,23.9,25.1,36.4c10.5,16.8,15.3,36.5,19.9,55.8c6.8,28.3,13.6,56.9,12.8,86"/>
<path class="st2" d="M73.9,1037.4c5.2-20.6,21.1-36.8,28.9-56.6c3.4-8.6,5.2-17.9,8.9-26.4c5.3-12.7,14.4-23.3,21.7-34.9
	c12.9-20.4,20.6-43.6,30.9-65.4s23.9-43.3,44.6-55.7c9.2-5.5,19.5-9,29.2-13.7c22.5-11.2,41.1-29.4,64.2-39.2
	c35.4-15.1,76.5-8.9,113.2-20.3c20-6.2,38-17.5,55.7-28.6c23.6,4.2,51.1,2.8,75,3.2c29.6,0.5,59.2,1,88.8,1.5
	c23.7,0.4,47.5,0.8,70.8-3.3"/>
<path class="st2" d="M429.9,727c22.7,9.2,46.7,17.2,71.2,15.8c7.7-0.4,15.4-1.8,23.1-1.9c7.8-0.1,15.6,1.2,23.4,2.2
	c35.5,4.5,71.4,2.3,107.1,0.1c37.1-2.4,74.1-4.9,111.2-7.5"/>
<path class="st2" d="M772.5,1023.8c1.7-13.6,3.5-27.2,5.2-40.8c1.3-10.1,2.7-20.5,8.2-29c5.8-9,15.3-14.7,24.5-20.2
	c24.2-14.3,48.5-28.5,72.7-42.8"/>
<path class="st2" d="M225.8,950.3c-13.3,17.1-15.4,40.1-17.1,61.8c-0.7,9.7-1.5,19.4-2.2,29.1"/>
<path class="st1" d="M493.8,624.3c16.6,1.3,33.1,2.6,49.7,3.9c6.1,0.5,12.1,0.9,18.2,0.6c9.8-0.5,19.3-3.1,28.8-5.7
	c16.6-4.5,33.2-9.1,48.7-16.4c18.7-8.9,35.2-21.6,51.6-34.1"/>
<path class="st1" d="M458,535.9c-0.5,7.4,5.4,14,12.4,16.4c7,2.3,14.7,1.1,21.7-1.1s13.7-5.5,20.9-7.3c3.1-0.8,6.3-1.3,9.4-2.2
	c7-2,13.3-5.9,19.5-9.7"/>
<path class="st3" d="M458.9,537.7c-0.6,3.6,1,7.3,3.6,9.8s6.2,3.8,9.9,4.2c1.3,0.1,2.6,0.2,3.9-0.2c1-0.3,2-0.9,3-1.3
	c1.5-0.5,3-0.5,4.6-0.4c7,0.1,14,0.3,21.1,0.4c2.1,0,4.2,0.1,6.2-0.5c1.5-0.4,3-1.2,4.4-1.9c3.5-1.8,7-3.7,10.5-5.5
	c4.7-2.4,10.2-6.4,12.1-11.4c-11.4-9.5-24-17.7-37.2-24.3c-3.8-1.9-7.7-3.7-11.9-4.1c-5-0.5-10.3,1-14.2,4.2
	c-0.2-1.3-1.4-2.3-2.7-2.6c-1.3-0.3-2.6-0.1-3.9,0.3c-2.2,0.6-4.3,1.6-6.1,3.1c-3.6,3-5.5,7.7-6,12.4s0.2,9.4,0.9,14
	c3.9-0.7,9-0.3,11.3-3.4c0.9-1.2,1.5-2.7,2.6-3.7c2.4-2.2,6.1-1.3,9.3-1.1c5.2,0.4,10.4-1.1,15.6-1.3c4.9-0.2,9.8,0.6,14.6,1.5
	c8,1.5,16.1,3,24.1,4.6"/>
<path class="st2" d="M489.4,465.7c1.5-0.5,3.1-0.2,4.7-0.3c3-0.2,5.8-1.8,8.6-2.8c0.4-0.1,0.8-0.3,1.2-0.2c0.4,0.1,0.7,0.4,1,0.6
	c3.6,3.4,5.5,8.5,5.1,13.4c0,0.5-0.1,1.1-0.4,1.6c-0.5,0.9-1.7,1.3-2.8,1.5c-5.1,1-14.8,2-19.2-1.6
	C484.1,474.9,484.5,467.2,489.4,465.7z"/>
<path class="st2" d="M473.7,478.7c0.3-2.6-1.1-5.2-3-6.9c-1.9-1.8-4.4-2.9-6.7-3.9c-0.9-0.4-1.8-0.8-2.8-0.7
	c-1.3,0.1-2.5,1.2-2.7,2.5c-0.3,1.3,0.3,2.7,1.3,3.5c0.5,0.4,1.1,0.7,1.6,1c1.6,0.9,2.9,2.1,4.1,3.4c1,1.2,1.5,3.8,2.5,4.8
	C470.3,484.5,473.4,481.5,473.7,478.7z"/>
<path class="st2" d="M462.1,486c-4.1-6-7-12.8-8.5-19.9c-0.5-2.4-0.8-4.9,0.1-7.1c0.6-1.4,1.5-2.6,2.5-3.7c4-4.9,7.7-10,11.1-15.3
	c4-6.2,7.6-12.6,10-19.5c2.7-7.6,4-15.7,7.7-22.9"/>
<path class="st2" d="M512.6,482.5c2.5-1.2,5.3-1.8,7.8-3.2c5.7-3.1,8.8-10.3,7.1-16.5c-1.2-4.4-4.4-8-8.2-10.6s-8.1-4.1-12.5-5.5
	c-1.3-0.4-2.7-0.9-3.4-2.1c-0.6-1-0.5-2.2-0.4-3.4c0.7-6.4,1.7-12.8,3.2-19"/>
<path class="st1" d="M429.4,355.8c4-17.4,15.5-32,26.6-46c9.3-11.7,19-23.7,32.1-30.9c11.3-6.1,24.3-8.2,37.1-10.1
	c4-0.6,8.1-1.2,12.2-0.7c6.8,0.9,12.8,5,18.6,8.8c37.4,24.1,81.7,37.8,114.8,67.5c1.7,1.6,3.5,3.2,4.6,5.2c1.5,2.6,2,5.7,2.5,8.7
	c1.3,8.8,2.7,17.5,4,26.3c3.4,22.5,6.9,45.1,12.7,67.1c3.7-9.1,7.3-18.2,11-27.3c1-2.6,2.1-5.2,3.8-7.3c3.6-4.5,9.6-6.2,15.3-7.2
	c8.3-1.5,17-1.9,25.2,0.3c8.2,2.3,15.8,7.5,19.4,15.2"/>
<path class="st2" d="M722.3,483.4c0.4-0.3,0.9-0.3,1.3-0.3c3.4,0,6.7,0.1,10.1,0.1c1.1,0,2.2,0,3.1-0.4c0.8-0.4,1.4-1.1,2-1.8
	c4.6-5.5,7.2-12.5,7.5-19.7c0.1-1.4,0-2.9-0.4-4.2c-1.2-3.5-4.8-5.4-8.2-6.7c-3.4-1.3-7.1-2.6-9.3-5.5c-0.3-0.4-0.6-0.8-1-1
	c-0.2-0.1-0.5-0.1-0.7,0c-7.7,1.2-2.8,12.1-2.4,16.2c0.6,5.5-1.7,8.7-6,11.6c-3.7,2.5-7.1,4.2-8.1,8.9c-0.9,4.1,0.5,6.1,4.7,6.8
	C720.4,488.4,719.2,485.9,722.3,483.4z"/>
<path class="st2" d="M731.2,433.6c3.5-3.5,5.5-8.1,8.5-12s7.7-7.2,12.5-6.2c2.8,0.6,5,2.5,7.1,4.4c4.9,4.4,10.3,9.6,10.3,16.1
	c0,4.6-2.6,8.8-3.4,13.4c-1,5.9,1,12.7-2.7,17.4"/>
<path class="st2" d="M750,432.2c3.1,1.6,4.6,5.1,5.7,8.4c2.3,7.1,3.6,14.5,4,21.9"/>
<path class="st2" d="M711.5,414.3c6.1-1.1,12.3-2.1,18.4-3.2c0.8-0.1,1.5-0.3,2.3-0.4c2.6-0.5,5.3-0.9,7.9-1.4
	c3.5-0.6,7.1-1.2,10.6-1.7c1.7-0.2,3.4-0.4,5.1-0.3c5.4,0.3,10.6,3.8,12.1,9"/>
<path class="st2" d="M707.7,414.9c-3.1,12.5-6.1,25.1-9,37.7c-5.3-14-8.8-28.7-10.3-43.6c-1.6-16-1.1-32.9-8.6-47.1
	c-8.6-16.3-25.8-25.8-42.1-34.3c-7.5-3.9-15-7.9-22.5-11.8c-4.3-2.3-8.9-4.6-13.7-4.3c-3,0.2-5.8,1.3-8.7,1.9
	c-9.5,2-19.5-2-26.5-8.7c-7-6.6-11.4-15.6-14.6-24.7c-2.6-7.4-5.6-16.3-13.1-18.5c-2.8-0.8-5.8-0.6-8.7-0.1
	c-11.5,2.1-21.8,8-31.9,13.8c-13.6,7.9-27.4,15.9-38.3,27.2c-9,9.4-15.7,20.7-22.3,31.9c-4.9,8.3-9.8,16.9-10.7,26.5"/>
<path class="st2" d="M509.6,422.1c1.5,7.4,7.3,13.7,14.6,15.7c3.6,1,7.5,1,11.2,1.7c3.5,0.7,6.9,2.1,10.5,2.5
	c4.7,0.6,9.5-0.5,13.9-2.3c10.5-4.3,19.3-12.7,24-23.1s5.2-22.5,1.5-33.3c-0.8-2.2-1.7-4.7-0.4-6.7c0.6-1,1.7-1.6,2.3-2.7
	c1.5-2.8-1.6-5.8-4.4-7.3c-9-4.7-19-6.9-29-9c-3.5-0.7-7-1.5-10.6-1.8c-4.9-0.4-10,0-14.8,1.3c-9.5,2.5-18.1,8.8-23.1,17.2
	c-1.2,2-1.8,4.4-2.9,6.4c-1.8,3.3-1.5,2.8-5.9,2.3c-6.7-0.8-13.5-1.4-20.2-1.8c-3.1-0.2-6.7-0.2-9,2"/>
<path class="st2" d="M592.6,369.8c6.7-0.1,13.3-0.3,20-0.4c3.2-0.1,6.4-0.1,9.5,0.6c3.7,0.9,7,2.9,10.5,4.5
	c16.4,7.8,35.5,6.8,53.2,10.6c17.4,3.7,33.9,12.1,47.1,24"/>
<path class="st2" d="M493.1,623.3c8.5,1.9,17,3.9,25.6,5.8c6.3,1.4,12.7,2.9,19.1,3c8.3,0.1,16.5-2,24.5-4.2
	c21-5.5,42-11.1,62.9-16.6c5.6-1.5,11.3-3,16.6-5.6c7.4-3.6,13.6-9.1,19.7-14.5c12.2-10.8,24.5-21.8,34.9-34.4"/>
<path class="st2" d="M377.2,385.2c8.4-7.2,19.9-9.3,30.9-10.7c7.7-0.9,16.1-1.8,21.9-7"/>
<path class="st2" d="M563.3,480.9c0,4.7,0,9.3,0.1,14c-0.5-6.9-0.8-14.4,3.2-20c2.7,1.1,3.1,4.8,2.9,7.7c-0.1,3.1-0.3,6.1-0.4,9.2
	c1.1,0.5,2.2-0.6,2.7-1.7c1.5-2.8,2.1-6,2-9.2"/>
<path class="st2" d="M576.1,457.2c2.6,6.5,0.1,14,1.8,20.8c0.4,1.7,1.2,3.5,2.9,4c1.6,0.5,3.7-1.4,2.8-2.8"/>
<path class="st2" d="M569.5,470.4c5.7,0.7,11.6,0.8,17.3,0.5c0.6,0,1.3-0.6,0.9-1"/>
<path class="st2" d="M586.7,478.2c3.6-0.1,7.3-0.8,10.7-2.1c1.7-0.7,3.6-1.7,3.9-3.5c0.3-1.2-0.3-2.5-1-3.5
	c-4.6-6.4-9.3-0.7-9.6,4.4c-0.5,8,0.2,16.5,0.2,24.6"/>
<path class="st2" d="M571.1,533.6c0-0.6,0-1.3-0.1-1.9c-1.2-0.5-2.6,0.6-2.7,1.8c-0.1,1.3,0.7,2.5,1.7,3.2c1,0.8,2.3,1.2,3.4,1.8
	c2.1,1.1,3.9,2.7,5.3,4.6c0.5,0.7,0.9,1.5,0.7,2.4c-0.1,0.6-0.6,1.1-1,1.5c-2.8,2.7-6.9,3.8-10.7,3"/>
<path class="st2" d="M570.8,515.9c5.8,11.9,9.6,24.7,11.2,37.8c0-4.7,0-9.4,0-14.1c0-2,0.4-4.5,2.3-5c1.2-0.3,2.5,0.5,3.4,1.4
	c3.6,3.3,5.8,8.1,6,13c2-3.7,2.2-8.1,2.5-12.3"/>
<path class="st2" d="M598.3,530c-0.6,4.9-0.3,9.9,1,14.7c0.2-2.1,0.4-4.3,0.6-6.4"/>
<path class="st2" d="M604.7,526.8c-1.1,5.4-0.2,11.1,2.5,16c-0.3-6.7,1.2-13.5,4.5-19.3c3.8,4.2,6.1,9.7,6.4,15.3
	c1.1-2.8,1.9-5.8,2.2-8.8"/>
<path class="st2" d="M593.5,518.5c-1.2,0.5-1.8,1.9-1.5,3.1c0.3,1.2,1.6,2.1,2.9,1.9c0.4-1.8,0.4-4.3-1.3-4.9"/>
<path class="st2" d="M383.3,398.4c-0.2-1.1,0.4-2.2,1.1-3.1c1.1-1.5,2.2-3,3.2-4.5c1.1-1.6,2.2-3.1,3.6-4.4c1.6-1.5,3.4-2.7,5.1-4.1
	c2.3-2,4.1-4.5,5.9-7"/>
<path class="st2" d="M385.2,406.3c6.3-12.5,18.7-21,26.3-32.9"/>
<path class="st2" d="M387.2,417.3c2.2-4.5,6.6-7.4,10.1-10.9c6.4-6.4,10.2-14.9,15.9-21.9c3.1-3.9,6.8-7.4,11-10.3"/>
<path class="st2" d="M390,429.5c17.2-18.1,33.5-37,48.9-56.6c-0.2,0.4-0.4,0.7-0.6,1.1"/>
<path class="st2" d="M393.4,439c8.9-18.9,26.9-31.5,41.6-46.2c3.1-3.1,6-6.2,8.9-9.4c3.4-3.7,6.8-7.4,10.2-11.1"/>
<path class="st2" d="M401.6,445.2c0.9-1.7,1.9-3.4,3-5.1c14.5-22.9,36-40.4,52.9-61.5"/>
<path class="st2" d="M408,447.2c7.7-12.2,16.8-23.6,27.1-33.8c9.9-9.9,21-18.7,29.6-29.7"/>
<path class="st2" d="M420.7,450.4c12.3-18.1,25.6-35.6,39.6-52.4"/>
<path class="st2" d="M431.5,446.6c3.2-3.2,6.4-6.5,9-10.2c2.5-3.6,4.4-7.7,6.8-11.5c4.9-8,11.6-14.6,18.3-21.2"/>
<path class="st2" d="M441.9,440.9c7.3-6.5,13.6-14.1,18.7-22.4"/>
<path class="st2" d="M504.3,389.3c-0.7-1.4,0.1-3,1-4.3c5.7-8.6,11.4-17.2,18.4-24.9"/>
<path class="st2" d="M503,403.5c5.9-11.1,13.6-21.1,22.9-29.5c4.3-3.9,9-7.5,12.3-12.3"/>
<path class="st2" d="M504.5,410.1c14-18,30.2-34.4,48.1-48.7"/>
<path class="st2" d="M508.6,418.3c-0.4-1.8,0.7-3.5,1.8-5c7.7-10.5,16.8-19.9,27.1-27.9c8.8-6.9,18.6-12.9,25.3-21.9"/>
<path class="st2" d="M513.7,427.4c1.3-1.9,2.6-3.9,3.9-5.8c5.4-7.9,10.8-15.9,17.6-22.7c11.2-11.2,25.8-19,35.3-31.7"/>
<path class="st2" d="M515.9,433.8c20.5-20.8,40.9-41.7,61.4-62.5"/>
<path class="st2" d="M525.5,435.7c0.6-3.3,3.1-5.9,5.4-8.3c16.6-16.5,33.4-32.7,50.6-48.5"/>
<path class="st2" d="M536,438.6c0.2-1.7,1.4-3.2,2.6-4.5c7.9-8.7,15.8-17.5,24.6-25.3c6.8-6.1,14.2-11.7,19-19.4"/>
<path class="st2" d="M542.6,439.4c11.2-14.8,24.5-28,39.4-39"/>
<path class="st2" d="M549.1,441.2c9.7-11.9,19.7-23.5,29.9-34.9"/>
<path class="st2" d="M559.9,438.6c7.9-9.6,16-18.9,24.3-28.1"/>
<path class="st2" d="M500.5,395.3c0.9,3.4,0.4,7.1,1.7,10.3c0.3,0.8,0.8,1.6,1.2,2.3c2.4,4.4,4.2,9.2,5.2,14.2"/>
<path class="st1" d="M463.8,536c-0.1,0-0.2,0-0.3,0.1c0.6,2.5,1.4,5,2.3,7.4c0.1-0.1,0.4-0.1,0.5,0.1"/>
<path class="st1" d="M460.5,535.7C460.5,535.6,460.5,535.6,460.5,535.7c-0.3,1.5-0.7,2.8-0.9,4.4c-0.1,0.6-0.2,1.1-0.1,1.7
	c0.1,1.5,1.1,2.8,2.1,3.9c1.1,1.2,2.2,2.4,3.6,3.1c0.9,0.5,1.8,0.8,2.8,1.2c1.3,0.5,2.6,0.9,4,1.1c4.1,0.4,8-2.2,12.2-2.1"/>
<path class="st1" d="M477.1,534.7c0.1,0.1,0.2,0.1,0.3,0.2"/>
<text transform="matrix(1 0 0 1 98.1951 136.3477)"><tspan x="0" y="0" class="st4 st5 st6">Tan-Phat Nguyen’s</tspan><tspan x="714.4" y="0" class="st5 st6"> </tspan><tspan x="738.9" y="0" class="st7 st5 st6">Blog</tspan></text>
</svg>
